<svg width="268" height="100" viewBox="0 0 268 100" fill="none" xmlns="http://www.w3.org/2000/svg">
<path d="M81.4519 20.7768C81.9299 21.2659 82.1941 21.9248 82.1865 22.6086C82.1865 23.2927 81.9147 23.9488 81.431 24.4326C80.9472 24.9163 80.2911 25.1881 79.607 25.1881C78.9229 25.1881 78.2668 24.9163 77.783 24.4326C77.2993 23.9488 77.0275 23.2927 77.0275 22.6086C77.0217 22.0934 77.1703 21.5883 77.4541 21.1583C77.738 20.7284 78.1441 20.3933 78.6201 20.1962C79.0961 19.9991 79.6203 19.9491 80.125 20.0526C80.6297 20.1561 81.0918 20.4083 81.4519 20.7768ZM81.2074 21.0213C80.9994 20.8134 80.7519 20.6493 80.4796 20.5385C80.2072 20.4277 79.9154 20.3725 79.6213 20.3761C79.3291 20.3713 79.0389 20.426 78.7685 20.5369C78.498 20.6479 78.253 20.8127 78.0483 21.0213C77.8393 21.2285 77.6744 21.4758 77.5635 21.7484C77.4526 22.021 77.3981 22.3132 77.4032 22.6074C77.3991 22.8996 77.4542 23.1895 77.565 23.4598C77.6759 23.7301 77.8403 23.9752 78.0483 24.1804C78.253 24.389 78.498 24.5538 78.7685 24.6648C79.0389 24.7757 79.3291 24.8304 79.6213 24.8256C79.9154 24.8292 80.2072 24.774 80.4796 24.6632C80.7519 24.5524 80.9994 24.3883 81.2074 24.1804C81.4155 23.9752 81.5799 23.7301 81.6907 23.4598C81.8016 23.1895 81.8567 22.8996 81.8526 22.6074C81.8577 22.3132 81.8031 22.021 81.6923 21.7484C81.5814 21.4758 81.4165 21.2285 81.2074 21.0213ZM78.7186 23.9622V21.2407H79.7251C79.829 21.2386 79.9323 21.2575 80.0288 21.2964C80.1252 21.3352 80.2128 21.3931 80.2863 21.4666C80.3598 21.5401 80.4177 21.6277 80.4566 21.7241C80.4954 21.8206 80.5143 21.9239 80.5122 22.0278C80.5141 22.1333 80.4945 22.2381 80.4545 22.3357C80.4145 22.4333 80.355 22.5217 80.2796 22.5955C80.2082 22.6616 80.1254 22.7142 80.0351 22.7505L80.5122 23.9634H80.022L79.57 22.8149H79.1181V23.9622H78.7186ZM80.1055 22.0278C80.1077 21.9766 80.098 21.9255 80.0774 21.8786C80.0567 21.8317 80.0255 21.7901 79.9862 21.7571C79.9516 21.7199 79.9097 21.6901 79.8632 21.6696C79.8166 21.6491 79.7664 21.6383 79.7155 21.6379H79.1097V22.4118H79.7155C79.817 22.4086 79.9134 22.3668 79.9851 22.295C80.0569 22.2233 80.0986 22.1269 80.1019 22.0254" fill="#0C93F4"/>
<path d="M45.9473 23.873V41.5289L61.4756 32.8101L45.9473 23.873Z" fill="#0C93F4"/>
<path d="M45.9473 58.9648V76.6266L61.4756 67.9078L45.9473 58.9648Z" fill="#0C93F4"/>
<path d="M46.025 41.4141V59.0699L30.5098 50.3642L46.025 41.4141Z" fill="#0C93F4"/>
<path d="M17.3798 21.4091H74.5916V78.6209H17.3798V21.4091ZM16 80.0007H75.9714V20.0293H16V80.0007Z" fill="#0C93F4"/>
<path d="M240.591 44.2237C240.187 44.4083 239.745 44.4922 239.302 44.4682H239.018V45.1265H245.053V44.5302H244.679C243.479 44.5302 242.89 44.1044 242.89 43.241V38.5495H246.424C246.907 38.5932 247.381 38.7106 247.83 38.8977C248.141 39.0133 248.406 39.2296 248.581 39.5123C248.756 39.795 248.832 40.1281 248.797 40.4588V43.631C248.791 44.1542 248.964 44.6637 249.287 45.0752C249.45 45.2859 249.662 45.4536 249.905 45.5637C250.148 45.6738 250.414 45.7231 250.68 45.7072C251.048 45.7566 251.422 45.699 251.759 45.5413C252.095 45.3835 252.379 45.1323 252.576 44.8176C252.903 44.1341 253.063 43.3821 253.04 42.6245V41.8374H252.215V42.7533C252.215 43.8111 251.879 44.3262 251.221 44.3262C251.092 44.3283 250.964 44.3018 250.847 44.2487C250.727 44.2487 250.679 43.9911 250.679 43.6298V40.5864C250.709 40.2581 250.658 39.9273 250.53 39.6235C250.402 39.3197 250.201 39.0524 249.944 38.8452C249.392 38.4595 248.783 38.1637 248.138 37.9687C248.946 37.868 249.702 37.5212 250.305 36.9753C250.605 36.7099 250.843 36.3816 251.001 36.0139C251.159 35.6461 251.234 35.248 251.221 34.8478C251.316 34.1938 251.168 33.5277 250.804 32.9761C250.44 32.4244 249.886 32.0257 249.247 31.8557C247.988 31.5004 246.687 31.3182 245.379 31.3142H239.008V31.9725H239.292C239.739 31.9537 240.183 32.0515 240.581 32.2564C240.738 32.4157 240.856 32.6092 240.925 32.8217C240.994 33.0343 241.013 33.26 240.981 33.4811V42.9739C240.981 43.6572 240.852 44.0698 240.581 44.263M245.805 32.3971C246.607 32.3945 247.401 32.5569 248.138 32.8741C248.505 33.0558 248.807 33.347 249.001 33.7074C249.195 34.0679 249.272 34.4797 249.221 34.886C249.221 36.2017 248.757 36.9884 247.828 37.246C246.9 37.5034 245.941 37.6334 244.978 37.6324H242.811V32.3589L245.805 32.3971ZM227.4 44.263C226.997 44.449 226.554 44.5329 226.111 44.5075H225.827V45.1658H237.228V41.1409H236.518C236.473 41.8579 236.33 42.5653 236.092 43.2434C235.86 43.8397 235.241 44.1199 234.222 44.1199H229.691V38.5495H231.316C232.09 38.5495 232.605 38.7296 232.735 39.0778C232.936 39.5831 233.045 40.1202 233.057 40.6639H233.754V35.3761H233.057C233.026 35.931 232.899 36.4763 232.683 36.9884C232.515 37.3629 232.038 37.543 231.264 37.543H229.641V32.3458H233.059C234.219 32.3458 234.955 32.5521 235.252 32.9647C235.617 33.6205 235.804 34.3607 235.793 35.1113H236.463V31.3142H225.772V31.9845H226.056C226.504 31.9567 226.95 32.055 227.345 32.2683C227.616 32.4484 227.744 32.8646 227.744 33.4811V42.9739C227.744 43.6572 227.616 44.0698 227.345 44.263M210.823 44.1855C210.438 44.4252 209.987 44.5378 209.534 44.5075H209.25V45.1658H214.409V44.5337H214.112C212.952 44.5337 212.371 44.108 212.371 43.2446V34.3064L221.27 45.1276H222.199V33.5157C222.199 32.8968 222.354 32.4841 222.663 32.3029C223.057 32.0883 223.504 31.9898 223.952 32.019H224.327V31.3142H219.168V31.9845H219.542C219.986 31.9691 220.427 32.0573 220.831 32.2421C221.001 32.3679 221.134 32.5374 221.216 32.7327C221.298 32.9279 221.325 33.1416 221.295 33.3511V42.095H221.176L212.393 31.313H209.236V31.9833H209.52C209.964 31.9651 210.406 32.0534 210.809 32.2409C210.979 32.3667 211.112 32.5362 211.194 32.7315C211.275 32.9267 211.303 33.1404 211.273 33.3499V42.9727C211.299 43.188 211.274 43.4064 211.2 43.6103C211.126 43.8142 211.005 43.9978 210.847 44.1462M201.174 31.9821H201.549C201.968 31.9681 202.384 32.0565 202.762 32.2397C203.072 32.4197 203.214 32.7811 203.214 33.3487V43.241C203.214 44.0663 202.659 44.5302 201.544 44.5302H201.169V45.1885H207.132V44.5302H206.746C205.65 44.5302 205.095 44.1044 205.095 43.241V33.3511C205.095 32.7835 205.237 32.4221 205.547 32.2421C205.919 32.0553 206.332 31.9666 206.747 31.9845H207.133V31.3142H201.171L201.174 31.9821ZM189.567 44.2213C189.164 44.4083 188.721 44.4923 188.278 44.4658H187.981V45.1241H199.382V41.1409H198.685C198.63 41.8577 198.483 42.5643 198.247 43.2434C198.027 43.8397 197.412 44.1199 196.39 44.1199H191.85V38.5495H193.475C194.249 38.5495 194.764 38.7296 194.906 39.0778C195.113 39.583 195.234 40.119 195.264 40.6639H195.974V35.3761H195.264C195.231 35.9291 195.11 36.4732 194.906 36.9884C194.726 37.3629 194.248 37.543 193.475 37.543H191.85V32.3458H195.268C196.428 32.3458 197.164 32.5521 197.461 32.9647C197.832 33.6181 198.019 34.36 198.002 35.1113H198.685V31.3142H187.981V31.9845H188.278C188.726 31.9559 189.173 32.0543 189.567 32.2683C189.838 32.4484 189.967 32.8646 189.967 33.4811V42.9739C189.967 43.6572 189.838 44.0698 189.567 44.263M175.265 35.2354C175.265 33.9462 175.484 33.1722 175.91 32.8503C176.431 32.5001 177.051 32.3281 177.677 32.3601H179.347V43.2458C179.347 44.071 178.792 44.5349 177.677 44.5349H177.303V45.1932H183.338V44.5349H182.926C181.843 44.5349 181.3 44.1092 181.3 43.2458V32.3458H183.055C183.697 32.3146 184.333 32.486 184.873 32.8359C185.325 33.1579 185.543 33.9581 185.543 35.2211H186.22V31.3524H174.431V35.2211L175.265 35.2354ZM162.755 45.1527V45.0334C162.755 44.6757 162.874 44.5051 163.113 44.5051C163.743 44.5724 164.351 44.7793 164.892 45.1109C165.713 45.5313 166.627 45.7395 167.549 45.7168C168.793 45.7076 170.004 45.3158 171.018 44.5946C171.549 44.2476 171.981 43.7681 172.27 43.2035C172.56 42.6389 172.697 42.0085 172.669 41.3747C172.73 40.8428 172.642 40.3043 172.414 39.8197C172.187 39.3351 171.828 38.9237 171.379 38.6318C170.473 38.107 169.496 37.7162 168.478 37.4714C167.42 37.2007 166.451 36.9169 165.563 36.6068C165.166 36.4822 164.822 36.2267 164.589 35.882C164.355 35.5372 164.245 35.1235 164.276 34.7083C164.256 34.3313 164.346 33.9564 164.537 33.6307C164.728 33.3049 165.011 33.0426 165.35 32.8765C166.009 32.516 166.745 32.3212 167.496 32.3088C168.467 32.2827 169.426 32.5236 170.269 33.0053C170.679 33.2718 171.013 33.6399 171.239 34.0737C171.465 34.5074 171.575 34.9923 171.558 35.481H172.255V31.6362H171.551C171.536 31.7452 171.492 31.848 171.422 31.9332C171.36 32.0066 171.28 32.0629 171.189 32.0967C171.099 32.1305 171.001 32.1407 170.906 32.1264C170.431 32.0726 169.969 31.9375 169.539 31.7269C168.767 31.4265 167.943 31.2861 167.115 31.3142C165.989 31.3193 164.889 31.6457 163.943 32.2552C163.457 32.5452 163.06 32.9633 162.796 33.4637C162.532 33.9641 162.411 34.5276 162.446 35.0923C162.4 35.5995 162.496 36.1095 162.724 36.5651C162.952 37.0207 163.302 37.4039 163.735 37.6718C164.65 38.1772 165.625 38.567 166.637 38.8321C167.625 39.0918 168.598 39.4059 169.551 39.7731C169.951 39.9177 170.293 40.1885 170.526 40.5445C170.758 40.9005 170.869 41.3225 170.84 41.7467C170.865 42.1642 170.769 42.5799 170.563 42.9439C170.357 43.3078 170.051 43.6045 169.68 43.7979C168.97 44.209 168.166 44.4311 167.346 44.4431C166.327 44.4386 165.329 44.1579 164.457 43.631C164.009 43.3815 163.625 43.0315 163.335 42.6085C163.045 42.1856 162.858 41.7012 162.787 41.1934H162.129V45.0621L162.755 45.1527ZM158.036 31.6362V31.765C158.019 31.8758 157.978 31.9816 157.917 32.0751C157.88 32.1504 157.82 32.2121 157.746 32.2514C157.672 32.2908 157.587 32.3059 157.504 32.2945C157.27 32.2957 157.039 32.2378 156.834 32.1264C156.537 31.9862 156.231 31.8667 155.918 31.7686L154.629 31.4979C154.087 31.3744 153.533 31.314 152.978 31.3178C151.989 31.2715 151 31.4209 150.068 31.7573C149.136 32.0937 148.28 32.6106 147.548 33.2784C146.868 33.9491 146.336 34.7544 145.985 35.6427C145.634 36.5311 145.472 37.483 145.51 38.4374C145.487 39.3912 145.657 40.3398 146.009 41.2263C146.362 42.1129 146.89 42.919 147.562 43.5964C148.192 44.2781 148.959 44.8198 149.812 45.1863C150.665 45.5528 151.586 45.7359 152.514 45.7239C153.411 45.7248 154.295 45.5126 155.094 45.105C155.881 44.7327 156.615 44.2553 157.274 43.6858L157.764 45.1563H158.744V41.1159C158.744 40.5101 158.886 40.1487 159.17 40.0426C159.502 39.9309 159.851 39.8784 160.202 39.8875H160.73V39.24H155.081V39.8852H155.365C155.773 39.8606 156.182 39.9407 156.551 40.1177C156.822 40.2727 156.951 40.6854 156.951 41.4069C156.971 41.8676 156.86 42.3246 156.632 42.7254C156.404 43.1262 156.068 43.4546 155.661 43.6727C154.796 44.1601 153.818 44.4133 152.824 44.4073C152.079 44.4509 151.335 44.3074 150.659 43.9897C149.983 43.6721 149.398 43.1905 148.956 42.5887C148.097 41.4094 147.645 39.9831 147.667 38.5244C147.634 36.9168 148.163 35.3481 149.162 34.0881C149.651 33.4608 150.283 32.9601 151.006 32.628C151.728 32.296 152.52 32.1423 153.314 32.18C154.318 32.1825 155.309 32.4073 156.216 32.8383C156.701 33.1167 157.117 33.5017 157.432 33.9642C157.747 34.4268 157.953 34.9548 158.035 35.5085H158.731V31.6362H158.036ZM137.956 31.9845H138.33C138.745 31.9695 139.157 32.058 139.53 32.2421C139.7 32.3679 139.833 32.5374 139.914 32.7327C139.996 32.9279 140.023 33.1416 139.994 33.3511V43.2434C139.994 44.0687 139.439 44.5326 138.324 44.5326H137.95V45.1908H143.912V44.5326H143.526C142.417 44.5326 141.856 44.1068 141.856 43.2434V33.3511C141.827 33.1428 141.854 32.9305 141.933 32.7357C142.012 32.541 142.142 32.3706 142.308 32.2421C142.686 32.0589 143.102 31.9704 143.521 31.9845H143.908V31.3142H137.945L137.956 31.9845ZM122.62 44.1462C122.234 44.3827 121.784 44.4951 121.331 44.4682H121.034V45.1265H126.193V44.5302H125.91C124.749 44.5302 124.168 44.1044 124.168 43.241V34.3064L133.067 45.1276H133.986V33.5157C133.986 32.8968 134.141 32.4841 134.463 32.3029C134.855 32.0841 135.303 31.9854 135.752 32.019H136.126V31.3142H130.965V31.9845H131.339C131.783 31.9668 132.225 32.0551 132.628 32.2421C132.803 32.3644 132.94 32.533 133.024 32.7288C133.109 32.9247 133.137 33.1402 133.105 33.3511V42.095H132.977L124.207 31.3142H120.995V31.9845H121.292C121.736 31.9626 122.179 32.0511 122.581 32.2421C122.754 32.3663 122.889 32.5352 122.973 32.7305C123.057 32.9259 123.087 33.1404 123.058 33.3511V42.9727C123.084 43.188 123.059 43.4064 122.986 43.6103C122.912 43.8142 122.791 43.9978 122.632 44.1462M107.852 43.5785C109.239 44.9414 111.105 45.7051 113.05 45.7051C114.994 45.7051 116.861 44.9414 118.247 43.5785C118.939 42.9115 119.487 42.1094 119.856 41.2219C120.226 40.3345 120.409 39.3806 120.394 38.4195C120.425 37.4613 120.256 36.5072 119.896 35.6186C119.536 34.73 118.994 33.9267 118.305 33.2605C117.62 32.6002 116.811 32.0824 115.924 31.7372C115.038 31.3921 114.092 31.2264 113.141 31.2498C112.176 31.2108 111.213 31.3639 110.308 31.7003C109.403 32.0367 108.574 32.5496 107.868 33.2092C107.194 33.8836 106.666 34.6898 106.317 35.5775C105.968 36.4651 105.806 37.4151 105.841 38.3682C105.822 39.3246 105.996 40.275 106.352 41.1625C106.709 42.05 107.242 42.8563 107.917 43.5332M109.207 34.0929C109.632 33.4656 110.211 32.9575 110.888 32.6167C111.565 32.2759 112.318 32.1137 113.075 32.1455C113.835 32.098 114.593 32.2534 115.273 32.5956C115.953 32.9378 116.53 33.4545 116.944 34.0929C117.798 35.3519 118.247 36.8412 118.233 38.3623C118.257 39.8684 117.806 41.3438 116.944 42.5791C116.517 43.2009 115.936 43.7012 115.258 44.0313C114.58 44.3613 113.828 44.5098 113.075 44.4622C112.325 44.4951 111.578 44.3401 110.902 44.0113C110.227 43.6825 109.644 43.1902 109.207 42.5791C108.304 41.3599 107.824 39.8792 107.84 38.3623C107.833 36.8305 108.311 35.3359 109.207 34.0929ZM110.492 28.4247C110.289 28.6166 110.169 28.8801 110.157 29.1593C110.157 29.2912 110.187 29.4214 110.245 29.5398C110.303 29.6583 110.388 29.7618 110.492 29.8426C110.697 30.0181 110.957 30.1142 111.227 30.1133C111.357 30.1337 111.49 30.1231 111.615 30.0824C111.74 30.0416 111.853 29.9719 111.946 29.8789C112.039 29.7859 112.109 29.6722 112.15 29.5472C112.191 29.4221 112.201 29.2892 112.181 29.1593C112.177 28.8906 112.082 28.6313 111.91 28.4247C111.831 28.3181 111.728 28.232 111.609 28.1736C111.49 28.1153 111.359 28.0865 111.227 28.0896C111.088 28.09 110.95 28.1202 110.823 28.178C110.697 28.2358 110.584 28.3199 110.492 28.4247ZM114.271 28.4247C114.072 28.6178 113.956 28.8816 113.949 29.1593C113.947 29.2903 113.975 29.4201 114.03 29.5386C114.086 29.6571 114.169 29.7612 114.271 29.8426C114.48 30.0201 114.745 30.1162 115.019 30.1133C115.292 30.1097 115.555 30.0143 115.767 29.8426C115.875 29.7648 115.963 29.6622 116.024 29.5433C116.085 29.4244 116.116 29.2927 116.115 29.1593C116.092 28.8786 115.968 28.6158 115.767 28.4188C115.565 28.2217 115.3 28.1036 115.019 28.086C114.878 28.0846 114.738 28.1138 114.609 28.1717C114.479 28.2295 114.364 28.3146 114.271 28.4211M91.2156 44.5337H90.958V45.192H96.9554V44.5337H96.5809C95.3562 44.5337 94.7492 44.108 94.7492 43.2446V41.0121L97.2535 38.175L100.787 43.2434C100.809 43.3463 100.853 43.4432 100.916 43.5272C100.999 43.6391 101.044 43.7744 101.045 43.9136C101.045 44.1974 100.865 44.3775 100.528 44.4169C100.242 44.4633 99.9534 44.4893 99.6637 44.4944H99.4192V45.1527H105.159V44.5337H104.901C104.473 44.5386 104.059 44.3819 103.741 44.0949C103.43 43.8034 103.141 43.4889 102.876 43.154L98.5415 36.7952L101.418 33.468C101.718 33.1055 102.065 32.7847 102.449 32.514C103.007 32.1767 103.64 31.9855 104.291 31.9582H104.42V31.3142H98.8766V31.9725H99.0054C99.2479 31.982 99.4874 32.0299 99.715 32.1144C99.8387 32.147 99.9473 32.2213 100.022 32.3247C100.098 32.4282 100.135 32.5544 100.128 32.6821C100.138 32.834 100.107 32.9858 100.037 33.121C99.9688 33.2341 99.9124 33.354 99.8688 33.4787L94.878 39.5012H94.7503V33.3511C94.7203 33.1389 94.7503 32.9226 94.8369 32.7265C94.9235 32.5305 95.0633 32.3627 95.2405 32.2421C95.6432 32.0524 96.0847 31.9597 96.5296 31.9713H96.9041V31.3142H90.958V31.9725H91.2156C91.6611 31.9548 92.104 32.0478 92.5048 32.2432C92.6773 32.3675 92.8128 32.5364 92.8968 32.7317C92.9809 32.9271 93.0102 33.1416 92.9818 33.3523V43.2446C92.9818 44.0698 92.376 44.5337 91.1929 44.5337" fill="#0C93F4"/>
<path d="M98.2053 62.0981H94.1303L96.1815 56.9391L98.2053 62.0981ZM95.7677 55.7656L91.5508 65.5935H92.6336L93.8333 62.8208H98.5404L99.727 65.5935H100.823L96.606 55.7656H95.7677Z" fill="#0C93F4"/>
<path d="M252.972 50.377H90.958" stroke="#0C93F4" stroke-width="0.57"/>
<path d="M245.569 60.5288V56.5695H246.445C247.392 56.4951 248.345 56.5691 249.269 56.7889C249.646 56.8873 249.978 57.11 250.212 57.4208C250.446 57.7316 250.569 58.1124 250.56 58.5014C250.562 58.9296 250.415 59.3452 250.144 59.6771C249.874 60.0089 249.496 60.2362 249.076 60.3201C248.232 60.5205 247.362 60.5901 246.496 60.5264L245.569 60.5288ZM244.537 55.8301V65.5936H245.569V61.3003H247.835L251.111 65.6341H252.408L249.069 61.1823C250.789 60.718 251.648 59.8581 251.648 58.6028C251.654 58.0261 251.46 57.4652 251.098 57.0161C250.736 56.5669 250.23 56.2573 249.665 56.1401C248.607 55.8795 247.514 55.7881 246.427 55.8694L244.537 55.8301Z" fill="#0C93F4"/>
<path d="M218.885 55.8301V61.6462C218.885 63.2716 218.885 63.4255 219.129 63.9287C219.633 65.0772 221.064 65.7474 222.998 65.7474C224.932 65.7474 226.39 65.0772 226.867 63.9287C227.086 63.4255 227.099 63.2705 227.099 61.6462V55.8301H226.068V61.6211C226.068 63.1941 226.068 63.4267 225.784 63.8524C225.446 64.2637 225.01 64.5842 224.517 64.7847C224.024 64.9853 223.489 65.0596 222.96 65.0009C222.025 65.0641 221.101 64.7652 220.38 64.1661C219.941 63.689 219.877 63.4314 219.864 61.5866V55.8301H218.885Z" fill="#0C93F4"/>
<path d="M194.135 55.8301V56.5647H197.295V65.5924H198.34V56.5647H201.487V55.8301H194.135Z" fill="#0C93F4"/>
<path d="M168.47 55.8301V65.5936H169.463V57.0811L175.525 65.5936H176.738V55.8301H175.771V64.3807L169.618 55.8301H168.47Z" fill="#0C93F4"/>
<path d="M145.66 60.171V56.5647H150.999V55.8301H144.61V65.5936H151.072V64.8577H145.66V60.9116H150.638V60.171H145.66Z" fill="#0C93F4"/>
<path d="M123.717 60.8098V61.5969H126.206V64.3827C125.312 64.796 124.339 65.0073 123.355 65.0016C122.438 65.0599 121.529 64.8051 120.776 64.2789C120.27 63.8373 119.872 63.2845 119.615 62.6639C119.357 62.0433 119.247 61.3716 119.292 60.7013C119.292 58.0311 120.736 56.408 123.097 56.408C123.735 56.3316 124.38 56.4895 124.911 56.8525C125.443 57.2154 125.824 57.7588 125.985 58.3817H127.003C126.681 56.6275 125.288 55.6734 123.135 55.6734C122.463 55.6223 121.789 55.7178 121.158 55.9533C120.528 56.1888 119.956 56.5586 119.482 57.0371C119.009 57.5156 118.645 58.0914 118.416 58.7245C118.187 59.3576 118.099 60.0329 118.157 60.7036C118.157 63.8758 120.065 65.747 123.316 65.747C124.668 65.802 126.009 65.476 127.185 64.806V60.8098H123.717Z" fill="#0C93F4"/>
</svg>
