<svg width="268" height="100" viewBox="0 0 268 100" fill="none" xmlns="http://www.w3.org/2000/svg">
<path d="M222.115 8.09766L193.068 35.4819L218.442 55.0699L229.332 37.1583L222.115 8.09766Z" fill="#0C93F4"/>
<path d="M224.388 7.95333L230.194 32.923L266.998 0L224.388 7.95333Z" fill="#0C93F4"/>
<path d="M219.243 57.2498L219.721 77.6784L239.38 87.6511L242.369 65.6675L230.619 39.2715L219.243 57.2498Z" fill="#0C93F4"/>
<path d="M183.334 18.4489L191.464 34.1412L207.531 19.2013L193.573 15.6914L183.334 18.4489Z" fill="#0C93F4"/>
<path d="M172.281 30.8778L186.285 27.7822L182.432 20.4004L173.917 25.6391L172.281 30.8778Z" fill="#0C93F4"/>
<mask id="mask0_1_2712" style="mask-type:luminance" maskUnits="userSpaceOnUse" x="2" y="0" width="265" height="100">
<path d="M267 0H2V100H267V0Z" fill="white"/>
</mask>
<g mask="url(#mask0_1_2712)">
<path d="M72.4282 87.9859H68.2865V83.6711C65.8418 86.2768 62.5608 87.9514 59.0091 88.4062C55.4574 88.861 51.8576 88.0674 48.8305 86.1624C45.8034 84.2574 43.5387 81.3603 42.4268 77.9706C41.315 74.5809 41.4257 70.9112 42.7399 67.5941C44.0542 64.277 46.4895 61.5205 49.626 59.7999C52.7625 58.0793 56.4036 57.5025 59.9215 58.1688C63.4394 58.8351 66.6135 60.7029 68.8967 63.4501C71.1798 66.1972 72.4287 69.6516 72.4282 73.2175V87.9859ZM57.0522 61.9185C54.877 61.9197 52.7479 62.5433 50.9184 63.7151C49.089 64.887 47.6363 66.5577 46.7333 68.5283C45.8303 70.499 45.5151 72.6865 45.8251 74.8305C46.1351 76.9745 47.0573 78.9846 48.482 80.6215C49.9066 82.2584 51.7736 83.4531 53.8608 84.0634C55.9479 84.6737 58.1672 84.6738 60.2544 84.0638C62.3416 83.4538 64.2088 82.2593 65.6336 80.6226C67.0585 78.9859 67.981 76.9759 68.2913 74.8319C68.2913 74.8319 68.4299 73.3127 68.406 72.7745C68.2828 69.8577 67.0339 67.1007 64.9196 65.0782C62.8053 63.0558 59.9887 61.9239 57.057 61.9185M32.3693 87.9859C31.8119 87.966 31.2694 87.8019 30.7951 87.5096C30.3208 87.2173 29.9313 86.8069 29.6648 86.319C27.6513 83.4234 16.814 68.0645 16.814 68.0645H26.2094C28.451 68.0645 30.6008 67.1777 32.1859 65.5993C33.7709 64.0209 34.6614 61.8802 34.6614 59.648C34.6614 57.4158 33.7709 55.275 32.1859 53.6966C30.6008 52.1182 28.451 51.2315 26.2094 51.2315H4.9628L2 47.0215H26.2022C29.5635 47.0215 32.7872 48.3511 35.164 50.718C37.5408 53.0848 38.876 56.2949 38.876 59.642C38.876 62.9892 37.5408 66.1993 35.164 68.5661C32.7872 70.9329 29.5635 72.2626 26.2022 72.2626H24.9564C29.672 78.93 36.1404 87.9787 36.1404 87.9787H32.3693M185.672 99.9921C181.557 100.036 177.582 98.509 174.562 95.7249L174.244 95.4392L176.502 92.1769L176.904 92.515C177.955 93.4045 179.139 94.1274 180.412 94.6581C183.243 95.9533 186.464 96.1236 189.417 95.1344C190.917 94.6406 192.24 93.7222 193.225 92.4916C194.209 91.261 194.812 89.7714 194.96 88.205C195.324 86.2172 195.116 84.1675 194.36 82.2924C193.774 80.793 192.76 79.4977 191.442 78.5665C190.124 77.6354 188.562 77.1094 186.947 77.0536C185.35 76.8841 183.734 77.0635 182.214 77.5792C180.693 78.0949 179.304 78.9346 178.142 80.0397C177.914 80.2625 177.612 80.3939 177.293 80.4088C177.065 80.4021 176.842 80.3434 176.64 80.2374C174.804 79.3039 174.694 79.0967 175.012 77.0822L175.029 76.9822C175.438 74.3486 175.82 71.7197 176.224 69.0884C176.411 67.7692 176.607 66.469 176.791 65.1403C177.119 62.9972 177.432 60.8708 177.762 58.6919L177.817 58.28H198.528L195.68 62.4495H181.404L179.697 74.1461L180.199 73.9533C181.111 73.5715 182.055 73.2695 183.02 73.0508C183.974 72.8611 184.944 72.7654 185.916 72.765C188.308 72.7105 190.669 73.3107 192.742 74.5002C194.815 75.6897 196.52 77.423 197.672 79.5111C199.292 82.4876 199.792 85.942 199.084 89.2531C198.375 92.5643 196.503 95.5151 193.805 97.5751C191.759 98.991 189.358 99.8151 186.87 99.9564C186.454 99.9802 186.06 99.9945 185.658 99.9945M209.875 87.9811H205.666V62.4567H201.06L203.887 58.3157H209.882L209.875 87.9811ZM120.187 88.5312C117.145 88.5321 114.171 87.6347 111.642 85.9525C109.112 84.2703 107.14 81.8788 105.976 79.0805C104.811 76.2822 104.506 73.2029 105.099 70.2319C105.692 67.261 107.156 64.5319 109.307 62.3899C111.458 60.2478 114.198 58.789 117.182 58.198C120.165 57.607 123.258 57.9104 126.068 59.0697C128.878 60.2289 131.28 62.1921 132.97 64.7108C134.659 67.2296 135.561 70.1908 135.561 73.2198V73.8009H108.862C108.995 76.3672 110.002 78.8117 111.718 80.7312C113.434 82.6508 115.755 83.9308 118.299 84.3602C120.844 84.7896 123.459 84.3427 125.714 83.0932C127.969 81.8438 129.729 79.8663 130.704 77.487L130.823 77.1894H135.066L134.867 77.8061C133.895 80.9202 131.945 83.6417 129.304 85.5704C126.664 87.4992 123.471 88.5337 120.197 88.5217M109.417 69.6789H130.974C130.226 67.42 128.782 65.4535 126.847 64.0595C124.911 62.6655 122.584 61.9151 120.195 61.9151C117.807 61.9151 115.479 62.6655 113.544 64.0595C111.609 65.4535 110.164 67.42 109.417 69.6789ZM167.185 87.993H162.934V82.3995C162.934 78.4609 162.934 74.3843 162.912 70.379C162.915 69.219 162.773 68.0631 162.489 66.9381C162.193 65.6649 161.503 64.5164 160.516 63.6549C159.529 62.7935 158.295 62.2627 156.989 62.1376C155.361 61.8186 153.677 61.9392 152.112 62.4869C150.547 63.0346 149.158 63.9894 148.089 65.2522C146.266 67.3485 145.32 70.0615 145.446 72.8317C145.446 75.9916 145.446 87.9716 145.446 87.9716H141.209V58.2871H145.123L145.362 62.7996C146.496 61.2008 148.005 59.9027 149.758 59.0186C151.511 58.1344 153.455 57.6912 155.42 57.7275C158.156 57.6903 160.82 58.5917 162.967 60.2802C165.145 62.0705 166.56 64.6165 166.927 67.4049C167.101 68.5961 167.181 69.7992 167.166 71.0029C167.182 74.8367 167.182 78.6713 167.166 82.5067L167.185 87.993ZM89.282 81.978C89.282 81.978 96.4343 65.3094 98.9547 59.3396C99.0709 59.0001 99.3004 58.7105 99.605 58.519C99.9096 58.3274 100.271 58.2456 100.629 58.2871H104.043C104.043 58.2871 93.6915 82.0518 91.4676 87.1882C91.3989 87.4352 91.25 87.6526 91.044 87.8064C90.8381 87.9603 90.5868 88.0418 90.3294 88.0383H90.1978C89.5606 88.0047 88.922 88.0047 88.2848 88.0383H88.2083C87.9768 88.0515 87.7474 87.9889 87.5552 87.8598C87.363 87.7308 87.2186 87.5425 87.1442 87.3239C83.2248 78.3038 74.6019 58.3085 74.6019 58.3085H77.9497C78.3075 58.267 78.6687 58.3489 78.9733 58.5404C79.2779 58.7319 79.5074 59.0215 79.6236 59.361C82.144 65.3141 89.2963 81.9995 89.2963 81.9995" fill="#0C93F4"/>
</g>
</svg>
