<svg width="444" height="400" viewBox="0 0 444 400" fill="none" xmlns="http://www.w3.org/2000/svg">
<g clip-path="url(#clip0_1_2661)">
<path d="M340.504 363.051C344.922 360.398 349.2 357.465 353.339 354.218C386.619 328.085 400.697 293.92 410.126 254.881C419.867 214.562 422.936 167.359 405.321 128.651C401.174 119.537 395.62 110.903 388.092 104.029C359.748 78.1354 312.258 69.2617 274.716 40.41C237.19 11.5582 190.457 -2.49587 146.028 23.3897C127.228 34.3455 111.711 48.3169 98.1023 64.8497C81.3427 85.2078 58.7415 102.765 45.6597 126.288C31.9196 151.017 27.1311 183.942 33.4252 211.306C40.6079 242.521 69.1741 260.83 88.6488 284.658C104.01 303.447 114.056 325.912 129.894 344.32C154.157 372.519 193.164 393.902 231.825 390.332C269.327 386.862 308.342 382.376 340.504 363.051Z" fill="#F5F9FE"/>
<path d="M98.0534 266.4H46.0303V297.4H98.0534V266.4Z" stroke="#2D2E2E" stroke-linecap="round" stroke-linejoin="round"/>
<path d="M46.0303 266.4L72.0459 281.9L98.0534 266.4" stroke="#2D2E2E" stroke-linecap="round" stroke-linejoin="round"/>
<path d="M46.0303 297.4L66.41 279.099" stroke="#2D2E2E" stroke-linecap="round" stroke-linejoin="round"/>
<path d="M97.8637 297.4L77.4922 279.1" stroke="#2D2E2E" stroke-linecap="round" stroke-linejoin="round"/>
<path d="M368.629 269.719C381.891 267.579 390.914 255.048 388.783 241.73C386.652 228.413 374.173 219.352 360.911 221.492C347.649 223.632 338.626 236.163 340.758 249.481C342.889 262.799 355.367 271.86 368.629 269.719Z" stroke="#2D2E2E" stroke-linecap="round" stroke-linejoin="round"/>
<path d="M354.219 258.815H349.143C348.073 258.815 347.201 257.948 347.201 256.865V244.629C347.201 243.555 348.065 242.679 349.143 242.679H354.219C355.289 242.679 356.161 243.547 356.161 244.629V256.865C356.161 257.939 355.297 258.815 354.219 258.815ZM379.815 241.456C379.815 240.225 378.919 239.209 377.75 239.011V238.986H377.586C377.503 238.986 377.429 238.978 377.347 238.978H374.879L368.675 238.986C368.675 238.986 368.906 237.375 369.482 236.218C370.057 235.061 370.749 233.913 370.856 230.567C370.971 227.22 368.214 226.419 366.84 226.65C365.466 226.882 366.149 229.534 366.034 230.567C365.919 231.608 364.199 233.566 362.134 235.871C360.719 237.457 359.46 240.019 358.81 241.464C358.506 242.15 358.341 242.886 358.341 243.637V257.658L374.879 258.055V258.121H377.108C377.174 258.121 377.24 258.121 377.298 258.113H377.742V258.005C378.425 257.749 378.91 257.088 378.91 256.312C378.91 255.535 378.425 254.874 377.742 254.618V254.246C378.91 254.056 379.807 253.032 379.807 251.801C379.807 250.569 378.91 249.553 377.742 249.355V249.066C378.91 248.876 379.807 247.851 379.807 246.62C379.807 245.389 378.91 244.373 377.742 244.174V243.885C378.91 243.695 379.807 242.671 379.807 241.44L379.815 241.456Z" stroke="#2D2E2E" stroke-linecap="round" stroke-linejoin="round"/>
<path d="M102.57 63.5123C100.431 63.5123 98.5635 64.669 97.5515 66.3958L78.8255 56.2498C78.8255 56.1589 78.8419 56.068 78.8419 55.9689C78.8419 55.8697 78.8337 55.7871 78.8255 55.688L98.2508 45.1619C99.3204 46.3434 100.851 47.087 102.562 47.087C105.779 47.087 108.395 44.4678 108.395 41.229C108.395 37.9902 105.787 35.3711 102.562 35.3711C99.3369 35.3711 96.7287 37.9902 96.7287 41.229C96.7287 41.7 96.7863 42.1544 96.8933 42.5923L77.9369 52.8623C76.9084 51.2098 75.0819 50.1109 73.0003 50.1109C69.7833 50.1109 67.167 52.7301 67.167 55.9689C67.167 59.2077 69.7751 61.8268 73.0003 61.8268C75.0819 61.8268 76.9084 60.7279 77.9369 59.0755L96.7287 69.2546C96.7287 69.2546 96.7287 69.3289 96.7287 69.362C96.7287 72.5925 99.3369 75.2199 102.562 75.2199C105.787 75.2199 108.395 72.6008 108.395 69.362C108.395 66.1232 105.787 63.504 102.562 63.504L102.57 63.5123Z" stroke="#2D2E2E" stroke-miterlimit="10"/>
<path d="M347.094 76.3105L348.51 80.706H353.117L349.39 83.4243L350.813 87.8198L347.094 85.1015L343.367 87.8198L344.791 83.4243L341.064 80.706H345.671L347.094 76.3105Z" stroke="#2D2E2E" stroke-linecap="round" stroke-linejoin="round"/>
<path d="M360.661 76.3105L362.085 80.706H366.684L362.965 83.4243L364.388 87.8198L360.661 85.1015L356.943 87.8198L358.366 83.4243L354.639 80.706H359.238L360.661 76.3105Z" stroke="#2D2E2E" stroke-linecap="round" stroke-linejoin="round"/>
<path d="M374.238 76.3105L375.661 80.706H380.26L376.541 83.4243L377.965 87.8198L374.238 85.1015L370.51 87.8198L371.934 83.4243L368.215 80.706H372.814L374.238 76.3105Z" stroke="#2D2E2E" stroke-linecap="round" stroke-linejoin="round"/>
<path d="M387.813 76.3105L389.236 80.706H393.835L390.108 83.4243L391.532 87.8198L387.813 85.1015L384.086 87.8198L385.509 83.4243L381.79 80.706H386.389L387.813 76.3105Z" stroke="#2D2E2E" stroke-linecap="round" stroke-linejoin="round"/>
<path d="M401.38 76.3105L402.803 80.706H407.411L403.684 83.4243L405.107 87.8198L401.38 85.1015L397.661 87.8198L399.085 83.4243L395.357 80.706H399.965L401.38 76.3105Z" stroke="#2D2E2E" stroke-linecap="round" stroke-linejoin="round"/>
<path d="M183.267 399.192L148.827 355.7L96.9434 363.788L152.011 228.387L238.335 263.79L183.267 399.192Z" fill="white" stroke="#2D2E2E" stroke-miterlimit="10"/>
<path d="M217 255.041L171.699 236.459L121.47 359.963L148.827 355.7L166.82 378.421L217 255.041Z" fill="#FF7294" stroke="#2D2E2E" stroke-miterlimit="10"/>
<path d="M268.316 399.192L302.757 355.7L354.648 363.788L299.581 228.387L213.257 263.79L268.316 399.192Z" fill="white" stroke="#2D2E2E" stroke-miterlimit="10"/>
<path d="M234.591 255.041L279.892 236.459L330.113 359.963L302.757 355.7L284.763 378.421L234.591 255.041Z" fill="#FF7294" stroke="#2D2E2E" stroke-miterlimit="10"/>
<path d="M299.58 228.387L290.925 231.939C274.98 245.704 254.666 254.504 232.361 255.958L225.795 258.651L219.23 255.958C196.916 254.504 176.602 245.704 160.666 231.939L152.01 228.387L134.987 270.251C136.263 272.094 137.744 273.722 139.537 275.027C151.171 283.529 171.551 275.713 185.521 280.274C197.978 284.339 209.052 300.433 222.447 302.854L225.795 294.625L229.144 302.854C242.547 300.433 253.613 284.339 266.069 280.282C280.04 275.729 300.428 283.537 312.053 275.035C313.847 273.73 315.328 272.102 316.603 270.26L299.58 228.395V228.387Z" fill="#2D2E2E" stroke="#2D2E2E" stroke-miterlimit="10"/>
<path d="M365.385 102.23C360.851 88.2004 339.674 82.5573 331.207 70.8745C322.659 59.076 323.803 37.1397 312.054 28.5553C300.42 20.0534 280.04 27.8695 266.07 23.3087C252.585 18.9132 240.737 0.414062 225.795 0.414062C210.854 0.414062 199.006 18.9132 185.521 23.3087C171.551 27.8612 151.163 20.0534 139.537 28.5553C127.788 37.1397 128.932 59.076 120.384 70.8745C111.917 82.5573 90.7395 88.1921 86.2061 102.23C81.829 115.772 95.5115 132.775 95.5115 147.779C95.5115 162.784 81.8208 179.787 86.2061 193.329C90.7395 207.358 111.917 213.002 120.384 224.684C128.932 236.483 127.788 258.419 139.537 267.004C151.171 275.505 171.551 267.689 185.521 272.25C199.006 276.646 210.854 295.145 225.795 295.145C240.737 295.145 252.585 276.646 266.07 272.25C280.04 267.698 300.428 275.505 312.054 267.004C323.803 258.419 322.659 236.483 331.207 224.684C339.674 213.002 360.851 207.367 365.385 193.329C369.762 179.787 356.079 162.784 356.079 147.779C356.079 132.775 369.77 115.772 365.385 102.23ZM225.787 248.141C170.588 248.141 125.838 203.203 125.838 147.771C125.838 92.3398 170.588 47.4014 225.787 47.4014C280.986 47.4014 325.736 92.3398 325.736 147.771C325.736 203.203 280.986 248.141 225.787 248.141Z" fill="white" stroke="#2D2E2E" stroke-miterlimit="10"/>
<path d="M161.052 244.242C130.224 223.306 109.918 187.877 109.918 147.772C109.918 119.391 120.087 93.3487 136.962 73.131M141.397 68.1159C162.55 45.5269 192.564 31.3984 225.804 31.3984C289.699 31.3984 341.681 83.5993 341.681 147.764C341.681 211.928 289.699 264.129 225.804 264.129C203.91 264.129 183.415 257.999 165.923 247.357M231.588 256.867C288.901 253.835 334.605 206.054 334.605 147.756C334.605 112.534 317.928 81.1537 292.077 61.159M287.642 57.9037C270.068 45.6673 248.759 38.4957 225.804 38.4957C165.808 38.4957 117.002 87.5073 117.002 147.756C117.002 208.004 165.059 256.264 224.421 257.007" stroke="#2D2E2E" stroke-miterlimit="10"/>
<path d="M224.405 59.2324C205.835 59.2324 190.779 74.3523 190.779 93.0002C190.779 99.9653 192.877 106.435 196.481 111.813L186.879 122.876L201.705 117.911C207.686 123.414 215.659 126.776 224.413 126.776C242.983 126.776 258.039 111.656 258.039 93.0085C258.039 74.3606 242.983 59.2407 224.413 59.2407L224.405 59.2324Z" fill="#2D2E2E" stroke="#2D2E2E" stroke-miterlimit="10"/>
<path d="M154.989 122.125C154.989 122.125 145.502 117.143 135.144 123.001C124.785 128.859 129.311 149.82 129.311 149.82C129.311 149.82 119.643 152.993 119.536 164.329C119.454 173.128 125.518 180.448 125.518 180.448C125.518 180.448 116.327 195.981 121.429 207.416C126.538 218.843 143.314 218.843 143.314 218.843C143.314 218.843 142.878 225.287 148.275 228.807C153.672 232.327 164.475 226.758 164.475 226.758L142.006 171.508L170.169 167.7C170.169 167.7 170.021 159.636 166.376 154.654L162.731 149.671L161.999 138.385C161.999 138.385 171.485 139.261 170.465 127.834C169.445 116.408 159.958 118.159 154.997 122.117L154.989 122.125Z" fill="#2D2E2E" stroke="#2D2E2E" stroke-miterlimit="10"/>
<path d="M292.308 187.189L306.171 189.685C306.171 189.685 311.132 177.671 312.004 172.83C312.877 167.988 315.065 169.021 316.53 170.78C317.986 172.54 317.55 183.529 316.966 190.858C316.382 198.186 316.53 200.384 314.193 201.409C311.856 202.433 307.915 200.384 306.311 200.384C304.707 200.384 292.596 200.822 292.596 200.822L292.308 187.189Z" fill="white" stroke="#2D2E2E" stroke-miterlimit="10"/>
<path d="M312.004 172.829C311.667 174.704 310.704 177.67 309.659 180.595L312.728 181.62C312.728 181.62 312.144 193.633 309.372 198.326C308.787 199.317 308.36 200.102 308.047 200.73C309.931 201.267 312.482 202.151 314.185 201.408C316.521 200.383 316.373 198.185 316.957 190.857C317.542 183.528 317.978 172.539 316.521 170.78C315.065 169.02 312.876 167.995 311.996 172.829H312.004Z" fill="#2D2E2E" stroke="#2D2E2E" stroke-miterlimit="10"/>
<path d="M173.328 236.186C173.328 236.186 184.756 245.654 200.808 244.192C216.86 242.729 248.528 203.451 248.528 203.451L293.328 218.695L294.06 187.331L258.311 177.367C258.311 177.367 245.616 147.763 243.427 148.788C241.239 149.812 219.205 171.649 212.343 182.052C205.482 192.454 199.648 202.418 199.648 202.418L195.576 203.864L173.336 236.177L173.328 236.186Z" fill="#0C93F4" stroke="#2D2E2E" stroke-miterlimit="10"/>
<path d="M194.095 219.719C194.095 219.719 190.45 227.047 190.302 234.665" stroke="#2D2E2E" stroke-miterlimit="10"/>
<path d="M191.972 221.297C191.972 221.297 187.176 233.079 187.464 238.21" stroke="#2D2E2E" stroke-miterlimit="10"/>
<path d="M144.878 163.782C144.878 163.782 141.842 160.865 137.695 161.981C133.548 163.096 125.954 171.689 125.954 171.689L109.935 183.339L109.244 198.178L136.181 182.504C136.181 182.504 141.019 200.673 152.069 214.958C163.118 229.244 170.713 234.796 171.404 235.209C172.095 235.622 173.337 236.184 173.337 236.184C173.337 236.184 173.477 237.432 182.042 231.326C190.607 225.22 193.923 213.298 194.614 210.521C195.305 207.745 195.585 203.862 195.585 203.862L184.815 200.813C184.815 200.813 183.572 196.376 182.19 187.222C180.808 178.067 178.874 172.102 173.905 167.525C168.935 162.947 158.708 162.807 158.708 162.807L144.894 163.782H144.878Z" fill="white" stroke="#2D2E2E" stroke-miterlimit="10"/>
<path d="M153.023 126.891C153.023 126.891 153.854 129.667 150.258 135.071C146.671 140.482 142.113 143.812 142.113 143.812C142.113 143.812 142.113 145.473 141.142 145.613C140.171 145.754 139.348 142.565 136.864 142.697C134.379 142.837 133.276 147.555 134.65 150.323C136.033 153.099 141.973 153.099 141.973 153.099L144.877 163.782C144.877 163.782 148.604 167.112 151.509 168.913C154.413 170.714 160.905 175.151 160.905 175.151L158.691 162.807V161.006C158.691 161.006 164.492 155.875 165.183 150.604C165.874 145.332 164.212 137.285 162.007 133.683C159.802 130.08 153.031 126.883 153.031 126.883L153.023 126.891Z" fill="white" stroke="#2D2E2E" stroke-miterlimit="10"/>
<path d="M147.239 141.821C147.239 141.821 149.402 139.541 151.78 141.383" stroke="#2D2E2E" stroke-miterlimit="10"/>
<path d="M156.758 151.578L149.164 149.355C149.164 149.355 149.304 154.214 152.068 154.627C154.833 155.04 156.766 151.578 156.766 151.578H156.758Z" fill="#2D2E2E" stroke="#2D2E2E" stroke-miterlimit="10"/>
<path d="M149.732 152.322C150.143 153.421 150.85 154.454 152.06 154.636C152.751 154.743 153.385 154.603 153.952 154.338C152.718 152.397 150.834 152.223 149.732 152.322Z" fill="white" stroke="#2D2E2E" stroke-miterlimit="10"/>
<path d="M155.647 139.648C155.647 139.648 155.096 142.565 155.927 142.838C156.758 143.119 158.963 144.498 158.14 145.333C157.317 146.167 155.795 146.44 155.795 146.44" stroke="#2D2E2E" stroke-miterlimit="10"/>
<path d="M159.086 140.301C159.086 141.408 158.527 142.308 157.844 142.308C157.161 142.308 156.602 141.408 156.602 140.301C156.602 139.194 157.161 138.293 157.844 138.293C158.527 138.293 159.086 139.194 159.086 140.301Z" fill="#2D2E2E"/>
<path d="M155.927 136.326C155.927 136.326 157.581 134.103 160.205 136.185" stroke="#2D2E2E" stroke-miterlimit="10"/>
<path d="M151.649 136.188L149.436 136.328" stroke="#2D2E2E" stroke-miterlimit="10"/>
<path d="M158.692 161.014C158.692 161.014 157.227 162.394 154.981 161.981C153.451 161.7 150.867 160.395 150.867 160.395" stroke="#2D2E2E" stroke-miterlimit="10"/>
<path d="M184.517 202.211C184.517 202.211 180.93 208.73 173.468 213.026" stroke="#2D2E2E" stroke-miterlimit="10"/>
<path d="M172.497 220.553C171.254 221.47 169.987 222.238 168.77 222.734" stroke="#2D2E2E" stroke-miterlimit="10"/>
<path d="M182.996 209.695C182.996 209.695 179.08 214.967 174.48 218.949" stroke="#2D2E2E" stroke-miterlimit="10"/>
<path d="M168.91 158.239C168.91 158.239 166.697 157.826 166.146 158.52C165.594 159.214 165.175 163.511 165.175 164.758C165.175 166.006 165.866 166.146 166.697 165.171C167.528 164.196 168.63 162.676 168.63 162.676L170.564 161.015L168.91 158.239Z" fill="white" stroke="#2D2E2E" stroke-miterlimit="10"/>
<path d="M169.716 170.17C169.716 170.17 169.411 173.095 170.481 173.706C171.551 174.318 175.533 174.632 176.15 173.863C176.759 173.095 175.845 171.401 175.845 171.401L169.716 170.17Z" fill="#2D2E2E" stroke="#2D2E2E" stroke-miterlimit="10"/>
<path d="M170.005 158.025C168.828 157.877 167.75 158.695 167.586 159.876C167.471 160.677 167.405 161.462 167.528 161.702C167.808 162.256 168.631 162.677 168.631 162.677C168.631 162.677 167.528 167.535 168.219 169.196C168.911 170.857 170.704 171.551 172.366 171.691C174.02 171.831 176.784 171.831 176.784 171.831C176.784 171.831 179.549 179.598 182.173 191.801C183.35 197.296 188.945 198.874 191.01 199.295C193.083 199.708 196.399 193.33 195.288 188.48C194.186 183.622 184.378 174.608 181.614 167.948C179.59 163.073 175.122 159.075 172.778 158.513C171.815 158.281 170.828 158.124 170.005 158.017V158.025Z" fill="white" stroke="#2D2E2E" stroke-miterlimit="10"/>
<path d="M195.287 188.479C194.95 187.017 193.823 185.166 192.342 183.125C191.7 184.844 190.392 187.05 187.693 188.479C185.431 189.677 183.341 189.925 181.736 189.842C181.884 190.487 182.024 191.139 182.172 191.809C183.349 197.303 188.944 198.881 191.009 199.302C193.082 199.716 196.398 193.337 195.287 188.487V188.479Z" stroke="#2D2E2E" stroke-miterlimit="10"/>
<path d="M119.322 136.601L120.565 140.072C120.565 140.072 122.984 138.394 124.646 138.122C126.299 137.841 128.768 138.774 128.71 140.03C128.669 140.89 124.07 140.989 122.58 142.492C121.626 143.459 121.396 143.823 120.976 144.517C120.565 145.211 120.005 146.871 118.763 148.119C117.52 149.367 114.756 150.755 114.756 150.755C114.756 150.755 112.822 166.015 113.925 174.476C115.027 182.936 114.896 188.901 112.131 194.032C109.367 199.163 106.191 202.212 103.566 200.27C100.942 198.329 98.1774 191.529 98.4571 186.258C98.7368 180.986 105.64 160.463 106.191 157.406C106.742 154.349 107.433 147.417 107.433 147.417L107.154 140.898C107.154 140.898 106.742 139.237 109.087 138.262C111.432 137.287 118.755 134.379 118.755 134.379L119.306 136.601H119.322Z" fill="white" stroke="#2D2E2E" stroke-miterlimit="10"/>
<path d="M113.382 144.648C113.382 144.648 114.764 147.284 113.793 148.672C112.016 151.225 110.206 150.201 110.206 150.201" stroke="#2D2E2E" stroke-miterlimit="10"/>
<path d="M120.565 140.07L117.192 140.888C117.192 140.888 115.234 141.871 114.625 143.54" stroke="#2D2E2E" stroke-miterlimit="10"/>
<path d="M99.8724 179.367C99.099 182.333 98.5477 184.845 98.4737 186.258C98.194 191.529 100.958 198.321 103.583 200.271C106.208 202.212 109.383 199.164 112.148 194.033C114.065 190.472 114.715 186.506 114.567 181.59C107.368 183.176 102.472 181.102 99.8724 179.384V179.367Z" fill="white" stroke="#2D2E2E" stroke-miterlimit="10"/>
<path d="M116.097 132.99C116.097 132.99 116.442 138.997 117.718 139.311C118.993 139.624 120.104 138.889 120.449 138.41C120.795 137.931 120.186 132.255 119.338 131.8C118.499 131.346 116.426 131.172 116.097 132.998V132.99Z" fill="white" stroke="#2D2E2E" stroke-miterlimit="10"/>
<path d="M112.477 135.691C112.477 135.691 113.201 141.508 114.459 141.706C115.718 141.913 116.755 141.111 117.051 140.615C117.347 140.12 116.393 134.65 115.554 134.27C114.714 133.89 112.682 133.882 112.477 135.683V135.691Z" fill="white" stroke="#2D2E2E" stroke-miterlimit="10"/>
<path d="M109.037 137.749C109.037 137.749 110.148 142.814 111.275 142.872C112.402 142.93 113.25 142.12 113.48 141.657C113.71 141.195 112.419 136.452 111.637 136.204C110.855 135.948 109.07 136.147 109.037 137.749Z" fill="white" stroke="#2D2E2E" stroke-miterlimit="10"/>
<path d="M106.767 139.798C106.767 139.798 107.688 144.02 108.635 144.07C109.581 144.119 110.28 143.45 110.469 143.053C110.659 142.665 109.581 138.716 108.931 138.501C108.281 138.294 106.792 138.451 106.759 139.79L106.767 139.798Z" fill="white" stroke="#2D2E2E" stroke-miterlimit="10"/>
<path d="M166.154 143.499C161.975 143.499 158.585 146.903 158.585 151.1C158.585 154.934 161.415 158.099 165.101 158.619V158.669C174.3 158.9 190.993 167.336 190.993 167.336V134.832C173.049 143.045 166.154 143.507 166.154 143.507V143.499Z" fill="white" stroke="#2D2E2E" stroke-miterlimit="10"/>
<path d="M166.154 143.499C161.975 143.499 158.585 146.903 158.585 151.1C158.585 154.934 161.415 158.099 165.101 158.619V158.669C174.3 158.9 190.993 167.336 190.993 167.336V134.832C173.049 143.045 166.154 143.507 166.154 143.507V143.499Z" fill="white" stroke="#2D2E2E" stroke-miterlimit="10"/>
<path d="M168.91 159.114C166.392 157.412 164.739 154.537 164.739 151.257C164.739 147.473 166.952 144.226 170.136 142.697C167.38 143.408 166.146 143.49 166.146 143.49C161.966 143.49 158.576 146.894 158.576 151.092C158.576 154.925 161.406 158.09 165.092 158.61V158.66C166.261 158.693 167.544 158.85 168.91 159.114Z" fill="#0C93F4" stroke="#2D2E2E" stroke-miterlimit="10"/>
<path d="M193.428 170.714C204.22 170.714 212.969 161.929 212.969 151.092C212.969 140.254 204.22 131.469 193.428 131.469C182.636 131.469 173.888 140.254 173.888 151.092C173.888 161.929 182.636 170.714 193.428 170.714Z" fill="#0C93F4" stroke="#2D2E2E" stroke-miterlimit="10"/>
<path d="M193.428 167.493C202.448 167.493 209.76 160.15 209.76 151.092C209.76 142.034 202.448 134.691 193.428 134.691C184.409 134.691 177.097 142.034 177.097 151.092C177.097 160.15 184.409 167.493 193.428 167.493Z" fill="#F5F9FE" stroke="#2D2E2E" stroke-miterlimit="10"/>
<path d="M189.299 151.091C189.299 148.802 191.142 146.951 193.421 146.951L191.61 146.158C190.796 145.704 189.858 145.439 188.862 145.439C185.752 145.439 183.227 147.976 183.227 151.099C183.227 154.222 185.752 156.759 188.862 156.759C189.981 156.759 191.018 156.428 191.898 155.858L193.421 155.238C191.142 155.238 189.299 153.388 189.299 151.099V151.091Z" fill="#0C93F4" stroke="#2D2E2E" stroke-miterlimit="10"/>
<path d="M197.551 151.091C197.551 153.379 195.708 155.23 193.429 155.23C191.15 155.23 189.307 153.379 189.307 151.091C189.307 148.802 191.15 146.951 193.429 146.951C195.708 146.951 197.551 148.802 197.551 151.091Z" fill="#0C93F4" stroke="#2D2E2E" stroke-miterlimit="10"/>
<path d="M276.979 199.055L284.565 211.068C284.565 211.068 293.904 210.333 297.557 209.746C301.201 209.16 306.459 205.351 306.607 208.135C306.755 210.919 304.27 214.58 301.21 216.926C298.149 219.273 294.932 219.562 291.871 222.644C288.811 225.717 285.742 228.361 282.533 227.923C279.324 227.485 276.404 217.661 273.631 213.125C270.858 208.581 266.333 204.037 266.333 204.037L276.988 199.055H276.979Z" fill="white" stroke="#2D2E2E" stroke-miterlimit="10"/>
<path d="M301.21 216.935C304.271 214.589 306.755 210.929 306.607 208.144C306.459 205.36 301.21 209.169 297.557 209.755C296.644 209.904 295.385 210.061 293.994 210.21L295.656 214.448C295.656 214.448 288.21 218.406 284.566 219.579C282.525 220.232 279.851 221.256 277.885 222.025C279.366 225.123 280.904 227.709 282.517 227.932C285.726 228.37 288.795 225.734 291.855 222.653C294.916 219.579 298.133 219.282 301.193 216.935H301.21Z" fill="#2D2E2E" stroke="#2D2E2E" stroke-miterlimit="10"/>
<path d="M241.931 172.633C241.931 172.633 217.396 186.761 202.117 211.061" stroke="#2D2E2E" stroke-miterlimit="10"/>
<path d="M200.916 204.518L203.664 207.789" stroke="#2D2E2E" stroke-miterlimit="10"/>
<path d="M239.182 162.121L246.192 221.477L278.444 200.665C278.444 200.665 258.435 156.709 254.222 150.695C250.429 145.275 244.588 145.275 237.586 154.503" fill="#0C93F4"/>
<path d="M239.182 162.121L246.192 221.477L278.444 200.665C278.444 200.665 258.435 156.709 254.222 150.695C250.429 145.275 244.588 145.275 237.586 154.503" stroke="#2D2E2E" stroke-miterlimit="10"/>
<path d="M248.685 190.469C248.076 192.815 247.459 194.897 246.875 196.517" stroke="#2D2E2E" stroke-miterlimit="10"/>
<path d="M254.741 160.832C254.741 160.832 252.305 175.316 249.623 186.685" stroke="#2D2E2E" stroke-miterlimit="10"/>
<path d="M250.956 166.682C250.956 166.682 248.331 177.216 246.587 181.017" stroke="#2D2E2E" stroke-miterlimit="10"/>
<path d="M136.172 182.513L141.66 179.936" stroke="#2D2E2E" stroke-miterlimit="10"/>
<path d="M161.826 201.549C162.986 201.549 164.237 201.442 165.578 201.186" stroke="#2D2E2E" stroke-miterlimit="10"/>
<path d="M150.735 196.766C150.735 196.766 153.459 200.261 158.897 201.269" stroke="#2D2E2E" stroke-miterlimit="10"/>
<path d="M206.485 112.779L208.089 99.4524H205.563L205.662 94.7182H208.772L209.455 89.2486H205.712L205.81 84.4151H210.237L211.594 73.2363H216.745L215.387 84.4151H219.279L220.636 73.2363H225.738L224.38 84.4151H226.807L226.708 89.2486H223.549L222.915 94.7182H226.61L226.462 99.4524H222.233L220.579 112.779H215.478L217.131 99.4524H213.24L211.586 112.779H206.485ZM213.824 94.7182H217.814L218.497 89.2486H214.556L213.824 94.7182Z" fill="white"/>
<path d="M235.75 112.778V81.0431C235.462 81.2083 235.059 81.3736 234.557 81.5554C234.055 81.7371 233.512 81.9272 232.928 82.142C232.344 82.3568 231.793 82.5468 231.274 82.7286C230.756 82.9104 230.353 83.0591 230.057 83.1913V77.6225C230.443 77.4242 230.97 77.1681 231.636 76.8376C232.303 76.5154 233.002 76.1518 233.751 75.7635C234.5 75.3752 235.199 74.9538 235.865 74.4911C236.532 74.0367 237.042 73.6153 237.396 73.2188H243.229V112.77H235.742L235.75 112.778Z" fill="white"/>
<path d="M356.154 48.6562C355.8 49.2263 355.43 49.813 355.043 50.3913" stroke="#2D2E2E" stroke-linecap="round" stroke-linejoin="round"/>
<path d="M352.723 53.8359C339.296 72.9299 313.618 97.0391 265.815 109.895C178.907 133.269 38.643 92.2305 54.8596 46.3916C64.3954 19.4567 114.123 30.5033 128.628 34.3617" stroke="#2D2E2E" stroke-linecap="round" stroke-linejoin="round"/>
<path d="M130.636 34.9141C131.903 35.2693 132.61 35.4924 132.61 35.4924" stroke="#2D2E2E" stroke-linecap="round" stroke-linejoin="round"/>
<path d="M356.08 147.769C356.08 147.769 356.705 148.141 357.816 148.86" stroke="#2D2E2E" stroke-linecap="round" stroke-linejoin="round"/>
<path d="M361.214 151.156C376.048 161.558 417.466 195.194 410.184 242.239C393.244 351.639 120.762 246.337 29.8721 364.826" stroke="#2D2E2E" stroke-linecap="round" stroke-linejoin="round"/>
<path d="M28.6216 366.47C28.2102 367.024 27.807 367.578 27.4121 368.139" stroke="#2D2E2E" stroke-linecap="round" stroke-linejoin="round"/>
<path d="M375.875 8.83203L345.564 29.8429L357.248 35.5521L375.875 8.83203Z" fill="white" stroke="#2D2E2E" stroke-miterlimit="10" stroke-linejoin="round"/>
<path d="M361.921 37.7251L375.603 44.1862L375.875 8.83203L361.921 37.7251Z" fill="white" stroke="#2D2E2E" stroke-miterlimit="10" stroke-linejoin="round"/>
<path d="M357.248 35.5521L359.379 43.8557L375.875 8.83203L357.248 35.5521Z" fill="#F5F9FE" stroke="#2D2E2E" stroke-miterlimit="10" stroke-linejoin="round"/>
</g>
<defs>
<clipPath id="clip0_1_2661">
<rect width="444" height="400" fill="white"/>
</clipPath>
</defs>
</svg>
