<svg width="444" height="400" viewBox="0 0 444 400" fill="none" xmlns="http://www.w3.org/2000/svg">
<g clip-path="url(#clip0_1_2642)">
<path d="M320.773 98.7155C317.926 93.0389 314.941 87.4479 311.545 82.1228C272.363 20.6312 167.438 -12.8458 115.443 50.7124C103.051 65.856 98.729 84.1637 90.3933 101.537C71.4238 141.051 35.9801 164.666 13.7603 201.256C-3.46841 229.614 -1.17011 265.963 8.44333 296.628C18.8886 329.942 37.2665 353.214 66.6642 370.896C99.6209 390.721 134.867 385.216 170.491 378.322C186.511 375.218 203.027 372.054 219.407 373.237C239.912 374.72 260.159 380.697 280.509 383.596C301.666 386.614 323.628 387.326 344.013 380.749C409.292 359.671 424.754 260.921 397.912 204.351C388.41 184.329 372.305 168.877 357.348 153.201C341.209 136.283 331.312 119.724 320.781 98.7155H320.773Z" fill="#F5F9FE"/>
<path d="M405 379H420" stroke="#2D2E2E" stroke-linecap="round" stroke-linejoin="round"/>
<path d="M8 379H398" stroke="#2D2E2E" stroke-linecap="round" stroke-linejoin="round"/>
<path d="M403.652 225.762C403.652 225.762 394.982 250.424 382.778 292.158C370.583 333.893 372.204 359.91 372.204 359.91" stroke="#2D2E2E" stroke-width="3" stroke-linecap="round" stroke-linejoin="round"/>
<path d="M370.043 204.891C370.043 204.891 361.913 247.714 366.518 272.642C371.123 297.578 359.94 349.912 359.94 349.912" stroke="#2D2E2E" stroke-width="3" stroke-linecap="round" stroke-linejoin="round"/>
<path d="M347.008 237.955C347.008 237.955 347.548 265.867 353.783 289.448C360.017 313.03 365.437 345.006 363.267 359.103" stroke="#2D2E2E" stroke-width="3" stroke-linecap="round" stroke-linejoin="round"/>
<path d="M405.315 212.412C405.315 212.412 405.495 205.226 400.787 196.609C396.079 187.982 390.47 185.109 390.47 185.109C390.47 185.109 397.528 191.035 399.158 196.248C400.787 201.453 403.505 211.16 403.505 211.16C403.505 211.16 400.427 200.742 393.729 195.348C387.031 189.963 382.503 188.162 382.503 188.162C382.503 188.162 390.65 194.268 395.539 199.841C400.427 205.415 401.147 211.881 401.147 211.881C401.147 211.881 394.81 201.642 387.932 198.589C381.054 195.537 377.615 194.636 377.615 194.636C377.615 194.636 385.402 198.049 390.102 202.182C394.81 206.315 398.068 212.961 398.068 212.961C398.068 212.961 391.011 207.036 383.764 205.235C376.526 203.443 373.808 203.443 373.808 203.443C373.808 203.443 379.965 204.883 387.383 208.828C394.801 212.781 396.799 216.374 396.799 216.374C396.799 216.374 391.911 213.501 387.023 213.861C382.135 214.222 371.998 218.175 371.998 218.175C371.998 218.175 381.045 215.122 387.023 215.302C393 215.482 397.159 220.687 397.159 220.687C397.159 220.687 392.271 216.374 383.944 220.687C375.617 225 373.087 230.566 373.087 230.566C373.087 230.566 378.516 225 385.393 223.02C392.271 221.047 395.71 223.38 395.71 223.38C395.71 223.38 388.652 225.532 385.393 230.386C382.135 235.239 380.865 245.118 380.865 245.118C380.865 245.118 382.855 234.159 387.023 230.926C391.182 227.693 397.7 226.433 397.7 226.433C397.7 226.433 393.72 227.873 389.373 233.258C385.025 238.643 385.213 251.943 385.213 251.943C385.213 251.943 386.302 240.984 389.192 236.671C392.091 232.358 397.52 229.665 397.52 229.665C397.52 229.665 395.17 228.045 393.72 239.184C392.271 250.323 393.901 258.409 393.901 258.409C393.901 258.409 394.441 244.037 395.89 239.544C397.339 235.05 399.329 231.277 399.329 231.277C399.329 231.277 397.52 246.009 398.24 250.854C398.96 255.708 400.229 260.373 400.229 260.373C400.229 260.373 399.509 251.214 400.41 244.569C401.319 237.923 402.219 232.709 402.219 232.709L403.848 244.929L403.668 260.381L405.838 245.829L404.389 232.898C404.389 232.898 407.287 236.491 408.737 243.317C410.186 250.143 410.186 257.148 410.186 257.148C410.186 257.148 411.455 245.649 410.546 240.624C409.637 235.591 408.557 231.286 408.557 231.286C408.557 231.286 412.904 231.286 415.074 241.885C417.244 252.483 417.064 257.337 417.064 257.337C417.064 257.337 419.782 249.971 416.523 240.453C413.265 230.934 411.995 228.954 411.995 228.954C411.995 228.954 416.884 229.494 421.223 236.32C425.571 243.145 425.931 249.611 425.931 249.611C425.931 249.611 425.751 239.912 422.492 234.159C419.233 228.413 412.356 226.973 412.356 226.973C412.356 226.973 419.774 224.46 426.111 230.926C432.449 237.391 435.159 244.757 435.159 244.757C435.159 244.757 430.999 232.366 426.291 227.873C421.583 223.38 415.066 223.92 415.066 223.92C415.066 223.92 422.123 221.948 428.101 222.84C434.078 223.74 439.687 230.386 439.687 230.386C439.687 230.386 437.157 222.84 429.01 221.227C420.863 219.607 416.335 222.488 416.335 222.488C416.335 222.488 423.753 215.482 430.819 216.383C437.877 217.283 441.865 220.516 441.865 220.516C441.865 220.516 434.807 214.23 429.379 214.41C423.95 214.59 416.343 219.624 416.343 219.624C416.343 219.624 417.432 213.338 425.94 209.745C434.447 206.153 438.246 206.873 438.246 206.873C438.246 206.873 427.02 207.233 420.691 211.006C414.354 214.779 413.273 216.931 413.273 216.931C413.273 216.931 418.882 205.972 424.13 201.479C429.379 196.986 434.267 195.914 434.267 195.914C434.267 195.914 424.85 197.706 420.151 202.38C415.443 207.053 412.913 212.978 412.913 212.978C412.913 212.978 413.273 206.333 415.632 201.299C417.981 196.266 423.598 191.961 423.598 191.961C423.598 191.961 417.621 193.933 414.182 200.587C410.743 207.242 408.934 212.267 408.934 212.267C408.934 212.267 407.845 205.981 411.284 197.174C414.723 188.376 415.992 185.135 415.992 185.135C415.992 185.135 409.294 193.762 407.845 200.587C406.395 207.413 405.315 212.447 405.315 212.447V212.412Z" fill="#3246A8"/>
<path d="M373.85 189.584C373.85 189.584 374.03 182.398 369.322 173.78C364.614 165.162 359.005 162.281 359.005 162.281C359.005 162.281 366.063 168.207 367.693 173.42C369.322 178.634 372.041 188.332 372.041 188.332C372.041 188.332 368.962 177.914 362.264 172.528C355.567 167.143 351.039 165.343 351.039 165.343C351.039 165.343 359.186 171.448 364.074 177.022C368.962 182.587 369.682 189.061 369.682 189.061C369.682 189.061 363.345 178.823 356.467 175.77C349.589 172.717 346.15 171.817 346.15 171.817C346.15 171.817 353.937 175.23 358.637 179.363C363.345 183.496 366.604 190.142 366.604 190.142C366.604 190.142 359.546 184.216 352.299 182.415C345.061 180.623 342.343 180.623 342.343 180.623C342.343 180.623 348.5 182.064 355.918 186.008C363.336 189.961 365.334 193.554 365.334 193.554C365.334 193.554 360.446 190.682 355.558 191.042C350.67 191.402 340.533 195.355 340.533 195.355C340.533 195.355 349.581 192.302 355.558 192.483C361.535 192.663 365.694 197.868 365.694 197.868C365.694 197.868 360.806 193.554 352.479 197.868C344.152 202.181 341.622 207.746 341.622 207.746C341.622 207.746 347.051 202.181 353.929 200.2C360.806 198.228 364.245 200.56 364.245 200.56C364.245 200.56 357.187 202.713 353.929 207.566C350.67 212.42 349.401 222.298 349.401 222.298C349.401 222.298 351.39 211.339 355.558 208.106C359.717 204.873 366.235 203.613 366.235 203.613C366.235 203.613 362.256 205.054 357.908 210.439C353.56 215.824 353.748 229.124 353.748 229.124C353.748 229.124 354.838 218.165 357.728 213.852C360.626 209.538 366.055 206.846 366.055 206.846C366.055 206.846 363.705 205.225 362.256 216.364C360.806 227.503 362.436 235.589 362.436 235.589C362.436 235.589 362.976 221.218 364.425 216.724C365.875 212.231 367.864 208.458 367.864 208.458C367.864 208.458 366.055 223.19 366.775 228.035C367.495 232.888 368.765 237.553 368.765 237.553C368.765 237.553 368.044 228.395 368.945 221.749C369.854 215.104 370.754 209.89 370.754 209.89L372.384 222.109L372.204 237.562L374.373 223.01L372.924 210.079C372.924 210.079 375.822 213.671 377.272 220.497C378.721 227.323 378.721 234.329 378.721 234.329C378.721 234.329 379.99 222.83 379.081 217.805C378.172 212.771 377.092 208.466 377.092 208.466C377.092 208.466 381.44 208.466 383.609 219.065C385.779 229.664 385.599 234.517 385.599 234.517C385.599 234.517 388.317 227.151 385.059 217.633C381.8 208.115 380.531 206.134 380.531 206.134C380.531 206.134 385.419 206.674 389.758 213.5C394.106 220.326 394.466 226.791 394.466 226.791C394.466 226.791 394.286 217.093 391.027 211.339C387.769 205.594 380.891 204.153 380.891 204.153C380.891 204.153 388.309 201.641 394.646 208.106C400.984 214.572 403.694 221.938 403.694 221.938C403.694 221.938 399.534 209.547 394.826 205.054C390.118 200.56 383.601 201.1 383.601 201.1C383.601 201.1 390.659 199.128 396.636 200.02C402.613 200.92 408.222 207.566 408.222 207.566C408.222 207.566 405.683 200.02 397.545 198.408C389.398 196.787 384.87 199.668 384.87 199.668C384.87 199.668 392.288 192.663 399.354 193.563C406.412 194.463 410.4 197.696 410.4 197.696C410.4 197.696 403.342 191.411 397.914 191.591C392.485 191.771 384.879 196.804 384.879 196.804C384.879 196.804 385.968 190.519 394.475 186.926C402.982 183.333 406.781 184.053 406.781 184.053C406.781 184.053 395.555 184.413 389.226 188.186C382.897 191.959 381.808 194.112 381.808 194.112C381.808 194.112 387.417 183.153 392.665 178.66C397.914 174.166 402.802 173.094 402.802 173.094C402.802 173.094 393.386 174.887 388.686 179.56C383.978 184.233 381.448 190.159 381.448 190.159C381.448 190.159 381.808 183.513 384.167 178.48C386.516 173.446 392.134 169.141 392.134 169.141C392.134 169.141 386.156 171.114 382.717 177.768C379.279 184.413 377.469 189.447 377.469 189.447C377.469 189.447 376.38 183.161 379.819 174.355C383.258 165.548 384.527 162.316 384.527 162.316C384.527 162.316 377.829 170.942 376.38 177.768C374.931 184.594 373.85 189.627 373.85 189.627V189.584Z" fill="#3246A8"/>
<path d="M347.317 226.233C347.317 226.233 347.497 219.047 342.789 210.429C338.081 201.802 332.472 198.93 332.472 198.93C332.472 198.93 339.53 204.855 341.159 210.069C342.789 215.282 345.507 224.981 345.507 224.981C345.507 224.981 342.429 214.562 335.731 209.177C329.033 203.792 324.505 201.991 324.505 201.991C324.505 201.991 332.652 208.096 337.54 213.67C342.429 219.235 343.149 225.71 343.149 225.71C343.149 225.71 336.812 215.471 329.934 212.418C323.056 209.366 319.617 208.465 319.617 208.465C319.617 208.465 327.404 211.878 332.103 216.011C336.812 220.144 340.07 226.79 340.07 226.79C340.07 226.79 333.012 220.865 325.766 219.064C318.528 217.263 315.809 217.263 315.809 217.263C315.809 217.263 321.967 218.704 329.385 222.648C336.803 226.601 338.801 230.194 338.801 230.194C338.801 230.194 333.913 227.322 329.025 227.682C324.137 228.042 314 231.995 314 231.995C314 231.995 323.047 228.942 329.025 229.122C335.002 229.302 339.161 234.508 339.161 234.508C339.161 234.508 334.273 230.194 325.946 234.508C317.619 238.821 315.089 244.386 315.089 244.386C315.089 244.386 320.518 238.821 327.395 236.84C334.273 234.868 337.712 237.2 337.712 237.2C337.712 237.2 330.654 239.352 327.395 244.206C324.137 249.059 322.867 258.938 322.867 258.938C322.867 258.938 324.857 247.979 329.025 244.746C333.184 241.513 339.702 240.253 339.702 240.253C339.702 240.253 335.722 241.693 331.375 247.079C327.027 252.464 327.215 265.764 327.215 265.764C327.215 265.764 328.304 254.805 331.194 250.491C334.093 246.178 339.521 243.486 339.521 243.486C339.521 243.486 337.172 241.865 335.722 253.004C334.273 264.143 335.903 272.229 335.903 272.229C335.903 272.229 336.443 257.857 337.892 253.364C339.341 248.871 341.331 245.098 341.331 245.098C341.331 245.098 339.521 259.83 340.242 264.675C340.962 269.528 342.231 274.193 342.231 274.193C342.231 274.193 341.511 265.035 342.412 258.389C343.321 251.743 344.221 246.53 344.221 246.53L345.85 258.749L345.67 274.201L347.84 259.65L346.391 246.718C346.391 246.718 349.289 250.311 350.739 257.137C352.188 263.963 352.188 270.969 352.188 270.969C352.188 270.969 353.457 259.469 352.548 254.445C351.639 249.411 350.558 245.106 350.558 245.106C350.558 245.106 354.906 245.106 357.076 255.705C359.246 266.304 359.066 271.157 359.066 271.157C359.066 271.157 361.784 263.791 358.525 254.273C355.267 244.755 353.997 242.774 353.997 242.774C353.997 242.774 358.886 243.314 363.233 250.14C367.581 256.966 367.942 263.431 367.942 263.431C367.942 263.431 367.761 253.733 364.503 247.979C361.244 242.234 354.366 240.793 354.366 240.793C354.366 240.793 361.784 238.281 368.122 244.746C374.459 251.212 377.169 258.578 377.169 258.578C377.169 258.578 373.01 246.187 368.302 241.693C363.594 237.2 357.076 237.74 357.076 237.74C357.076 237.74 364.134 235.768 370.111 236.66C376.089 237.56 381.697 244.206 381.697 244.206C381.697 244.206 379.159 236.66 371.02 235.048C362.873 233.427 358.345 236.308 358.345 236.308C358.345 236.308 365.763 229.302 372.83 230.203C379.888 231.103 383.875 234.336 383.875 234.336C383.875 234.336 376.817 228.051 371.389 228.231C365.961 228.411 358.354 233.444 358.354 233.444C358.354 233.444 359.443 227.159 367.95 223.566C376.457 219.973 380.256 220.693 380.256 220.693C380.256 220.693 369.031 221.053 362.702 224.826C356.364 228.599 355.284 230.752 355.284 230.752C355.284 230.752 360.892 219.793 366.141 215.299C371.389 210.806 376.277 209.734 376.277 209.734C376.277 209.734 366.861 211.526 362.161 216.2C357.453 220.873 354.924 226.799 354.924 226.799C354.924 226.799 355.284 220.153 357.642 215.119C359.992 210.086 365.609 205.781 365.609 205.781C365.609 205.781 359.632 207.753 356.193 214.408C352.754 221.053 350.944 226.087 350.944 226.087C350.944 226.087 349.855 219.801 353.294 210.995C356.733 202.188 358.002 198.955 358.002 198.955C358.002 198.955 351.305 207.582 349.855 214.408C348.406 221.233 347.325 226.267 347.325 226.267L347.317 226.233Z" fill="#3246A8"/>
<path d="M383.824 348.848H349.461V381.922H383.824V348.848Z" fill="white" stroke="#2D2E2E" stroke-linecap="round" stroke-linejoin="round"/>
<path opacity="0.3" d="M236.088 248.762C231.037 254.627 223.55 258.348 215.197 258.348C199.975 258.348 187.643 246.009 187.643 230.797C187.643 215.585 199.984 203.245 215.197 203.245C230.411 203.245 242.751 215.585 242.751 230.797C242.751 234.227 242.125 237.52 240.976 240.547M263.213 235.033V226.544L255.598 225.746C255.126 221.965 254.148 218.346 252.716 214.959L258.908 210.465L254.663 203.108L247.665 206.229C245.41 203.254 242.751 200.596 239.767 198.332L242.88 191.334L235.522 187.09L231.028 193.281C227.641 191.849 224.022 190.863 220.24 190.4L219.442 182.785H210.952L210.155 190.4C206.373 190.871 202.754 191.849 199.366 193.281L194.873 187.09L187.515 191.334L190.628 198.332C187.652 200.587 184.994 203.245 182.73 206.229L175.732 203.108L171.487 210.465L177.678 214.959C176.246 218.346 175.26 221.965 174.797 225.746L167.182 226.544V235.033L174.797 235.83C175.269 239.612 176.246 243.231 177.678 246.618L171.487 251.111L175.732 258.468L182.73 255.347C184.985 258.323 187.643 260.981 190.628 263.245L187.515 270.242L194.873 274.487L199.366 268.295C202.754 269.728 206.373 270.714 210.155 271.177L210.952 278.791H219.442L220.24 271.177C224.022 270.705 227.641 269.728 231.028 268.295L235.522 274.487L242.88 270.242L239.767 263.245C242.743 260.99 245.401 258.331 247.665 255.347L254.663 258.468L258.908 251.111L252.716 246.618C254.148 243.231 255.135 239.612 255.598 235.83L263.213 235.033Z" stroke="#2D2E2E" stroke-linecap="round" stroke-linejoin="round"/>
<path opacity="0.3" d="M51.5188 36.0491C51.5188 25.2531 60.2746 16.498 71.0715 16.498C81.8684 16.498 90.6243 25.2531 90.6243 36.0491C90.6243 46.8451 81.8684 55.6002 71.0715 55.6002C63.036 55.6002 56.124 50.7467 53.1224 43.8095M105.134 39.059V33.0307L99.7317 32.4647C99.3973 29.7808 98.7026 27.2082 97.6821 24.8072L102.073 21.6173L99.0628 16.4037L94.0974 18.6161C92.4938 16.5066 90.6071 14.6201 88.4975 13.0165L90.71 8.0516L85.496 5.04176L82.3058 9.43218C79.9046 8.42033 77.3318 7.71717 74.6476 7.38275L74.0816 1.98047H68.0528L67.4868 7.38275C64.8026 7.71717 62.2299 8.41175 59.8287 9.43218L56.6385 5.04176L51.4244 8.0516L53.637 13.0165C51.5273 14.6201 49.6407 16.5066 48.037 18.6161L43.0716 16.4037L40.0615 21.6173L44.4523 24.8072C43.4404 27.2082 42.7372 29.7808 42.4027 32.4647L37 33.0307V39.059L42.4027 39.6249C42.7372 42.3089 43.4318 44.8814 44.4523 47.2824L40.0615 50.4723L43.0716 55.686L48.037 53.4736C49.6407 55.5831 51.5273 57.4696 53.637 59.0731L51.4244 64.0381L56.6385 67.0479L59.8287 62.6575C62.2299 63.6693 64.8026 64.3725 67.4868 64.7069L68.0528 70.1092H74.0816L74.6476 64.7069C77.3318 64.3725 79.9046 63.6779 82.3058 62.6575L85.496 67.0479L90.71 64.0381L88.4975 59.0731C90.6071 57.4696 92.4938 55.5831 94.0974 53.4736L99.0628 55.686L102.073 50.4723L97.6821 47.2824C98.6941 44.8814 99.3973 42.3089 99.7317 39.6249L105.134 39.059Z" stroke="#2D2E2E" stroke-linecap="round" stroke-linejoin="round"/>
<path d="M71.1923 79.0078H31.9239C28.9138 79.0078 26.4697 81.4517 26.4697 84.4615V109.724C26.4697 112.733 28.9138 115.177 31.9239 115.177H54.3152C56.3906 117.664 61.7504 124.155 62.0592 125.099C62.3507 125.965 62.6337 118.873 62.7709 115.177H71.1923C74.2024 115.177 76.6465 112.733 76.6465 109.724V84.4615C76.6465 81.4517 74.2024 79.0078 71.1923 79.0078Z" fill="#2D2E2E" stroke="#2D2E2E" stroke-miterlimit="10"/>
<path d="M69.7226 77.457H30.4542C27.4441 77.457 25 79.9009 25 82.9108V108.173C25 111.183 27.4441 113.627 30.4542 113.627H52.8455C54.9209 116.113 60.2807 122.605 60.5894 123.548C60.881 124.414 61.164 117.322 61.3012 113.627H69.7226C72.7327 113.627 75.1768 111.183 75.1768 108.173V82.9108C75.1768 79.9009 72.7327 77.457 69.7226 77.457Z" fill="white" stroke="#2D2E2E" stroke-linecap="round" stroke-linejoin="round"/>
<path d="M48.7348 105C48.7348 105 48.7073 105 48.6936 105C48 104.987 47.3545 104.634 46.9836 104.061L42.3139 96.8128C41.7096 95.8809 42.0049 94.6428 42.9663 94.0637C43.9277 93.478 45.205 93.7642 45.8025 94.6961L48.7966 99.3422L58.2321 85.8765C58.8708 84.9646 60.1549 84.725 61.0957 85.344C62.0365 85.963 62.2838 87.2078 61.6451 88.1197L50.431 104.121C50.0464 104.667 49.4078 104.993 48.7279 104.993L48.7348 105Z" fill="#0C93F4" stroke="#2D2E2E" stroke-linecap="round" stroke-linejoin="round"/>
<path d="M187.558 299.244C183.527 299.244 180.26 302.768 180.26 307.125C180.26 311.481 183.527 315.005 187.558 315.005C191.588 315.005 194.856 311.481 194.856 307.125C194.856 302.768 191.588 299.244 187.558 299.244ZM187.558 311.669C185.234 311.669 183.356 309.637 183.356 307.125C183.356 304.612 185.242 302.58 187.558 302.58C189.873 302.58 191.76 304.612 191.76 307.125C191.76 309.637 189.873 311.669 187.558 311.669Z" fill="white" stroke="#2D2E2E" stroke-linecap="round" stroke-linejoin="round"/>
<path d="M209.615 296.062H189.582V321.102H209.615V296.062Z" fill="white" stroke="#2D2E2E" stroke-linecap="round" stroke-linejoin="round"/>
<path d="M323.097 276.578H254.242L241.688 317.713H310.534L323.097 276.578Z" fill="#0C93F4" stroke="#2D2E2E" stroke-linecap="round" stroke-linejoin="round"/>
<path d="M317.951 279.176H257.8L246.832 315.114H306.982L317.951 279.176Z" fill="white" stroke="#2D2E2E" stroke-linecap="round" stroke-linejoin="round"/>
<path d="M310.533 317.943H213.164V321.099H310.533V317.943Z" fill="#0C93F4" stroke="#2D2E2E" stroke-linecap="round" stroke-linejoin="round"/>
<path d="M310.534 317.943H268.967V321.099H310.534V317.943Z" fill="#2D2E2E" stroke="#2D2E2E" stroke-linecap="round" stroke-linejoin="round"/>
<path d="M186.563 327.566L178.365 391.116C178.236 392.025 178.939 392.84 179.857 392.84C180.56 392.84 181.178 392.351 181.332 391.656L193.535 327.566H186.572H186.563Z" fill="white" stroke="#2D2E2E" stroke-linecap="round" stroke-linejoin="round"/>
<path d="M211.673 327.566L203.474 397.847C203.346 398.756 204.049 399.571 204.966 399.571C205.67 399.571 206.287 399.082 206.441 398.388L218.645 327.566H211.681H211.673Z" fill="white" stroke="#2D2E2E" stroke-linecap="round" stroke-linejoin="round"/>
<path d="M308.716 327.566L316.915 397.847C317.043 398.756 316.34 399.571 315.422 399.571C314.719 399.571 314.102 399.082 313.947 398.388L301.744 327.566H308.708H308.716Z" fill="white" stroke="#2D2E2E" stroke-linecap="round" stroke-linejoin="round"/>
<path d="M283.597 327.566L291.796 391.116C291.924 392.025 291.221 392.84 290.303 392.84C289.6 392.84 288.983 392.351 288.828 391.656L276.625 327.566H283.589H283.597Z" fill="white" stroke="#2D2E2E" stroke-linecap="round" stroke-linejoin="round"/>
<path d="M318.029 320.963H177.781V329.229H318.029V320.963Z" fill="#2D2E2E"/>
<path d="M373.308 6.35547H275.124C272.965 6.35547 271.214 8.10613 271.214 10.2657V190.282C271.214 192.441 272.965 194.192 275.124 194.192H373.308C375.468 194.192 377.219 192.441 377.219 190.282V10.2657C377.219 8.10613 375.468 6.35547 373.308 6.35547Z" fill="#F5F9FE" stroke="#2D2E2E" stroke-linecap="round" stroke-linejoin="round"/>
<path d="M358.027 24.252H290.424C288.373 24.252 286.711 25.9143 286.711 27.9649V104.746C286.711 106.797 288.373 108.459 290.424 108.459H358.027C360.078 108.459 361.74 106.797 361.74 104.746V27.9649C361.74 25.9143 360.078 24.252 358.027 24.252Z" fill="white" stroke="#2D2E2E" stroke-miterlimit="10"/>
<path d="M341.115 119.45H307.327C306.281 119.45 305.432 118.601 305.432 117.555C305.432 116.509 306.281 115.66 307.327 115.66H341.115C342.162 115.66 343.011 116.509 343.011 117.555C343.011 118.601 342.162 119.45 341.115 119.45Z" fill="#2D2E2E"/>
<path d="M346.08 127.564H362.203" stroke="#2D2E2E" stroke-linecap="round" stroke-linejoin="round"/>
<path d="M298.244 127.564H343.113" stroke="#2D2E2E" stroke-linecap="round" stroke-linejoin="round"/>
<path d="M286.247 127.564H295.535" stroke="#2D2E2E" stroke-linecap="round" stroke-linejoin="round"/>
<path d="M305.268 133.508H362.202" stroke="#2D2E2E" stroke-linecap="round" stroke-linejoin="round"/>
<path d="M286.247 133.508H302.026" stroke="#2D2E2E" stroke-linecap="round" stroke-linejoin="round"/>
<path d="M319.059 139.449H362.203" stroke="#2D2E2E" stroke-linecap="round" stroke-linejoin="round"/>
<path d="M286.247 139.449H316.348" stroke="#2D2E2E" stroke-linecap="round" stroke-linejoin="round"/>
<path d="M346.08 145.401H362.203" stroke="#2D2E2E" stroke-linecap="round" stroke-linejoin="round"/>
<path d="M299.865 145.401H342.573" stroke="#2D2E2E" stroke-linecap="round" stroke-linejoin="round"/>
<path d="M286.247 145.401H297.164" stroke="#2D2E2E" stroke-linecap="round" stroke-linejoin="round"/>
<path d="M293.408 158.656L294.738 162.755H299.051L295.561 165.285L296.899 169.384L293.408 166.854L289.918 169.384L291.256 165.285L287.766 162.755H292.079L293.408 158.656Z" fill="#2D2E2E" stroke="#2D2E2E" stroke-miterlimit="10"/>
<path d="M308.819 158.656L310.149 162.755H314.462L310.972 165.285L312.301 169.384L308.819 166.854L305.329 169.384L306.658 165.285L303.168 162.755H307.482L308.819 158.656Z" fill="#2D2E2E" stroke="#2D2E2E" stroke-miterlimit="10"/>
<path d="M324.221 158.656L325.559 162.755H329.864L326.382 165.285L327.712 169.384L324.221 166.854L320.731 169.384L322.069 165.285L318.578 162.755H322.892L324.221 158.656Z" fill="#2D2E2E" stroke="#2D2E2E" stroke-miterlimit="10"/>
<path d="M339.632 158.656L340.961 162.755H345.275L341.785 165.285L343.114 169.384L339.632 166.854L336.142 169.384L337.471 165.285L333.989 162.755H338.294L339.632 158.656Z" fill="#2D2E2E" stroke="#2D2E2E" stroke-miterlimit="10"/>
<path d="M355.033 158.656L356.371 162.755H360.676L357.195 165.285L358.524 169.384L355.033 166.854L351.552 169.384L352.881 165.285L349.391 162.755H353.704L355.033 158.656Z" fill="#2D2E2E" stroke="#2D2E2E" stroke-miterlimit="10"/>
<path d="M341.356 108.45L342.582 78.0511C342.582 78.0511 333.543 74.8269 333.158 74.8269C332.772 74.8269 332.257 62.8047 332.257 62.8047L313.545 64.614L313.416 74.3124L303.605 78.4456L305.878 108.458H341.365L341.356 108.45Z" fill="#929292" stroke="#2D2E2E" stroke-linecap="round" stroke-linejoin="round"/>
<path d="M333.158 74.8269C332.772 74.8269 332.258 62.8047 332.258 62.8047L313.545 64.614L313.417 74.3124L311.007 75.3242C313.237 78.3341 321.641 89.353 324.651 89.0186C327.275 88.727 332.378 79.7404 334.745 75.3071C333.87 75.0155 333.261 74.8183 333.167 74.8183L333.158 74.8269Z" fill="white" stroke="#2D2E2E" stroke-linecap="round" stroke-linejoin="round"/>
<path d="M316.538 64.3223L313.545 64.6052L313.416 74.3122L310.998 75.324L326.323 72.8716L316.538 64.3223Z" fill="#2D2E2E" stroke="#2D2E2E" stroke-linecap="round" stroke-linejoin="round"/>
<path d="M315.216 34.1465C315.216 34.1465 312.635 34.0179 312.121 34.661C311.606 35.3041 305.929 44.2136 306.315 45.7571C306.701 47.3092 308.639 50.9193 308.639 50.9193L310.191 56.4673L311.349 47.172L317.678 40.9808L331.879 45.2426L333.303 52.7286L334.332 52.9859C334.332 52.9859 334.846 49.7617 334.975 49.2472C335.104 48.7327 337.428 40.4749 336.784 38.6656C336.141 36.8562 321.811 30.7937 319.358 31.0509C316.906 31.3082 315.225 34.1465 315.225 34.1465H315.216Z" fill="#2D2E2E" stroke="#2D2E2E" stroke-linecap="round" stroke-linejoin="round"/>
<path d="M310.182 54.6652C310.182 54.6652 307.858 50.4034 307.215 54.7938C306.572 59.1842 310.954 61.1222 310.954 61.1222L310.182 54.6652Z" fill="white" stroke="#2D2E2E" stroke-linecap="round" stroke-linejoin="round"/>
<path d="M333.285 52.7375C333.285 52.7375 335.481 50.4137 336.124 53.252C336.767 56.0904 333.928 59.5804 333.928 59.5804L333.285 52.7375Z" fill="white" stroke="#2D2E2E" stroke-linecap="round" stroke-linejoin="round"/>
<path d="M309.668 47.9617C309.668 47.9617 311.349 62.6765 311.606 63.8341C311.863 64.9917 320.902 72.6064 321.417 73.0008C321.931 73.3867 325.027 73.9012 326.322 72.8722C327.608 71.8432 333.68 63.0624 333.937 62.2906C334.195 61.5189 333.037 43.4512 333.037 43.4512L325.808 40.227C325.808 40.227 327.488 42.2936 326.194 42.4222C324.899 42.5509 317.549 38.2891 317.549 38.2891L309.677 47.9703L309.668 47.9617Z" fill="white" stroke="#2D2E2E" stroke-linecap="round" stroke-linejoin="round"/>
<path d="M319.736 46.6651C319.736 46.6651 316.383 45.113 314.059 47.8227" stroke="#2D2E2E" stroke-linecap="round" stroke-linejoin="round"/>
<path d="M324.256 46.9225C324.256 46.9225 326.966 44.3414 329.804 47.0511" stroke="#2D2E2E" stroke-linecap="round" stroke-linejoin="round"/>
<path d="M324.127 48.3477C324.127 48.3477 324.384 53.5098 324.513 54.153C324.641 54.7961 326.065 55.3106 325.027 56.4768C323.998 57.6344 322.06 58.1575 321.288 56.9913" stroke="#2D2E2E" stroke-linecap="round" stroke-linejoin="round"/>
<path d="M317.541 59.4436C317.541 59.4436 320.251 62.282 323.218 61.8961C326.185 61.5102 328.252 58.6719 328.252 58.6719" stroke="#2D2E2E" stroke-linecap="round" stroke-linejoin="round"/>
<path d="M318.055 51.1851C318.055 51.9654 317.652 52.6085 317.154 52.6085C316.657 52.6085 316.254 51.974 316.254 51.1851C316.254 50.3961 316.657 49.7616 317.154 49.7616C317.652 49.7616 318.055 50.3961 318.055 51.1851Z" fill="#2D2E2E"/>
<path d="M328.775 51.1851C328.775 51.9654 328.372 52.6085 327.874 52.6085C327.377 52.6085 326.974 51.974 326.974 51.1851C326.974 50.3961 327.377 49.7616 327.874 49.7616C328.372 49.7616 328.775 50.3961 328.775 51.1851Z" fill="#2D2E2E"/>
<path d="M313.784 108.451C313.587 89.8684 313.415 74.3047 313.415 74.3047C313.415 74.3047 292.156 82.7254 291.341 82.8197C289.909 82.9912 289.583 96.334 288.186 108.442H313.776L313.784 108.451Z" fill="#0C93F4" stroke="#2D2E2E" stroke-linecap="round" stroke-linejoin="round"/>
<path d="M304.762 85.9236C305.354 86.9697 308.227 98.7004 310.551 108.45H313.596L313.407 74.3044C312.378 71.9805 299.205 78.3089 298.691 79.2093C298.176 80.1097 303.725 84.1142 304.754 85.9236H304.762Z" fill="#0C93F4" stroke="#2D2E2E" stroke-linecap="round" stroke-linejoin="round"/>
<path d="M359.441 108.45C358.635 96.1617 355.779 82.9647 355.359 82.8275C354.587 82.5703 333.285 74.3125 333.285 74.3125C333.285 74.3125 333.113 89.8762 332.916 108.458H359.441V108.45Z" fill="#0C93F4" stroke="#2D2E2E" stroke-linecap="round" stroke-linejoin="round"/>
<path d="M336.141 108.45C338.465 98.7004 341.338 86.9697 341.93 85.9236C342.959 84.1142 348.516 80.1183 347.993 79.2093C347.478 78.3089 334.314 71.9805 333.277 74.3044L333.088 108.45H336.132H336.141Z" fill="#0C93F4" stroke="#2D2E2E" stroke-linecap="round" stroke-linejoin="round"/>
<path d="M212.196 6.35547H114.012C111.852 6.35547 110.102 8.10613 110.102 10.2657V190.282C110.102 192.441 111.852 194.192 114.012 194.192H212.196C214.356 194.192 216.107 192.441 216.107 190.282V10.2657C216.107 8.10613 214.356 6.35547 212.196 6.35547Z" fill="#F5F9FE" stroke="#2D2E2E" stroke-linecap="round" stroke-linejoin="round"/>
<path d="M196.914 24.252H129.311C127.26 24.252 125.598 25.9143 125.598 27.9649V104.746C125.598 106.797 127.26 108.459 129.311 108.459H196.914C198.965 108.459 200.627 106.797 200.627 104.746V27.9649C200.627 25.9143 198.965 24.252 196.914 24.252Z" fill="white" stroke="#2D2E2E" stroke-miterlimit="10"/>
<path d="M180.002 119.45H146.214C145.167 119.45 144.318 118.601 144.318 117.555C144.318 116.509 145.167 115.66 146.214 115.66H180.002C181.048 115.66 181.897 116.509 181.897 117.555C181.897 118.601 181.048 119.45 180.002 119.45Z" fill="#2D2E2E"/>
<path d="M184.968 127.564H201.082" stroke="#2D2E2E" stroke-linecap="round" stroke-linejoin="round"/>
<path d="M137.124 127.564H182.001" stroke="#2D2E2E" stroke-linecap="round" stroke-linejoin="round"/>
<path d="M125.135 127.564H134.422" stroke="#2D2E2E" stroke-linecap="round" stroke-linejoin="round"/>
<path d="M144.156 133.508H201.082" stroke="#2D2E2E" stroke-linecap="round" stroke-linejoin="round"/>
<path d="M125.135 133.508H140.914" stroke="#2D2E2E" stroke-linecap="round" stroke-linejoin="round"/>
<path d="M157.938 139.449H201.082" stroke="#2D2E2E" stroke-linecap="round" stroke-linejoin="round"/>
<path d="M125.135 139.449H155.236" stroke="#2D2E2E" stroke-linecap="round" stroke-linejoin="round"/>
<path d="M184.968 145.401H201.082" stroke="#2D2E2E" stroke-linecap="round" stroke-linejoin="round"/>
<path d="M138.753 145.401H181.46" stroke="#2D2E2E" stroke-linecap="round" stroke-linejoin="round"/>
<path d="M125.135 145.401H136.043" stroke="#2D2E2E" stroke-linecap="round" stroke-linejoin="round"/>
<path d="M132.295 158.656L133.624 162.755H137.938L134.448 165.285L135.786 169.384L132.295 166.854L128.805 169.384L130.134 165.285L126.652 162.755H130.957L132.295 158.656Z" fill="#2D2E2E" stroke="#2D2E2E" stroke-miterlimit="10"/>
<path d="M147.698 158.656L149.035 162.755H153.349L149.859 165.285L151.188 169.384L147.698 166.854L144.216 169.384L145.545 165.285L142.055 162.755H146.368L147.698 158.656Z" fill="#2D2E2E" stroke="#2D2E2E" stroke-miterlimit="10"/>
<path d="M163.108 158.656L164.437 162.755H168.751L165.26 165.285L166.598 169.384L163.108 166.854L159.618 169.384L160.955 165.285L157.465 162.755H161.779L163.108 158.656Z" fill="#2D2E2E" stroke="#2D2E2E" stroke-miterlimit="10"/>
<path d="M178.519 158.656L179.848 162.755H184.161L180.671 165.285L182 169.384L178.519 166.854L175.028 169.384L176.357 165.285L172.867 162.755H177.181L178.519 158.656Z" fill="#2D2E2E" stroke="#2D2E2E" stroke-miterlimit="10"/>
<path d="M193.92 158.656L195.258 162.755H199.563L196.081 165.285L197.411 169.384L193.92 166.854L190.43 169.384L191.768 165.285L188.277 162.755H192.591L193.92 158.656Z" fill="white" stroke="#2D2E2E" stroke-miterlimit="10"/>
<path d="M190.482 76.7655C190.482 76.7655 192.128 75.3935 192.266 71.4233C192.403 67.4444 188.287 64.709 188.287 64.709C188.287 64.709 188.835 61.965 188.424 59.7698C188.012 57.5746 183.621 55.791 183.621 55.791C183.621 55.791 184.033 53.3213 183.347 51.1261C182.661 48.9309 179.505 48.2449 179.505 48.2449C173.159 39.4126 165.801 41.7536 164.497 42.2681C163.185 41.7536 155.827 39.4212 149.49 48.2449C149.49 48.2449 146.334 48.9309 145.648 51.1261C144.962 53.3213 145.373 55.791 145.373 55.791C145.373 55.791 140.983 57.5746 140.571 59.7698C140.159 61.965 140.708 64.709 140.708 64.709C140.708 64.709 136.592 67.453 136.729 71.4233C136.866 75.4021 138.513 76.7655 138.513 76.7655C138.513 76.7655 136.043 78.2747 136.043 80.1955C136.043 82.1163 138.376 85.1348 140.434 85.675C142.372 86.1895 162.268 85.735 164.497 85.675C166.727 85.7264 186.614 86.1895 188.561 85.675C190.619 85.1262 192.952 82.1078 192.952 80.1955C192.952 78.2833 190.482 76.7655 190.482 76.7655Z" fill="#2D2E2E" stroke="#2D2E2E" stroke-miterlimit="10"/>
<path d="M176.341 59.1963C176.341 59.1963 176.469 56.3837 178.142 57.3698C179.805 58.3645 177.884 62.7978 177.035 63.8097C176.186 64.8215 175.046 65.4304 175.046 65.4304L175.903 59.9938L176.341 59.1877V59.1963Z" fill="white" stroke="#2D2E2E" stroke-miterlimit="10"/>
<path d="M197.394 108.451L193.964 93.1355L172.808 81.4648L154.936 81.6449L133.591 91.8578L128.874 108.451H197.394Z" fill="#0C93F4" stroke="#2D2E2E" stroke-linecap="round" stroke-linejoin="round"/>
<path d="M173.699 108.451L172.807 81.4648L154.936 81.6449V108.451H173.699Z" fill="white" stroke="#2D2E2E" stroke-miterlimit="10"/>
<path d="M155.845 71.432L154.936 81.6449L163.323 94.7733L172.807 81.4648L170.252 71.252L155.845 71.432Z" fill="white" stroke="#2D2E2E" stroke-miterlimit="10"/>
<path d="M151.206 58.072C151.206 58.072 152.501 67.1529 153.41 69.2538C154.319 71.3547 158.204 76.3111 161.162 77.6917C164.121 79.0722 166.394 77.9575 167.534 77.1429C168.675 76.3282 171.874 72.6924 173.632 69.6569C175.39 66.6299 176.024 57.2745 176.024 57.2745L175.33 50.646C175.33 50.646 161.214 42.2081 158.272 42.6369C155.331 43.0571 149.885 53.956 150.22 55.2594C150.563 56.5628 151.197 58.0634 151.197 58.0634L151.206 58.072Z" fill="white" stroke="#2D2E2E" stroke-miterlimit="10"/>
<path d="M161.771 67.332C161.771 67.332 163.117 68.6269 165.492 67.4006" stroke="#2D2E2E" stroke-miterlimit="10"/>
<path d="M160.947 70.6164C160.947 70.6164 163.571 72.7087 167.01 70.2734" stroke="#2D2E2E" stroke-miterlimit="10"/>
<path d="M155.253 57.4027C155.253 57.4027 157.646 55.7735 160.124 56.6653" stroke="#2D2E2E" stroke-miterlimit="10"/>
<path d="M166.977 56.8123C166.977 56.8123 170.15 55.6804 171.865 57.7813" stroke="#2D2E2E" stroke-miterlimit="10"/>
<path d="M158.838 60.5416C158.813 61.1762 158.47 61.6993 158.075 61.6993C157.689 61.6993 157.398 61.1848 157.423 60.5502C157.449 59.9157 157.792 59.3926 158.187 59.3926C158.573 59.3926 158.864 59.9071 158.838 60.5416Z" fill="#2D2E2E"/>
<path d="M169.523 60.4655C169.497 61.1 169.154 61.6231 168.76 61.6231C168.374 61.6231 168.082 61.1086 168.108 60.474C168.134 59.8395 168.477 59.3164 168.871 59.3164C169.257 59.3164 169.549 59.8309 169.523 60.4655Z" fill="#2D2E2E"/>
<path d="M159.995 46.8562C159.995 46.8562 159.327 48.2711 158.409 50.5864C157.491 52.9016 155.167 55.2341 153.838 55.7486C152.5 56.2631 151.188 56.4689 151.188 56.4689C151.188 56.4689 152.02 58.0724 151.214 58.0724C150.408 58.0724 149.705 55.9715 149.705 55.9715C149.705 55.9715 147.012 48.9571 148.684 43.3147C150.356 37.6724 155.373 36.1289 155.373 36.1289C155.373 36.1289 157.972 32.2872 165.287 33.1362C172.602 33.9851 176.289 36.9692 178.854 44.6953C181.409 52.4129 177.584 56.6661 177.061 57.172C176.538 57.6779 176.881 58.8784 176.358 59.1871C175.843 59.4958 175.209 57.8923 175.209 57.8923C175.209 57.8923 171.53 56.8119 168.606 54.7281C165.681 52.6358 162.268 48.0396 161.513 47.0449C160.759 46.0502 160.013 46.8562 160.013 46.8562H159.995Z" fill="#2D2E2E" stroke="#2D2E2E" stroke-miterlimit="10"/>
<path d="M151.205 58.0728C151.205 58.0728 150.073 56.4693 149.198 57.8842C148.324 59.2991 148.718 61.6057 149.558 63.0035C150.399 64.4012 152.397 65.3273 152.397 65.3273L151.196 58.0728H151.205Z" fill="white" stroke="#2D2E2E" stroke-miterlimit="10"/>
<path d="M156.934 98.4264L163.323 94.7734L169.703 98.4264" stroke="#2D2E2E" stroke-linecap="round" stroke-linejoin="round"/>
<path d="M152.012 84.9297C150.889 91.3267 149.774 97.7236 148.65 104.121" stroke="#2D2E2E" stroke-linecap="round" stroke-linejoin="round"/>
<path d="M176.272 85.1095C177.276 91.4293 178.279 97.7577 179.282 104.077" stroke="#2D2E2E" stroke-linecap="round" stroke-linejoin="round"/>
<path d="M294.291 6.39062H287.422V194.227H294.291V6.39062Z" fill="#2D2E2E" stroke="#2D2E2E" stroke-linecap="round" stroke-linejoin="round"/>
<path d="M285.098 0.429688H180.216C178.056 0.429688 176.306 2.18035 176.306 4.33991V196.215C176.306 198.375 178.056 200.125 180.216 200.125H285.098C287.258 200.125 289.008 198.375 289.008 196.215V4.33991C289.008 2.18035 287.258 0.429688 285.098 0.429688Z" fill="#F5F9FE" stroke="#2D2E2E" stroke-linecap="round" stroke-linejoin="round"/>
<path d="M268.829 19.4492H196.493C194.442 19.4492 192.779 21.1116 192.779 23.1622V105.251C192.779 107.302 194.442 108.964 196.493 108.964H268.829C270.88 108.964 272.543 107.302 272.543 105.251V23.1622C272.543 21.1116 270.88 19.4492 268.829 19.4492Z" fill="white" stroke="#2D2E2E" stroke-miterlimit="10"/>
<path d="M264.507 81.3698L242.193 69.502L232.656 69.8707L223.12 69.502L200.806 81.3698C199.743 81.9358 199.022 82.9991 198.902 84.1996L196.424 108.964H268.88L266.402 84.1996C266.282 82.9991 265.57 81.9358 264.498 81.3698H264.507Z" fill="#FF7294" stroke="#2D2E2E" stroke-linecap="round" stroke-linejoin="round"/>
<path d="M223.249 58.628V69.1581L232.682 81.7291L242.107 69.1581L241.55 58.4393L223.249 58.628Z" fill="#929292" stroke="#2D2E2E" stroke-linecap="round" stroke-linejoin="round"/>
<path d="M241.069 28.6325C241.069 28.6325 244.637 31.9596 245.194 33.9233C245.76 35.887 245.194 52.1624 244.002 55.6267C242.81 59.091 239.508 65.1536 235.795 67.2116C232.073 69.2696 227.494 67.5975 224.99 64.1675C222.486 60.7289 220.976 55.4038 220.547 53.543C220.119 51.6822 219.33 34.9523 220.119 32.2512C220.908 29.55 227.297 25.6655 231.439 25.3483C235.581 25.0396 239.243 27.0375 241.078 28.6325H241.069Z" fill="#929292" stroke="#2D2E2E" stroke-linecap="round" stroke-linejoin="round"/>
<path d="M235.933 51.459C235.933 51.459 235.152 53.0882 232.923 53.4398C230.693 53.7914 229.235 52.3937 229.029 51.579" stroke="#2D2E2E" stroke-linecap="round" stroke-linejoin="round"/>
<path d="M236.198 42.5507C236.198 42.5507 240.314 43.3396 241.249 43.6226C242.184 43.9055 242.621 42.2677 240.04 41.6675C237.458 41.0672 234.843 41.0586 236.198 42.5507Z" fill="#2D2E2E" stroke="#2D2E2E" stroke-linecap="round" stroke-linejoin="round"/>
<path d="M229.569 42.3436C229.569 42.3436 225.504 43.364 224.586 43.6984C223.669 44.0329 223.145 42.4208 225.684 41.6747C228.231 40.9287 230.838 40.7829 229.569 42.3436Z" fill="#2D2E2E" stroke="#2D2E2E" stroke-linecap="round" stroke-linejoin="round"/>
<path d="M236.309 45.9363C236.386 46.6566 236.866 47.1883 237.39 47.1368C237.913 47.0854 238.273 46.4594 238.196 45.7391C238.119 45.0188 237.638 44.4871 237.115 44.5386C236.592 44.59 236.232 45.216 236.309 45.9363Z" fill="#2D2E2E"/>
<path d="M226.336 46.2547C226.414 46.975 226.894 47.5066 227.417 47.4552C227.94 47.4037 228.3 46.7778 228.223 46.0575C228.146 45.3372 227.666 44.8055 227.143 44.857C226.619 44.9084 226.259 45.5344 226.336 46.2547Z" fill="#2D2E2E"/>
<path d="M233.874 53.4573C233.874 53.4573 238.548 53.6888 239.2 55.4038C239.852 57.1188 239.723 62.744 238.505 64.7763C237.287 66.8086 233.848 68.1206 231.945 68.1978C230.049 68.2749 227.511 66.8686 226.696 65.8825C225.882 64.8964 225.213 63.0613 225.05 61.5264C224.887 59.9915 224.166 56.4928 225.804 55.0094C227.442 53.5259 233.866 53.4573 233.866 53.4573H233.874Z" fill="#2D2E2E" stroke="#2D2E2E" stroke-linecap="round" stroke-linejoin="round"/>
<path d="M226.628 57.0756C226.628 57.0756 229.724 55.918 231.988 55.918C234.252 55.918 237.467 57.0156 237.467 57.0156C237.467 57.0156 236.541 60.6857 232.528 61.1059C228.514 61.526 226.628 57.0756 226.628 57.0756Z" fill="#F5F9FE" stroke="#2D2E2E" stroke-linecap="round" stroke-linejoin="round"/>
<path d="M237.467 57.0156C237.467 57.0156 231.164 59.4595 226.628 57.0757" stroke="#2D2E2E" stroke-linecap="round" stroke-linejoin="round"/>
<path d="M236.087 48.3379C236.087 48.3379 237.922 49.9328 238.651 50.0958" stroke="#2D2E2E" stroke-linecap="round" stroke-linejoin="round"/>
<path d="M227.82 49.084C227.82 49.084 226.619 50.1644 225.796 50.2502" stroke="#2D2E2E" stroke-linecap="round" stroke-linejoin="round"/>
<path d="M245.357 44.6348C245.357 44.6348 247.15 42.4225 248.153 43.9831C249.148 45.5438 248.23 50.4144 247.158 51.5978C246.086 52.7811 244.577 53.1756 244.577 53.1756L245.357 44.6348Z" fill="#929292" stroke="#2D2E2E" stroke-linecap="round" stroke-linejoin="round"/>
<path d="M219.827 44.4359C219.827 44.4359 217.494 42.6523 217.014 43.7756C216.534 44.8989 216.594 47.7544 217.512 49.6838C218.429 51.6132 220.453 52.7194 220.453 52.7194L219.827 44.4359Z" fill="#929292" stroke="#2D2E2E" stroke-linecap="round" stroke-linejoin="round"/>
<path d="M222.142 64.3555L218.995 69.7149L228.06 82.2859L230.272 74.7055L222.142 64.3555Z" fill="#FF7294" stroke="#2D2E2E" stroke-linecap="round" stroke-linejoin="round"/>
<path d="M242.296 64.3555L245.434 69.7149L236.378 82.2859L234.157 74.7055L242.296 64.3555Z" fill="#FF7294" stroke="#2D2E2E" stroke-linecap="round" stroke-linejoin="round"/>
<path d="M234.157 74.707L232.682 81.73L235.323 79.0031L234.157 74.707Z" fill="#FF7294" stroke="#2D2E2E" stroke-linecap="round" stroke-linejoin="round"/>
<path d="M230.272 74.707L232.682 81.73L229.166 78.5229L230.272 74.707Z" fill="#FF7294" stroke="#2D2E2E" stroke-linecap="round" stroke-linejoin="round"/>
<path d="M232.656 103.629V106.682" stroke="#2D2E2E" stroke-linecap="round" stroke-linejoin="round"/>
<path d="M232.656 83.418V101.528" stroke="#2D2E2E" stroke-linecap="round" stroke-linejoin="round"/>
<path d="M255.562 94.3867C254.456 98.8886 253.23 104.299 252.681 108.776" stroke="#2D2E2E" stroke-linecap="round" stroke-linejoin="round"/>
<path d="M257.638 85.3315C257.895 85.2201 257.201 87.8526 256.24 91.6599" stroke="#2D2E2E" stroke-linecap="round" stroke-linejoin="round"/>
<path d="M206.595 85.3299C206.003 85.0641 210.377 99.1271 211.552 108.783" stroke="#2D2E2E" stroke-linecap="round" stroke-linejoin="round"/>
<path d="M250.623 120.661H214.699C213.584 120.661 212.684 119.761 212.684 118.646C212.684 117.531 213.584 116.631 214.699 116.631H250.623C251.738 116.631 252.638 117.531 252.638 118.646C252.638 119.761 251.738 120.661 250.623 120.661Z" fill="#2D2E2E"/>
<path d="M255.897 129.277H273.032" stroke="#2D2E2E" stroke-linecap="round" stroke-linejoin="round"/>
<path d="M205.034 129.277H252.741" stroke="#2D2E2E" stroke-linecap="round" stroke-linejoin="round"/>
<path d="M192.282 129.277H202.162" stroke="#2D2E2E" stroke-linecap="round" stroke-linejoin="round"/>
<path d="M212.513 135.605H273.032" stroke="#2D2E2E" stroke-linecap="round" stroke-linejoin="round"/>
<path d="M192.282 135.605H209.065" stroke="#2D2E2E" stroke-linecap="round" stroke-linejoin="round"/>
<path d="M227.168 141.926H273.031" stroke="#2D2E2E" stroke-linecap="round" stroke-linejoin="round"/>
<path d="M192.282 141.926H224.287" stroke="#2D2E2E" stroke-linecap="round" stroke-linejoin="round"/>
<path d="M255.897 148.246H273.032" stroke="#2D2E2E" stroke-linecap="round" stroke-linejoin="round"/>
<path d="M206.758 148.246H252.167" stroke="#2D2E2E" stroke-linecap="round" stroke-linejoin="round"/>
<path d="M192.282 148.246H203.885" stroke="#2D2E2E" stroke-linecap="round" stroke-linejoin="round"/>
<path d="M199.898 162.336L201.313 166.701H205.901L202.188 169.393L203.611 173.749L199.898 171.057L196.193 173.749L197.608 169.393L193.903 166.701H198.483L199.898 162.336Z" fill="#2D2E2E" stroke="#2D2E2E" stroke-miterlimit="10"/>
<path d="M216.277 162.336L217.692 166.701H222.281L218.567 169.393L219.991 173.749L216.277 171.057L212.573 173.749L213.988 169.393L210.283 166.701H214.862L216.277 162.336Z" fill="#2D2E2E" stroke="#2D2E2E" stroke-miterlimit="10"/>
<path d="M232.658 162.336L234.073 166.701H238.661L234.947 169.393L236.371 173.749L232.658 171.057L228.953 173.749L230.368 169.393L226.663 166.701H231.243L232.658 162.336Z" fill="#2D2E2E" stroke="#2D2E2E" stroke-miterlimit="10"/>
<path d="M249.036 162.336L250.451 166.701H255.04L251.326 169.393L252.75 173.749L249.036 171.057L245.332 173.749L246.747 169.393L243.042 166.701H247.621L249.036 162.336Z" fill="#2D2E2E" stroke="#2D2E2E" stroke-miterlimit="10"/>
<path d="M265.416 162.336L266.831 166.701H271.419L267.706 169.393L269.13 173.749L265.416 171.057L261.712 173.749L263.127 169.393L259.422 166.701H264.001L265.416 162.336Z" fill="#2D2E2E" stroke="#2D2E2E" stroke-miterlimit="10"/>
<path d="M90.0844 327.567L96.9879 391.116C97.1165 392.025 96.4133 392.84 95.4957 392.84C94.7925 392.84 94.175 392.351 94.0207 391.656L83.1123 327.567H90.0758H90.0844Z" fill="white" stroke="#2D2E2E" stroke-linecap="round" stroke-linejoin="round"/>
<path d="M26.7781 327.567L18.5797 391.116C18.451 392.025 19.1542 392.84 20.0719 392.84C20.7751 392.84 21.3925 392.351 21.5469 391.656L33.7502 327.567H26.7867H26.7781Z" fill="white" stroke="#2D2E2E" stroke-linecap="round" stroke-linejoin="round"/>
<path d="M90.5818 331.374L90.0844 327.567H83.1209L83.9013 331.374H90.5818Z" fill="#2D2E2E" stroke="#2D2E2E" stroke-linecap="round" stroke-linejoin="round"/>
<path d="M32.8755 331.374L33.7416 327.567H26.7781L26.1864 331.374H32.8755Z" fill="#2D2E2E" stroke="#2D2E2E" stroke-linecap="round" stroke-linejoin="round"/>
<path d="M88.1376 366.215L82.7863 375.279C82.7863 375.279 78.5156 380.012 77.941 384.051C77.3664 388.09 77.8295 389.239 78.9787 389.47C80.1278 389.702 92.7771 393.226 99.5862 394.375C106.395 395.533 117.621 394.881 119.585 394.075C121.549 393.269 121.78 391.425 120.048 390.499C118.316 389.573 105.409 382.893 102.751 380.707C100.101 378.511 97.9054 375.287 97.9054 374.824C97.9054 374.361 98.4799 371.36 98.4799 371.36L88.1376 366.223V366.215Z" fill="white" stroke="#2D2E2E" stroke-linecap="round" stroke-linejoin="round"/>
<path d="M120.039 390.5C118.899 389.891 112.861 386.761 108.136 384.077C107.887 384.969 107.356 385.955 106.241 386.195C104.226 386.624 86.002 379.567 80.8994 377.672C79.6731 379.413 78.2495 381.831 77.9322 384.043C77.3576 388.082 77.8207 389.231 78.9699 389.463C80.119 389.694 92.7683 393.218 99.5774 394.367C106.387 395.525 117.612 394.873 119.576 394.067C121.54 393.261 121.772 391.418 120.039 390.492V390.5Z" fill="#FF7294" stroke="#2D2E2E" stroke-linecap="round" stroke-linejoin="round"/>
<path d="M112.751 310.845L88.1296 366.222C88.1296 366.222 92.5118 370.184 97.0998 371.024C101.688 371.856 102.734 371.856 102.734 371.856C102.734 371.856 143.203 307.509 146.333 293.746C149.463 279.974 134.233 277.891 132.355 277.891C130.477 277.891 86.4573 282.067 86.4573 282.067L45.9883 304.808C45.9883 304.808 48.5782 320.637 66.9475 321.375C89.2959 322.266 112.742 310.853 112.742 310.853L112.751 310.845Z" fill="#2D2E2E" stroke="#2D2E2E" stroke-linecap="round" stroke-linejoin="round"/>
<path d="M100.024 260.366C100.024 260.366 141.119 249.938 145.501 253.48C149.883 257.03 173.038 341.511 174.916 345.053C176.794 348.603 182.634 353.602 184.512 354.228C186.39 354.854 193.903 357.152 193.277 358.816C192.651 360.488 180.345 363.618 175.13 362.572C169.916 361.525 151.35 355.9 150.304 353.182C149.257 350.472 158.442 339.625 152.808 330.441C147.173 321.266 139.875 308.326 132.989 298.525C126.103 288.723 126.729 278.914 126.729 278.914L91.6797 282.464L100.024 260.349V260.366Z" fill="white" stroke="#2D2E2E" stroke-linecap="round" stroke-linejoin="round"/>
<path d="M165.2 312.912C157.679 287.367 148.16 255.623 145.51 253.479C141.128 249.929 100.033 260.365 100.033 260.365L91.6885 282.48L126.738 278.929C126.738 278.929 126.112 288.731 132.998 298.541C136.557 303.608 140.227 309.517 143.718 315.305C148.263 311.592 156.71 306.79 165.2 312.921V312.912Z" fill="#2D2E2E" stroke="#2D2E2E" stroke-linecap="round" stroke-linejoin="round"/>
<path d="M184.521 354.235C184.289 354.158 183.989 354.012 183.646 353.806C181.639 353.892 179.084 353.678 177.223 352.357C173.673 349.853 169.084 346.938 161.992 342.968C158.776 341.167 156.169 340.704 154.266 340.738C153.082 346.492 149.652 351.474 150.312 353.189C151.358 355.899 169.925 361.533 175.139 362.579C180.353 363.625 192.659 360.495 193.285 358.823C193.911 357.151 186.399 354.861 184.521 354.235Z" fill="#FF7294" stroke="#2D2E2E" stroke-linecap="round" stroke-linejoin="round"/>
<path d="M179.924 361.112C172.206 360.066 163.862 352.769 157.807 351.517C151.761 350.265 150.295 353.189 150.295 353.189C151.341 355.899 169.908 361.532 175.122 362.579C178.252 363.205 183.929 362.33 188.105 361.164C185.704 361.421 182.857 361.515 179.916 361.112H179.924Z" fill="#2D2E2E" stroke="#2D2E2E" stroke-linecap="round" stroke-linejoin="round"/>
<path d="M127.166 216.52L101.773 242.529C100.967 243.42 101.345 244.844 102.477 245.23L123.393 252.287C124.353 252.613 125.425 252.356 126.137 251.635L156.718 220.474C157.55 219.625 157.044 218.184 155.861 218.047L130.794 215.148C129.439 214.994 128.084 215.5 127.175 216.512L127.166 216.52Z" fill="#2D2E2E" stroke="#2D2E2E" stroke-linecap="round" stroke-linejoin="round"/>
<path d="M127.063 219.195L106.069 240.701C105.4 241.439 105.709 242.622 106.652 242.939L123.941 248.779C124.739 249.045 125.622 248.839 126.205 248.239L151.487 222.471C152.181 221.767 151.761 220.576 150.775 220.464L130.047 218.072C128.924 217.943 127.809 218.363 127.054 219.204L127.063 219.195Z" fill="#F5F9FE"/>
<path d="M102.391 236.337C102.391 236.337 104.475 234.622 105.452 234.373C106.43 234.125 109.869 234.125 110.846 233.636C111.824 233.147 113.05 232.778 113.299 234.373C113.548 235.968 112.561 236.946 111.095 237.435C109.62 237.923 105.581 238.661 105.581 238.661L103.128 240.376L102.391 236.328V236.337Z" fill="white" stroke="#2D2E2E" stroke-linecap="round" stroke-linejoin="round"/>
<path d="M54.9671 192.338C54.9671 192.338 44.9249 209.557 43.6642 228.576C42.4122 247.587 41.3316 302.485 43.4841 304.457C45.6366 306.429 78.1045 298.54 89.7675 289.391C101.431 280.241 105.916 268.399 105.916 268.399C105.916 268.399 102.331 218.166 98.5577 209.557C94.7929 200.948 81.0889 190.314 78.7562 189.423C76.4236 188.522 54.9585 192.338 54.9585 192.338H54.9671Z" fill="#FF7294" stroke="#2D2E2E" stroke-linecap="round" stroke-linejoin="round"/>
<path d="M76.6715 213.149C76.6715 213.149 71.8262 223.73 73.6185 231.808C75.4108 239.877 80.7964 276.295 82.9489 277.556C85.1015 278.808 130.853 257.825 130.853 257.825L127.088 245.622L100.178 249.927C100.178 249.927 101.43 215.13 98.5654 209.564C95.6925 203.999 94.4405 198.623 82.9575 199.875" fill="#FF7294"/>
<path d="M76.6715 213.149C76.6715 213.149 71.8262 223.73 73.6185 231.808C75.4108 239.877 80.7964 276.295 82.9489 277.556C85.1015 278.808 130.853 257.825 130.853 257.825L127.088 245.622L100.178 249.927C100.178 249.927 101.43 215.13 98.5654 209.564C95.6925 203.999 94.4405 198.623 82.9575 199.875" stroke="#2D2E2E" stroke-linecap="round" stroke-linejoin="round"/>
<path d="M90.1526 262.645C88.5747 264.565 87.1082 266.306 86.002 267.498" stroke="#2D2E2E" stroke-linecap="round" stroke-linejoin="round"/>
<path d="M100.177 249.918C100.177 249.918 95.8463 255.595 91.6699 260.774" stroke="#2D2E2E" stroke-linecap="round" stroke-linejoin="round"/>
<path d="M102.322 263.004C101.738 264.136 101.138 265.131 100.529 265.885" stroke="#2D2E2E" stroke-linecap="round" stroke-linejoin="round"/>
<path d="M107.527 248.668C107.527 248.668 105.821 255.031 103.557 260.347" stroke="#2D2E2E" stroke-linecap="round" stroke-linejoin="round"/>
<path d="M111.832 249.379C111.832 249.379 112.192 255.836 111.111 259.961" stroke="#2D2E2E" stroke-linecap="round" stroke-linejoin="round"/>
<path d="M127.089 245.615L131.394 244.895L133.186 253.512L129.953 254.944L127.089 245.615Z" fill="white" stroke="#2D2E2E" stroke-linecap="round" stroke-linejoin="round"/>
<path d="M131.395 244.894C131.395 244.894 132.441 239.8 132.621 238.926C132.827 237.931 136.454 235.093 136.96 234.312C137.715 233.155 138.881 232.169 139.996 231.38C140.708 230.874 141.531 230.394 142.423 230.239C143.066 230.136 144.49 230.128 144.704 230.968C144.773 231.234 144.241 231.766 144.104 231.929C141.625 235.118 140.125 236.773 140.656 236.491L147.183 230.539C147.183 230.539 148.263 232.692 147.543 234.664C146.822 236.636 145.21 239.689 145.21 239.689C145.21 239.689 143.058 246.146 141.265 247.758C139.473 249.37 132.93 251.548 132.93 251.548L131.403 244.885L131.395 244.894Z" fill="white" stroke="#2D2E2E" stroke-linecap="round" stroke-linejoin="round"/>
<path d="M140.657 236.49C140.657 236.49 139.439 238.36 138.805 239.792" stroke="#2D2E2E" stroke-linecap="round" stroke-linejoin="round"/>
<path d="M29.1797 301.791C29.1797 301.791 50.1217 309.311 55.4987 321.119H70.2662C70.2662 321.119 62.4794 309.002 51.2023 304.458C39.9251 299.913 29.1797 301.791 29.1797 301.791Z" fill="#2D2E2E" stroke="#2D2E2E" stroke-linecap="round" stroke-linejoin="round"/>
<path d="M35.2761 240.917C31.1683 240.334 27.3778 243.223 26.8204 247.339C25.3453 258.298 22.1895 282.806 22.1895 291.861C22.1895 303.677 25.6798 303.403 26.4859 303.403C27.292 303.403 47.9682 299.647 65.154 319.515H26.7775C25.5855 319.515 24.6164 320.484 24.6164 321.676V325.398C24.6164 326.59 25.5855 327.559 26.7775 327.559H128.152C129.867 327.559 131.093 325.895 130.57 324.266C127.62 314.979 108.745 279.607 74.5617 258.29C47.4365 241.371 44.1949 242.186 35.2761 240.917Z" fill="white" stroke="#2D2E2E" stroke-linecap="round" stroke-linejoin="round"/>
<path d="M60.0783 327.567L52.523 396.982C52.3944 397.891 53.0976 398.706 54.0152 398.706C54.7184 398.706 55.3359 398.217 55.4902 397.522L67.0418 327.559H60.0783V327.567Z" fill="white" stroke="#2D2E2E" stroke-linecap="round" stroke-linejoin="round"/>
<path d="M115.332 327.567L122.887 396.982C123.016 397.891 122.312 398.706 121.395 398.706C120.692 398.706 120.074 398.217 119.92 397.522L108.368 327.559H115.332V327.567Z" fill="white" stroke="#2D2E2E" stroke-linecap="round" stroke-linejoin="round"/>
<path d="M66.3047 331.374L67.0422 327.566H60.0787L59.5898 331.374H66.3047Z" fill="#2D2E2E" stroke="#2D2E2E" stroke-linecap="round" stroke-linejoin="round"/>
<path d="M115.82 331.374L115.331 327.566H108.359L109.105 331.374H115.82Z" fill="#2D2E2E" stroke="#2D2E2E" stroke-linecap="round" stroke-linejoin="round"/>
<path d="M94.132 146.317C94.132 146.317 98.6343 151.402 97.8282 154.292C97.0221 157.182 96.902 157.525 97.7167 158.914C98.5228 160.303 102.802 164.693 101.996 166.657C101.19 168.621 98.1798 169.778 98.1798 169.778C98.1798 169.778 98.2913 181.097 96.679 181.912C95.0582 182.718 82.812 183.07 81.7743 182.838C80.7367 182.607 78.5413 168.398 78.4212 163.433C78.3097 158.468 85.4705 143.101 87.8974 141.138C90.3244 139.174 94.1406 146.334 94.1406 146.334L94.132 146.317Z" fill="white" stroke="#2D2E2E" stroke-linecap="round" stroke-linejoin="round"/>
<path d="M81.0107 162.427L101.987 157.291" stroke="#2D2E2E" stroke-linecap="round" stroke-linejoin="round"/>
<path d="M89.8009 145.295C89.8009 145.295 90.6928 147.825 88.909 152.147C87.1167 156.469 81.0108 162.428 81.0108 162.428C81.0108 162.428 81.3109 176.877 82.503 179.716C83.695 182.545 89.8009 183.146 89.355 184.037C88.909 184.929 86.2248 191.635 72.5208 193.427C58.8081 195.219 49.1261 190.151 45.4042 185.975C41.6823 181.799 44.9583 169.88 46.1503 162.883C47.3423 155.886 49.2804 138.444 60.1545 133.53C71.0286 128.617 84.1495 133.831 85.9333 133.831C87.717 133.831 95.6153 131.447 97.4076 134.276C99.2 137.106 97.2618 144.558 94.8778 147.388C92.4937 150.218 92.1936 151.109 91.6018 150.372C91.0015 149.626 91.4561 146.942 91.4561 146.942L89.8181 145.304L89.8009 145.295Z" fill="#2D2E2E" stroke="#2D2E2E" stroke-linecap="round" stroke-linejoin="round"/>
<path d="M97.4844 155.56C97.4844 155.56 100.606 154.754 101.412 155.448C102.218 156.143 103.496 161.571 100.023 162.497" stroke="#2D2E2E" stroke-linecap="round" stroke-linejoin="round"/>
<path d="M96.9021 153.022C96.9021 153.022 94.8181 151.984 93.3174 154.642" stroke="#2D2E2E" stroke-linecap="round" stroke-linejoin="round"/>
<path d="M95.8045 161.34C96.155 161.34 96.4391 160.357 96.4391 159.144C96.4391 157.932 96.155 156.949 95.8045 156.949C95.454 156.949 95.1699 157.932 95.1699 159.144C95.1699 160.357 95.454 161.34 95.8045 161.34Z" fill="#2D2E2E"/>
<path d="M98.0597 172.77C98.0597 172.77 96.7905 173.465 93.6689 171.732" stroke="#2D2E2E" stroke-linecap="round" stroke-linejoin="round"/>
</g>
<defs>
<clipPath id="clip0_1_2642">
<rect width="444" height="400" fill="white"/>
</clipPath>
</defs>
</svg>
