<svg width="444" height="400" viewBox="0 0 444 400" fill="none" xmlns="http://www.w3.org/2000/svg">
<g clip-path="url(#clip0_1_2639)">
<path d="M295.929 17.4344C295.929 17.4344 222.942 -11.2284 153.139 29.2232C83.3353 69.6747 49.8041 152.904 20.8726 219.517C-8.04973 286.13 11.4802 355.254 66.4823 388.054C121.475 420.855 157.067 375.751 232.979 375.622C308.891 375.493 329.626 387.328 391.472 344.578C453.318 301.827 461.892 197.034 410.073 117.878C358.254 38.7222 295.938 17.4436 295.938 17.4436L295.929 17.4344Z" fill="#F5F9FE"/>
<path d="M0 393.426H438.839" stroke="#2D2E2E" stroke-miterlimit="10"/>
<path d="M386.826 349.138C388.611 349.588 392.778 348.853 392.778 348.853C392.824 348.853 391.61 346.37 391.518 346.223C390.414 344.522 387.204 341.938 384.876 342.609C383.202 343.096 382.42 344.871 382.963 346.351C383.515 347.86 385.309 348.761 386.826 349.147V349.138Z" fill="#2D2E2E"/>
<path d="M412.778 392.542C412.805 392.634 412.824 392.717 412.851 392.8L414.48 393.159C414.369 392.809 414.259 392.45 414.139 392.083C413.808 391.034 413.431 389.931 413.035 388.8C413.302 388.653 414.82 387.788 416.136 386.823C417.488 387.899 420.754 388.901 421.177 389.02C420.855 390.087 420.533 391.126 420.211 392.101C419.99 392.772 419.778 393.416 419.567 394.032L421.149 393.784C421.287 393.342 421.425 392.892 421.572 392.423C421.903 391.338 422.235 390.17 422.566 388.975C423.026 388.993 426.761 389.14 428.426 388.506C429.934 387.926 431.728 386.795 432.271 385.223C432.805 383.678 432.013 381.995 430.33 381.728C428.003 381.351 424.81 384.349 423.716 386.188C423.651 386.299 423.081 387.54 422.741 388.331C422.869 387.843 423.007 387.365 423.136 386.86C423.403 385.857 423.633 384.855 423.881 383.779C423.982 383.255 424.093 382.731 424.194 382.197C424.314 381.673 424.369 381.103 424.452 380.551C424.636 379.264 424.746 377.958 424.838 376.643C425.73 376.809 428.904 377.36 430.486 377.002C432.059 376.652 433.982 375.779 434.764 374.289C435.527 372.827 435.012 371.034 433.412 370.519C431.185 369.802 427.598 372.321 426.236 373.995C426.153 374.096 425.307 375.402 424.866 376.119C424.912 375.328 424.967 374.537 424.985 373.737C425.05 371.429 425.031 369.094 425.031 366.758C425.031 366.041 425.031 365.333 425.04 364.615C425.353 364.68 429.106 365.415 430.882 365.011C432.455 364.661 434.387 363.788 435.16 362.298C435.923 360.836 435.408 359.043 433.807 358.528C431.581 357.811 427.993 360.33 426.632 362.004C426.531 362.133 425.326 363.999 425.04 364.487C425.05 362.914 425.077 361.351 425.169 359.806C425.289 357.673 425.528 355.576 425.924 353.562C426.071 353.59 429.98 354.371 431.793 353.967C433.366 353.617 435.298 352.744 436.07 351.254C436.834 349.792 436.319 347.999 434.718 347.484C432.492 346.767 428.904 349.286 427.543 350.96C427.432 351.089 426.135 353.102 425.924 353.479C425.951 353.36 425.96 353.231 425.979 353.112C426.42 350.96 427.129 348.909 427.883 347.015C428.315 345.911 428.803 344.882 429.29 343.888C429.999 344.109 433.255 345.075 434.911 344.882C436.503 344.698 438.508 344.036 439.446 342.619C440.366 341.24 440.063 339.392 438.545 338.702C436.429 337.746 432.602 339.888 431.066 341.415C430.983 341.498 430.229 342.426 429.686 343.116C429.916 342.665 430.137 342.206 430.367 341.783C431.213 340.192 432.087 338.776 432.869 337.525C433.32 336.817 433.743 336.192 434.148 335.603C434.985 335.456 438.342 334.84 439.741 333.948C441.111 333.074 442.629 331.612 442.813 329.985C442.997 328.385 441.838 326.932 440.118 327.024C437.726 327.143 435.233 330.693 434.562 332.697C434.506 332.872 433.908 335.649 433.954 335.649C433.954 335.649 433.991 335.649 434 335.649C433.605 336.21 433.182 336.808 432.74 337.479C431.931 338.711 431.02 340.118 430.137 341.7C429.244 343.282 428.325 345.019 427.524 346.932C426.715 348.845 425.96 350.886 425.464 353.075C425.464 353.102 425.464 353.13 425.445 353.148C425.39 352.477 425.169 350.61 425.132 350.472C424.654 348.495 422.501 345.01 420.119 344.955C418.399 344.918 417.101 346.408 417.129 347.999C417.157 349.626 418.537 351.052 419.824 351.879C421.278 352.817 425.096 353.351 425.399 353.397C424.939 355.484 424.645 357.645 424.47 359.852C424.369 361.112 424.304 362.381 424.258 363.65C424.194 363.07 424.12 362.556 424.111 362.482C423.633 360.505 421.48 357.02 419.098 356.965C417.377 356.928 416.08 358.417 416.108 360.008C416.136 361.636 417.515 363.061 418.803 363.889C420.11 364.735 423.357 365.25 424.212 365.379C424.203 365.866 424.185 366.353 424.176 366.841C424.13 369.176 424.084 371.512 423.973 373.802C423.936 374.611 423.863 375.402 423.799 376.202C423.734 375.687 423.679 375.255 423.67 375.19C423.191 373.213 421.039 369.728 418.656 369.673C416.936 369.636 415.639 371.126 415.666 372.717C415.694 374.344 417.074 375.77 418.362 376.597C419.613 377.406 422.593 377.912 423.615 378.059C423.523 378.878 423.431 379.687 423.302 380.478C423.201 381.011 423.145 381.535 423.017 382.069C422.897 382.602 422.787 383.126 422.667 383.65C422.409 384.653 422.143 385.682 421.867 386.648C421.673 387.329 421.48 387.963 421.296 388.616C421.342 387.816 421.407 386.234 421.397 386.105C421.287 384.745 420.56 382.62 419.41 381.223C419.392 381.02 419.364 380.827 419.309 380.634C418.886 379.117 417.239 378.197 415.63 378.878C413.394 379.825 412.327 383.926 412.428 385.977C412.428 386.096 412.649 387.393 412.805 388.211C412.64 387.752 412.483 387.301 412.309 386.823C411.968 385.885 411.6 384.956 411.205 383.963C410.993 383.485 410.782 383.007 410.57 382.528C410.368 382.041 410.092 381.563 409.852 381.066C409.273 379.944 408.629 378.832 407.957 377.737C408.822 377.397 411.895 376.137 413.063 375.006C414.222 373.885 415.409 372.156 415.225 370.547C415.05 368.965 413.587 367.806 411.895 368.248C409.558 368.864 407.875 372.799 407.654 374.868C407.645 374.997 407.654 376.487 407.672 377.305C407.258 376.643 406.854 375.99 406.412 375.337C405.143 373.452 403.799 371.595 402.466 369.728C402.061 369.158 401.656 368.588 401.251 368.009C401.564 367.889 405.244 366.464 406.55 365.204C407.709 364.082 408.896 362.353 408.712 360.744C408.537 359.162 407.074 358.004 405.391 358.445C403.054 359.061 401.371 362.997 401.15 365.066C401.132 365.222 401.15 367.365 401.187 367.907C400.304 366.648 399.43 365.379 398.629 364.091C397.516 362.316 396.532 360.514 395.713 358.693C395.86 358.638 399.706 357.167 401.04 355.87C402.199 354.748 403.385 353.02 403.201 351.41C403.027 349.829 401.564 348.67 399.871 349.112C397.535 349.728 395.851 353.663 395.631 355.732C395.612 355.898 395.63 358.197 395.667 358.611C395.621 358.5 395.557 358.399 395.511 358.289C394.665 356.33 394.103 354.316 393.68 352.394C393.432 351.282 393.257 350.197 393.11 349.139C393.846 348.937 397.222 347.962 398.556 346.923C399.835 345.921 401.196 344.321 401.196 342.693C401.196 341.093 399.89 339.778 398.179 340.045C395.796 340.412 393.689 344.173 393.239 346.215C393.211 346.325 393.092 347.475 393.009 348.312C392.954 347.833 392.88 347.337 392.834 346.877C392.659 345.148 392.613 343.548 392.576 342.132C392.567 341.323 392.576 340.596 392.586 339.907C393.23 339.346 395.787 337.056 396.495 335.585C397.185 334.159 397.673 332.173 396.9 330.766C396.146 329.387 394.315 328.844 392.871 329.838C390.865 331.217 390.727 335.392 391.288 337.35C391.334 337.516 392.411 340.063 392.448 340.035C392.448 340.035 392.475 340.008 392.484 339.999C392.457 340.661 392.438 341.36 392.429 342.132C392.429 343.557 392.438 345.167 392.576 346.905C392.705 348.643 392.898 350.528 393.294 352.486C393.68 354.445 394.195 356.486 395.014 358.5C395.023 358.519 395.033 358.546 395.042 358.565C394.609 358.059 393.349 356.68 393.239 356.588C391.693 355.263 387.83 353.627 385.732 354.859C384.223 355.751 383.948 357.636 384.877 358.896C385.833 360.183 387.839 360.578 389.43 360.56C391.224 360.532 394.849 358.914 395.134 358.785C395.925 360.698 396.909 362.592 398.013 364.441C398.639 365.498 399.31 366.546 400 367.586C399.614 367.163 399.255 366.786 399.2 366.74C397.654 365.415 393.791 363.779 391.693 365.011C390.185 365.903 389.909 367.788 390.838 369.048C391.794 370.335 393.8 370.73 395.391 370.712C397.01 370.684 400.12 369.369 400.938 369.011C401.205 369.406 401.472 369.802 401.739 370.197C403.027 372.091 404.324 373.976 405.538 375.871C405.961 376.533 406.357 377.213 406.762 377.885C406.412 377.508 406.118 377.195 406.072 377.149C404.526 375.825 400.662 374.188 398.565 375.42C397.056 376.312 396.78 378.197 397.71 379.457C398.666 380.744 400.672 381.14 402.263 381.121C403.809 381.094 406.688 379.908 407.663 379.485C408.049 380.184 408.436 380.892 408.776 381.59C408.997 382.069 409.245 382.519 409.439 383.016C409.641 383.503 409.843 383.991 410.036 384.469C410.377 385.407 410.745 386.372 411.058 387.301C411.278 387.945 411.481 388.561 411.683 389.177C411.269 388.506 410.423 387.218 410.34 387.117C409.034 385.563 405.51 383.365 403.266 384.294C401.647 384.956 401.086 386.804 401.803 388.193C402.539 389.618 404.443 390.308 406.007 390.519C407.727 390.749 411.38 389.729 411.84 389.6C412.171 390.63 412.483 391.632 412.759 392.579L412.778 392.542Z" fill="#2D2E2E"/>
<path d="M429.161 343.458C429.161 343.458 429.648 340.671 429.658 340.497C429.74 338.428 428.655 334.464 426.41 333.802C424.791 333.324 423.154 334.455 422.749 336.027C422.335 337.637 423.246 339.384 424.239 340.524C425.408 341.867 429.161 343.458 429.161 343.458Z" fill="#2D2E2E"/>
<path d="M4.77438 368.395C5.7955 368.652 8.16889 368.229 8.16889 368.229C8.19649 368.229 7.49735 366.813 7.45135 366.721C6.81661 365.747 4.98597 364.275 3.66128 364.652C2.70456 364.928 2.263 365.949 2.56657 366.786C2.87935 367.65 3.90966 368.165 4.77438 368.386V368.395Z" fill="#2D2E2E"/>
<path d="M19.594 393.187C19.6124 393.242 19.6216 393.288 19.64 393.334L20.5691 393.536C20.5047 393.334 20.4403 393.131 20.3759 392.92C20.1827 392.322 19.9711 391.688 19.7412 391.044C19.8975 390.961 20.7623 390.465 21.5166 389.913C22.2893 390.529 24.1568 391.099 24.396 391.173C24.212 391.78 24.028 392.377 23.844 392.929C23.7152 393.315 23.5956 393.683 23.476 394.033L24.3776 393.895C24.4604 393.637 24.534 393.38 24.6167 393.113C24.8099 392.497 24.9939 391.826 25.1871 391.145C25.4447 391.154 27.5789 391.237 28.5356 390.878C29.4003 390.547 30.4214 389.904 30.7342 389.003C31.0378 388.12 30.587 387.163 29.6303 387.007C28.2964 386.796 26.475 388.506 25.8494 389.554C25.8126 389.619 25.4907 390.327 25.2883 390.777C25.3619 390.501 25.4355 390.226 25.5183 389.94C25.6655 389.37 25.8034 388.8 25.9506 388.184C26.0058 387.881 26.0702 387.586 26.1346 387.283C26.199 386.98 26.2358 386.658 26.2818 386.345C26.383 385.609 26.4474 384.865 26.5026 384.11C27.0085 384.202 28.8208 384.515 29.7223 384.313C30.6238 384.11 31.7185 383.614 32.1693 382.759C32.6017 381.922 32.3165 380.901 31.3966 380.607C30.1271 380.193 28.0756 381.637 27.3029 382.593C27.2569 382.648 26.7786 383.393 26.521 383.807C26.5486 383.356 26.5762 382.906 26.5854 382.446C26.6222 381.122 26.613 379.789 26.613 378.455C26.613 378.051 26.613 377.637 26.613 377.232C26.797 377.269 28.9404 377.683 29.9523 377.462C30.8538 377.26 31.9485 376.763 32.3993 375.908C32.8316 375.071 32.5465 374.05 31.6265 373.756C30.3571 373.342 28.3056 374.786 27.5329 375.742C27.4777 375.816 26.7878 376.883 26.6222 377.159C26.6222 376.257 26.6406 375.365 26.6958 374.483C26.7694 373.269 26.9073 372.064 27.1281 370.915C27.2109 370.933 29.4463 371.375 30.4858 371.145C31.3874 370.942 32.4821 370.446 32.9328 369.591C33.3652 368.754 33.08 367.733 32.1601 367.439C30.8906 367.025 28.8392 368.469 28.0664 369.425C28.0021 369.499 27.2661 370.648 27.1465 370.869C27.1557 370.804 27.1649 370.731 27.1833 370.657C27.4317 369.425 27.8365 368.257 28.2688 367.172C28.5172 366.547 28.7932 365.949 29.0692 365.388C29.4739 365.517 31.3322 366.069 32.2797 365.958C33.1904 365.848 34.3311 365.471 34.8647 364.671C35.389 363.88 35.2142 362.823 34.3495 362.436C33.1444 361.894 30.955 363.108 30.0811 363.981C30.0351 364.027 29.6027 364.561 29.2899 364.956C29.4187 364.699 29.5475 364.432 29.6763 364.193C30.1639 363.282 30.6606 362.473 31.1114 361.765C31.369 361.361 31.6081 361.002 31.8381 360.662C32.3165 360.579 34.2299 360.22 35.0303 359.714C35.8122 359.218 36.6769 358.381 36.7873 357.452C36.8885 356.542 36.2262 355.705 35.251 355.76C33.8895 355.834 32.4637 357.857 32.0773 358.997C32.0405 359.098 31.7001 360.689 31.7277 360.68H31.7553C31.5254 361.002 31.2862 361.342 31.0378 361.719C30.5778 362.427 30.0535 363.227 29.5475 364.128C29.0416 365.03 28.5172 366.023 28.0572 367.117C27.5973 368.211 27.1649 369.379 26.8797 370.621C26.8797 370.639 26.8797 370.648 26.8797 370.666C26.843 370.28 26.7234 369.214 26.6958 369.14C26.4198 368.009 25.1963 366.023 23.8348 365.986C22.8505 365.968 22.1146 366.814 22.133 367.724C22.1514 368.653 22.9333 369.462 23.6692 369.94C24.4972 370.473 26.6774 370.777 26.8522 370.804C26.5946 372 26.4198 373.232 26.3186 374.492C26.2634 375.209 26.2266 375.936 26.199 376.662C26.1622 376.331 26.1254 376.037 26.1162 376C25.8402 374.869 24.6167 372.883 23.2553 372.846C22.2709 372.827 21.535 373.673 21.5534 374.584C21.5718 375.513 22.3537 376.322 23.0897 376.8C23.8348 377.278 25.6839 377.582 26.1806 377.646C26.1806 377.922 26.1622 378.207 26.1622 378.483C26.1346 379.816 26.1162 381.149 26.0518 382.455C26.0334 382.915 25.9874 383.375 25.9506 383.825C25.9138 383.531 25.8862 383.283 25.877 383.246C25.6011 382.115 24.3776 380.129 23.0161 380.092C22.0318 380.074 21.2958 380.92 21.3142 381.83C21.3326 382.759 22.1146 383.568 22.8505 384.046C23.5588 384.506 25.2699 384.791 25.8494 384.883C25.7942 385.352 25.7482 385.812 25.6747 386.262C25.6195 386.566 25.5827 386.869 25.5091 387.173C25.4447 387.476 25.3711 387.78 25.3067 388.074C25.1595 388.644 25.0123 389.232 24.8467 389.784C24.7363 390.17 24.6259 390.538 24.5156 390.906C24.5431 390.446 24.5799 389.545 24.5707 389.472C24.5064 388.699 24.0924 387.476 23.43 386.685C23.43 386.575 23.4024 386.455 23.3748 386.345C23.1357 385.481 22.1973 384.947 21.2774 385.343C19.9987 385.885 19.3916 388.23 19.456 389.398C19.456 389.472 19.5848 390.207 19.6676 390.676C19.5756 390.409 19.4836 390.152 19.3824 389.885C19.1892 389.352 18.9776 388.819 18.7476 388.248C18.6281 387.982 18.5085 387.706 18.3889 387.43C18.2785 387.154 18.1129 386.878 17.9841 386.593C17.6529 385.95 17.285 385.315 16.8986 384.69C17.3954 384.497 19.1524 383.77 19.8148 383.127C20.4771 382.483 21.1486 381.499 21.0474 380.579C20.9463 379.678 20.1091 379.016 19.1524 379.264C17.8185 379.614 16.8526 381.867 16.7238 383.044C16.7238 383.117 16.7238 383.963 16.733 384.432C16.4938 384.055 16.2639 383.678 16.0155 383.31C15.2887 382.235 14.5252 381.177 13.7617 380.11C13.5317 379.789 13.3017 379.457 13.0717 379.126C13.2465 379.062 15.3531 378.244 16.0983 377.526C16.7606 376.883 17.4322 375.899 17.331 374.979C17.2298 374.078 16.3926 373.416 15.4359 373.664C14.102 374.014 13.1361 376.267 13.0073 377.444C12.9981 377.536 13.0073 378.759 13.0257 379.062C12.5198 378.345 12.023 377.618 11.5631 376.883C10.9283 375.871 10.3672 374.841 9.89801 373.802C9.9808 373.775 12.1794 372.929 12.9429 372.193C13.6053 371.549 14.2768 370.565 14.1756 369.646C14.0744 368.745 13.2373 368.083 12.2806 368.331C10.9467 368.68 9.9808 370.933 9.86121 372.11C9.85201 372.202 9.86121 373.517 9.87961 373.756C9.85201 373.692 9.81521 373.637 9.78761 373.572C9.30926 372.45 8.98728 371.301 8.7389 370.207C8.60092 369.572 8.49972 368.956 8.41693 368.349C8.8401 368.23 10.7719 367.678 11.5263 367.08C12.253 366.51 13.0349 365.591 13.0349 364.662C13.0349 363.751 12.2898 362.997 11.3055 363.144C9.944 363.356 8.7389 365.499 8.48133 366.666C8.46293 366.731 8.39853 367.384 8.35254 367.862C8.31574 367.586 8.27894 367.31 8.25135 367.043C8.15015 366.059 8.12256 365.14 8.10416 364.331C8.10416 363.871 8.10416 363.448 8.10416 363.062C8.47213 362.74 9.9348 361.434 10.3396 360.597C10.7351 359.779 11.0111 358.648 10.5695 357.848C10.1372 357.066 9.08847 356.754 8.26974 357.314C7.11984 358.105 7.04625 360.487 7.36822 361.6C7.39582 361.692 8.01217 363.154 8.03056 363.135L8.04896 363.117C8.03056 363.494 8.02137 363.899 8.02137 364.34C8.02137 365.149 8.02137 366.069 8.10416 367.062C8.17775 368.055 8.28814 369.131 8.50892 370.253C8.7297 371.375 9.02408 372.533 9.49324 373.692C9.49324 373.701 9.50244 373.719 9.51164 373.729C9.26326 373.444 8.54572 372.653 8.48133 372.598C7.5982 371.844 5.39039 370.906 4.19449 371.614C3.32977 372.119 3.17338 373.195 3.70694 373.922C4.24969 374.657 5.39959 374.887 6.31031 374.869C7.34062 374.85 9.40125 373.931 9.56683 373.857C10.0176 374.952 10.5787 376.028 11.2135 377.085C11.5723 377.692 11.9586 378.29 12.345 378.887C12.1242 378.648 11.9218 378.428 11.8942 378.4C11.0111 377.646 8.8033 376.708 7.6074 377.416C6.74268 377.922 6.58629 378.998 7.11984 379.724C7.6626 380.46 8.8125 380.69 9.72322 380.671C10.6431 380.662 12.4278 379.908 12.8877 379.697C13.0441 379.926 13.1913 380.147 13.3477 380.377C14.0836 381.462 14.8288 382.538 15.5187 383.614C15.7671 383.991 15.9879 384.377 16.2179 384.763C16.0247 384.552 15.8499 384.368 15.8223 384.34C14.9392 383.586 12.7314 382.648 11.5355 383.356C10.6707 383.862 10.5144 384.938 11.0479 385.665C11.5907 386.4 12.7406 386.63 13.6513 386.612C14.5344 386.602 16.1811 385.913 16.733 385.674C16.9538 386.078 17.1746 386.474 17.3678 386.878C17.4966 387.154 17.6345 387.412 17.7449 387.697C17.8645 387.973 17.9749 388.249 18.0853 388.524C18.2785 389.058 18.4901 389.609 18.6649 390.143C18.7936 390.511 18.904 390.86 19.0236 391.219C18.7844 390.832 18.3061 390.097 18.2509 390.042C17.5058 389.159 15.4911 387.899 14.2124 388.423C13.2833 388.8 12.9613 389.858 13.3753 390.649C13.7893 391.467 14.884 391.862 15.7763 391.982C16.7606 392.111 18.8488 391.531 19.1064 391.458C19.2996 392.046 19.4744 392.616 19.6308 393.159L19.594 393.187Z" fill="#2D2E2E"/>
<path d="M28.9492 365.148C28.9492 365.148 29.2252 363.557 29.2344 363.456C29.2804 362.279 28.664 360.007 27.3761 359.63C26.4562 359.354 25.5179 360.007 25.2879 360.899C25.0487 361.819 25.5731 362.812 26.1434 363.465C26.8058 364.237 28.9584 365.138 28.9584 365.138L28.9492 365.148Z" fill="#2D2E2E"/>
<path d="M42.1381 96.355C48.9619 91.7368 50.7484 82.4633 46.1283 75.6422C41.5082 68.8211 32.2312 67.0353 25.4073 71.6535C18.5835 76.2718 16.7971 85.5452 21.4171 92.3664C26.0372 99.1875 35.3143 100.973 42.1381 96.355Z" stroke="#2D2E2E" stroke-miterlimit="10"/>
<path d="M39.0693 82.2993C39.0693 85.2235 36.7051 87.5868 33.7798 87.5868C30.8544 87.5868 28.4902 85.2235 28.4902 82.2993C28.4902 79.3751 30.8544 77.0118 33.7798 77.0118C36.7051 77.0118 39.0693 79.3751 39.0693 82.2993Z" stroke="#2D2E2E" stroke-miterlimit="10"/>
<path d="M33.7704 98.9262C37.1465 98.9262 40.2467 97.7951 42.7489 95.91C42.0313 91.5973 38.2872 88.3145 33.7704 88.3145C29.2536 88.3145 25.5187 91.6065 24.792 95.91C27.2942 97.7951 30.3943 98.9262 33.7704 98.9262Z" stroke="#2D2E2E" stroke-miterlimit="10"/>
<path d="M33.7707 136.37C42.0114 136.37 48.6919 129.692 48.6919 121.454C48.6919 113.217 42.0114 106.539 33.7707 106.539C25.53 106.539 18.8496 113.217 18.8496 121.454C18.8496 129.692 25.53 136.37 33.7707 136.37Z" stroke="#2D2E2E" stroke-miterlimit="10"/>
<path d="M39.0693 119.762C39.0693 122.686 36.7051 125.05 33.7798 125.05C30.8544 125.05 28.4902 122.686 28.4902 119.762C28.4902 116.838 30.8544 114.475 33.7798 114.475C36.7051 114.475 39.0693 116.838 39.0693 119.762Z" stroke="#2D2E2E" stroke-miterlimit="10"/>
<path d="M33.7714 136.379C37.1475 136.379 40.2476 135.248 42.7498 133.363C42.0323 129.05 38.2882 125.768 33.7714 125.768C29.2546 125.768 25.5197 129.06 24.793 133.363C27.2952 135.248 30.3953 136.379 33.7714 136.379Z" stroke="#2D2E2E" stroke-miterlimit="10"/>
<path d="M33.7707 173.834C42.0114 173.834 48.6919 167.157 48.6919 158.919C48.6919 150.682 42.0114 144.004 33.7707 144.004C25.53 144.004 18.8496 150.682 18.8496 158.919C18.8496 167.157 25.53 173.834 33.7707 173.834Z" stroke="#2D2E2E" stroke-miterlimit="10"/>
<path d="M39.0693 157.217C39.0693 160.141 36.7051 162.505 33.7798 162.505C30.8544 162.505 28.4902 160.141 28.4902 157.217C28.4902 154.293 30.8544 151.93 33.7798 151.93C36.7051 151.93 39.0693 154.293 39.0693 157.217Z" stroke="#2D2E2E" stroke-miterlimit="10"/>
<path d="M33.7704 173.834C37.1465 173.834 40.2467 172.703 42.7489 170.818C42.0313 166.505 38.2872 163.223 33.7704 163.223C29.2536 163.223 25.5187 166.515 24.792 170.818C27.2942 172.703 30.3943 173.834 33.7704 173.834Z" stroke="#2D2E2E" stroke-miterlimit="10"/>
<path d="M42.1381 208.724C48.9619 204.106 50.7484 194.832 46.1283 188.011C41.5082 181.19 32.2312 179.404 25.4073 184.023C18.5835 188.641 16.7971 197.914 21.4171 204.736C26.0372 211.557 35.3143 213.342 42.1381 208.724Z" stroke="#2D2E2E" stroke-miterlimit="10"/>
<path d="M39.0693 194.67C39.0693 197.595 36.7051 199.958 33.7798 199.958C30.8544 199.958 28.4902 197.595 28.4902 194.67C28.4902 191.746 30.8544 189.383 33.7798 189.383C36.7051 189.383 39.0693 191.746 39.0693 194.67Z" stroke="#2D2E2E" stroke-miterlimit="10"/>
<path d="M33.7704 211.288C37.1465 211.288 40.2467 210.156 42.7489 208.271C42.0313 203.959 38.2872 200.676 33.7704 200.676C29.2536 200.676 25.5187 203.968 24.792 208.271C27.2942 210.156 30.3943 211.288 33.7704 211.288Z" stroke="#2D2E2E" stroke-miterlimit="10"/>
<path d="M417.083 52.6699H353.204V56.9643H417.083V52.6699Z" stroke="#2D2E2E" stroke-miterlimit="10"/>
<path d="M384.822 61.2678H353.204V65.5622H384.822V61.2678Z" stroke="#2D2E2E" stroke-miterlimit="10"/>
<path d="M396.404 69.8672H353.204V74.1615H396.404V69.8672Z" stroke="#2D2E2E" stroke-miterlimit="10"/>
<path d="M379.854 78.4648H353.204V82.7592H379.854V78.4648Z" stroke="#2D2E2E" stroke-miterlimit="10"/>
<path d="M402.135 87.0527H353.204V91.3471H402.135V87.0527Z" stroke="#2D2E2E" stroke-miterlimit="10"/>
<path d="M387.177 95.6503H353.204V99.9446H387.177V95.6503Z" stroke="#2D2E2E" stroke-miterlimit="10"/>
<path d="M391.307 104.248H353.204V108.543H391.307V104.248Z" stroke="#2D2E2E" stroke-miterlimit="10"/>
<path d="M353.766 44.5039H385.908" stroke="#2D2E2E" stroke-miterlimit="10"/>
<path d="M353.766 39.0977H385.908" stroke="#2D2E2E" stroke-miterlimit="10"/>
<path d="M149.027 63.3202L185.364 0.458984H194.214" stroke="#2D2E2E" stroke-miterlimit="10"/>
<path d="M202.595 0.927734H224.958" stroke="#2D2E2E" stroke-miterlimit="10"/>
<path d="M202.595 6.50977H224.958" stroke="#2D2E2E" stroke-miterlimit="10"/>
<path d="M202.595 12.0996H224.958" stroke="#2D2E2E" stroke-miterlimit="10"/>
<path d="M215.363 304.281H288.423" stroke="#2D2E2E" stroke-miterlimit="10"/>
<path d="M211.352 301.164H206.458V306.056H211.352V301.164Z" fill="#0C93F4"/>
<path d="M215.363 314.957H288.423" stroke="#2D2E2E" stroke-miterlimit="10"/>
<path d="M211.352 311.84H206.458V316.732H211.352V311.84Z" fill="#0C93F4"/>
<path d="M215.363 325.643H288.423" stroke="#2D2E2E" stroke-miterlimit="10"/>
<path d="M211.352 322.516H206.458V327.408H211.352V322.516Z" fill="#0C93F4"/>
<path d="M215.363 336.318H288.423" stroke="#2D2E2E" stroke-miterlimit="10"/>
<path d="M211.352 333.191H206.458V338.083H211.352V333.191Z" fill="#0C93F4"/>
<path d="M329.424 244.869H150.039V356.09H329.424V244.869Z" stroke="#2D2E2E" stroke-miterlimit="10"/>
<path d="M329.424 244.869H150.039V253.807H329.424V244.869Z" stroke="#2D2E2E" stroke-miterlimit="10"/>
<path d="M197.037 254.432V355.142" stroke="#2D2E2E" stroke-miterlimit="10"/>
<path d="M221.048 292.833C229.598 292.833 236.53 285.904 236.53 277.357C236.53 268.81 229.598 261.881 221.048 261.881C212.497 261.881 205.565 268.81 205.565 277.357C205.565 285.904 212.497 292.833 221.048 292.833Z" stroke="#2D2E2E" stroke-miterlimit="10"/>
<path d="M226.531 275.591C226.531 278.617 224.075 281.081 221.039 281.081C218.003 281.081 215.547 278.626 215.547 275.591C215.547 272.557 218.003 270.102 221.039 270.102C224.075 270.102 226.531 272.557 226.531 275.591Z" stroke="#2D2E2E" stroke-miterlimit="10"/>
<path d="M221.048 292.833C224.553 292.833 227.763 291.656 230.358 289.697C229.612 285.228 225.73 281.817 221.048 281.817C216.366 281.817 212.483 285.228 211.738 289.697C214.333 291.656 217.552 292.833 221.048 292.833Z" stroke="#2D2E2E" stroke-miterlimit="10"/>
<path d="M173.903 283.674C178.018 283.674 181.354 280.339 181.354 276.226C181.354 272.112 178.018 268.777 173.903 268.777C169.787 268.777 166.451 272.112 166.451 276.226C166.451 280.339 169.787 283.674 173.903 283.674Z" stroke="#2D2E2E" stroke-miterlimit="10"/>
<path d="M176.542 275.372C176.542 276.824 175.365 278.011 173.902 278.011C172.439 278.011 171.262 276.834 171.262 275.372C171.262 273.909 172.439 272.732 173.902 272.732C175.365 272.732 176.542 273.909 176.542 275.372Z" stroke="#2D2E2E" stroke-miterlimit="10"/>
<path d="M173.902 283.666C175.585 283.666 177.131 283.105 178.382 282.158C178.023 280.006 176.156 278.369 173.902 278.369C171.648 278.369 169.781 280.006 169.422 282.158C170.673 283.096 172.218 283.666 173.902 283.666Z" stroke="#2D2E2E" stroke-miterlimit="10"/>
<path d="M173.903 314.848C178.018 314.848 181.354 311.513 181.354 307.4C181.354 303.286 178.018 299.951 173.903 299.951C169.787 299.951 166.451 303.286 166.451 307.4C166.451 311.513 169.787 314.848 173.903 314.848Z" stroke="#2D2E2E" stroke-miterlimit="10"/>
<path d="M176.542 306.545C176.542 307.998 175.365 309.185 173.902 309.185C172.439 309.185 171.262 308.007 171.262 306.545C171.262 305.083 172.439 303.906 173.902 303.906C175.365 303.906 176.542 305.083 176.542 306.545Z" stroke="#2D2E2E" stroke-miterlimit="10"/>
<path d="M173.902 314.84C175.585 314.84 177.131 314.279 178.382 313.332C178.023 311.18 176.156 309.543 173.902 309.543C171.648 309.543 169.781 311.18 169.422 313.332C170.673 314.27 172.218 314.84 173.902 314.84Z" stroke="#2D2E2E" stroke-miterlimit="10"/>
<path d="M173.903 346.02C178.018 346.02 181.354 342.685 181.354 338.571C181.354 334.458 178.018 331.123 173.903 331.123C169.787 331.123 166.451 334.458 166.451 338.571C166.451 342.685 169.787 346.02 173.903 346.02Z" stroke="#2D2E2E" stroke-miterlimit="10"/>
<path d="M176.542 337.725C176.542 339.178 175.365 340.364 173.902 340.364C172.439 340.364 171.262 339.187 171.262 337.725C171.262 336.263 172.439 335.086 173.902 335.086C175.365 335.086 176.542 336.263 176.542 337.725Z" stroke="#2D2E2E" stroke-miterlimit="10"/>
<path d="M173.902 346.012C175.585 346.012 177.131 345.451 178.382 344.503C178.023 342.352 176.156 340.715 173.902 340.715C171.648 340.715 169.781 342.352 169.422 344.503C170.673 345.441 172.218 346.012 173.902 346.012Z" stroke="#2D2E2E" stroke-miterlimit="10"/>
<path d="M244.865 268.539H284.063" stroke="#2D2E2E" stroke-miterlimit="10"/>
<path d="M244.865 277.551H284.063" stroke="#2D2E2E" stroke-miterlimit="10"/>
<path d="M244.865 286.562H284.063" stroke="#2D2E2E" stroke-miterlimit="10"/>
<path d="M332.404 31.9102H209.125V213.57H332.404V31.9102Z" stroke="#2D2E2E" stroke-miterlimit="10"/>
<path d="M267.641 128.427C289.447 128.427 307.124 110.757 307.124 88.9598C307.124 67.1624 289.447 49.4922 267.641 49.4922C245.835 49.4922 228.158 67.1624 228.158 88.9598C228.158 110.757 245.835 128.427 267.641 128.427Z" fill="white" stroke="#2D2E2E" stroke-miterlimit="10"/>
<path d="M226.75 141.154H309.938" stroke="#2D2E2E" stroke-miterlimit="10"/>
<path d="M226.75 149.605H309.938" stroke="#2D2E2E" stroke-miterlimit="10"/>
<path d="M236.879 163.85H309.939" stroke="#2D2E2E" stroke-miterlimit="10"/>
<path d="M232.869 160.723H227.975V165.615H232.869V160.723Z" fill="#0C93F4"/>
<path d="M236.879 174.525H309.939" stroke="#2D2E2E" stroke-miterlimit="10"/>
<path d="M232.869 171.398H227.975V176.291H232.869V171.398Z" fill="#0C93F4"/>
<path d="M236.88 185.201H309.94" stroke="#2D2E2E" stroke-miterlimit="10"/>
<path d="M232.869 182.084H227.975V186.976H232.869V182.084Z" fill="#0C93F4"/>
<path d="M236.88 195.877H309.94" stroke="#2D2E2E" stroke-miterlimit="10"/>
<path d="M232.869 192.76H227.975V197.652H232.869V192.76Z" fill="#0C93F4"/>
<path d="M258.911 62.7786C258.911 62.7786 264.072 53.9324 275.498 54.3002C286.923 54.668 289.692 67.1925 289.324 70.8799C288.956 74.5674 287.668 76.9582 287.668 76.9582L282.691 72.719C282.691 72.719 287.705 77.3628 290.474 84.7285C293.243 92.0942 291.909 101.639 288.404 103.855C284.899 106.072 282.507 105.143 282.507 105.143L282.875 100.168C282.875 100.168 279.554 106.062 274.026 107.166C268.497 108.269 252.647 109.005 250.255 106.246C247.863 103.488 247.302 100.352 247.302 100.352L246.934 105.143C246.934 105.143 241.957 101.455 241.773 97.2254C241.589 92.9862 244.165 87.0918 245.462 83.9653C246.75 80.8296 247.67 79.1744 248.038 74.3834C248.406 69.5925 247.854 67.0178 251.175 63.8821C254.496 60.7464 258.911 62.7786 258.911 62.7786Z" fill="#2D2E2E" stroke="#2D2E2E" stroke-linecap="round" stroke-linejoin="round"/>
<path d="M251.212 113.014C248.148 114.329 243.208 115.497 239.851 116.996C246.98 124.058 256.796 128.426 267.632 128.426C278.469 128.426 288.156 124.113 295.285 117.125C294.42 116.674 293.169 116.177 291.247 115.644C285.341 114.007 276.96 109.207 275.976 107.57C274.992 105.933 274.016 100.177 274.016 100.177L260.374 98.3379C260.374 98.3379 261.046 105.474 261.046 106.789C261.046 108.104 255.793 111.055 251.202 113.023L251.212 113.014Z" fill="white" stroke="#2D2E2E" stroke-linecap="round" stroke-linejoin="round"/>
<path d="M256.879 82.4844C256.879 82.4844 257.983 74.1899 260.568 69.776C263.143 65.3529 268.672 66.6403 270.889 68.1208C273.097 69.5921 276.602 77.5188 278.626 82.6775C280.649 87.8362 281.579 90.7788 281.579 90.7788C281.579 90.7788 278.368 97.4824 274.026 100.177C269.39 103.046 264.348 102.935 260.384 98.3376C258.167 95.7628 257.063 92.995 257.063 92.995C257.063 92.995 252.454 91.5237 251.35 87.6523C250.246 83.781 251.166 81.7579 253.006 81.2062C254.846 80.6545 256.879 82.4936 256.879 82.4936V82.4844Z" fill="white" stroke="#2D2E2E" stroke-linecap="round" stroke-linejoin="round"/>
<path d="M271.256 79.7266C271.256 79.7266 271.072 82.4944 272.544 84.5175C274.016 86.5405 272.728 88.7567 270.152 88.2049" stroke="#2D2E2E" stroke-linecap="round" stroke-linejoin="round"/>
<path d="M272.545 91.5144C272.545 91.5144 266.28 94.4662 263.327 88.5626" stroke="#2D2E2E" stroke-linecap="round" stroke-linejoin="round"/>
<path d="M264.439 82.6686C264.439 83.487 264.771 84.1399 265.175 84.1399C265.58 84.1399 265.911 83.4778 265.911 82.6686C265.911 81.8593 265.58 81.1973 265.175 81.1973C264.771 81.1973 264.439 81.8593 264.439 82.6686Z" fill="#2D2E2E"/>
<path d="M273.474 82.6686C273.474 83.487 273.805 84.1399 274.21 84.1399C274.614 84.1399 274.946 83.4778 274.946 82.6686C274.946 81.8593 274.614 81.1973 274.21 81.1973C273.805 81.1973 273.474 81.8593 273.474 82.6686Z" fill="#2D2E2E"/>
<path d="M266.648 76.2217C266.648 76.2217 264.624 74.7504 262.407 76.7735" stroke="#2D2E2E" stroke-linecap="round" stroke-linejoin="round"/>
<path d="M271.992 76.59C271.992 76.59 273.464 74.9347 275.497 75.8543" stroke="#2D2E2E" stroke-linecap="round" stroke-linejoin="round"/>
<path d="M282.525 112.001L268.23 125.547L254.376 111.551C253.336 112.066 252.26 112.562 251.22 113.013C248.157 114.328 243.217 115.496 239.859 116.995C246.989 124.057 256.804 128.425 267.641 128.425C278.478 128.425 288.164 124.112 295.294 117.123C294.429 116.673 293.178 116.176 291.255 115.643C288.551 114.889 285.322 113.473 282.525 112.001Z" fill="#0C93F4" stroke="#2D2E2E" stroke-miterlimit="10"/>
<path d="M190.414 31.9102H67.1357V213.57H190.414V31.9102Z" stroke="#2D2E2E" stroke-miterlimit="10"/>
<path d="M84.7617 141.154H167.959" stroke="#2D2E2E" stroke-miterlimit="10"/>
<path d="M84.7617 149.605H167.959" stroke="#2D2E2E" stroke-miterlimit="10"/>
<path d="M94.8984 163.85H167.959" stroke="#2D2E2E" stroke-miterlimit="10"/>
<path d="M90.8881 160.723H85.9941V165.615H90.8881V160.723Z" fill="#0C93F4"/>
<path d="M94.8984 174.525H167.959" stroke="#2D2E2E" stroke-miterlimit="10"/>
<path d="M90.8881 171.398H85.9941V176.291H90.8881V171.398Z" fill="#0C93F4"/>
<path d="M94.8994 185.201H167.96" stroke="#2D2E2E" stroke-miterlimit="10"/>
<path d="M90.8881 182.084H85.9941V186.976H90.8881V182.084Z" fill="#0C93F4"/>
<path d="M94.8994 195.877H167.96" stroke="#2D2E2E" stroke-miterlimit="10"/>
<path d="M90.8881 192.76H85.9941V197.652H90.8881V192.76Z" fill="#0C93F4"/>
<path d="M125.652 128.427C147.458 128.427 165.135 110.757 165.135 88.9598C165.135 67.1624 147.458 49.4922 125.652 49.4922C103.846 49.4922 86.1689 67.1624 86.1689 88.9598C86.1689 110.757 103.846 128.427 125.652 128.427Z" fill="white" stroke="#2D2E2E" stroke-miterlimit="10"/>
<path d="M105.101 106.284L95.2578 114.156C102.498 122.873 113.426 128.427 125.652 128.427C137.878 128.427 148.3 123.112 155.54 114.735L140.573 104.979L105.101 106.284Z" fill="#2D2E2E" stroke="#2D2E2E" stroke-linecap="round" stroke-linejoin="round"/>
<path d="M117.465 95.1284C117.465 95.1284 108.781 96.2503 106.371 99.7906C103.96 103.322 102.194 106.697 103.96 108.793C105.727 110.881 110.713 115.386 113.61 117.308C116.508 119.23 121.016 125.833 121.016 125.833C121.016 125.833 121.641 121.005 121.641 117.465C121.641 113.924 118.587 110.071 117.943 106.862C117.299 103.644 122.607 98.5032 126.305 100.112C130.003 101.722 132.901 106.54 132.736 108.793C132.57 111.046 133.379 113.777 134.18 117.63C134.98 121.483 135.624 124.793 135.624 124.793C135.624 124.793 141.088 119.239 142.855 113.299C144.621 107.349 143.821 101.244 137.225 97.225C130.629 93.2066 117.446 95.1376 117.446 95.1376L117.465 95.1284Z" fill="#0C93F4" stroke="#2D2E2E" stroke-linecap="round" stroke-linejoin="round"/>
<path d="M140.086 99.4222C139.285 98.6406 138.356 97.8958 137.243 97.2153C130.647 93.1968 117.465 95.1279 117.465 95.1279C117.465 95.1279 108.781 96.2497 106.371 99.79C106.085 100.204 105.819 100.608 105.561 101.013C105.276 102.742 105.543 104.829 107.015 107.174C110.621 112.912 118.09 115.652 121.632 117.253C121.512 113.777 118.578 110.006 117.943 106.852C117.299 103.634 122.607 98.4935 126.305 100.103C130.003 101.712 132.901 106.53 132.736 108.783C132.57 111.036 133.379 113.767 134.18 117.62C134.226 117.841 134.272 118.08 134.318 118.31C134.594 118.043 134.87 117.767 135.146 117.455C139.322 112.793 140.61 107.652 140.61 103.156C140.61 101.831 140.408 100.572 140.077 99.413L140.086 99.4222Z" fill="white" stroke="#2D2E2E" stroke-linecap="round" stroke-linejoin="round"/>
<path d="M116.021 88.8671C116.021 88.8671 116.986 100.435 117.308 103.654C117.63 106.872 119.397 115.065 124.861 116.675C130.325 118.284 133.545 112.012 132.736 107.35C131.926 102.688 130.482 98.3477 130.482 96.7477C130.482 95.1477 130.325 94.6603 130.325 94.6603L116.021 88.8763V88.8671Z" fill="white" stroke="#2D2E2E" stroke-linecap="round" stroke-linejoin="round"/>
<path d="M130.325 94.6511L116.021 88.8671C116.021 88.8671 116.757 97.6673 117.152 102.054L130.482 96.4351C130.463 95.0833 130.325 94.6603 130.325 94.6603V94.6511Z" fill="#2D2E2E" stroke="#2D2E2E" stroke-linecap="round" stroke-linejoin="round"/>
<path d="M133.711 67.2023C133.711 67.2023 136.277 81.3268 136.277 83.8923C136.277 86.4579 133.922 93.9523 132.855 95.6627C131.788 97.3731 126.434 98.449 124.291 97.5846C122.147 96.7294 116.159 91.1661 114.871 88.812C113.583 86.4579 113.16 84.3153 113.16 84.3153C113.16 84.3153 110.161 85.6027 107.806 82.1727C105.451 78.7428 106.739 75.5335 109.094 75.322L111.237 75.9657C111.237 75.9657 107.382 69.3265 108.67 66.3379C109.958 63.3401 125.367 62.2734 128.587 62.2734C131.806 62.2734 133.729 67.1931 133.729 67.1931L133.711 67.2023Z" fill="white" stroke="#2D2E2E" stroke-linecap="round" stroke-linejoin="round"/>
<path d="M122.009 70.6783L118.596 72.1864C118.1 72.407 117.897 73.0048 118.155 73.4829L118.284 73.7128C118.532 74.1542 119.084 74.3197 119.535 74.0898L122.828 72.3519C123.288 72.1036 123.463 71.5335 123.205 71.0737C122.966 70.6599 122.46 70.4852 122.018 70.6783H122.009Z" fill="#2D2E2E" stroke="#2D2E2E" stroke-linecap="round" stroke-linejoin="round"/>
<path d="M128.357 69.9335L128.339 69.9887C128.228 70.4025 128.486 70.8255 128.9 70.9266L131.531 71.5243C132 71.6347 132.451 71.2761 132.451 70.7887C132.451 70.4393 132.212 70.1358 131.88 70.053L129.259 69.4002C128.863 69.299 128.458 69.5381 128.348 69.9335H128.357Z" fill="#2D2E2E" stroke="#2D2E2E" stroke-linecap="round" stroke-linejoin="round"/>
<path d="M135.384 88.6096C135.384 88.6096 134.971 83.7268 133.986 83.0279C133.011 82.329 125.753 82.8899 125.753 82.8899C125.753 82.8899 118.357 80.7934 118.219 82.4761C118.118 83.7084 118.44 90.2372 118.752 93.2902C120.822 95.2672 123.122 97.134 124.29 97.5937C126.434 98.4489 131.788 97.3822 132.855 95.6719C133.499 94.6419 134.603 91.5246 135.384 88.6464C135.384 88.628 135.384 88.6188 135.384 88.6188V88.6096ZM133.71 89.4464C132.873 92.2327 131.061 93.9063 130.224 93.4925C129.387 93.0787 128.687 90.4212 127.988 90.1453C127.289 89.8694 126.728 91.258 125.891 92.5178C125.054 93.7776 122.818 94.1914 121.843 93.3546C120.868 92.5178 119.746 84.8486 119.746 83.8739C119.746 82.8991 129.929 84.4348 129.929 84.4348C129.929 84.4348 132.441 84.1589 133.14 84.2969C133.839 84.4348 134.538 86.6693 133.701 89.4556L133.71 89.4464Z" fill="#2D2E2E"/>
<path d="M121.429 84.5645C121.429 84.5645 125.477 87.3507 129.801 86.376" stroke="#2D2E2E" stroke-linecap="round" stroke-linejoin="round"/>
<path d="M127.575 72.8477C127.575 72.8477 129.526 81.3536 129.673 82.0525C129.811 82.7513 128.275 84.9859 126.6 83.7261C124.926 82.4663 124.65 81.2157 124.65 81.2157" fill="white"/>
<path d="M127.575 72.8477C127.575 72.8477 129.526 81.3536 129.673 82.0525C129.811 82.7513 128.275 84.9859 126.6 83.7261C124.926 82.4663 124.65 81.2157 124.65 81.2157" stroke="#2D2E2E" stroke-linecap="round" stroke-linejoin="round"/>
<path d="M123.215 76.9864C123.435 77.722 123.353 78.4025 123.021 78.5036C122.69 78.6048 122.24 78.0898 122.01 77.3542C121.789 76.6185 121.872 75.9381 122.203 75.8369C122.534 75.7358 122.985 76.2507 123.215 76.9864Z" fill="#2D2E2E"/>
<path d="M131.476 75.8459C131.568 76.6091 131.356 77.262 131.016 77.308C130.676 77.3448 130.317 76.7563 130.234 75.993C130.142 75.2298 130.354 74.5769 130.694 74.5309C131.034 74.4941 131.393 75.0827 131.476 75.8459Z" fill="#2D2E2E"/>
<path d="M107.806 57.9974C107.806 57.9974 102.24 63.5608 104.384 68.2689C106.527 72.9771 111.881 81.7497 111.881 81.7497H112.948L112.736 78.1083C112.736 78.1083 116.159 76.8209 115.524 73.8231C114.88 70.8253 113.38 68.9034 113.38 68.9034C113.38 68.9034 117.023 71.6897 121.301 71.046C125.579 70.4023 127.51 65.2712 129.01 66.9816C130.509 68.6919 132.864 69.7678 137.363 67.4137C141.861 65.0597 144.731 57.0871 139.801 53.8778C134.879 50.6685 130.298 53.5008 127.722 54.1445C125.155 54.7882 123.224 50.503 117.446 52.2226C111.669 53.933 107.815 57.9974 107.815 57.9974H107.806Z" fill="#2D2E2E" stroke="#2D2E2E" stroke-linecap="round" stroke-linejoin="round"/>
<path d="M164.05 185.154C171.373 183.972 176.35 177.079 175.166 169.759C173.983 162.439 167.087 157.464 159.765 158.647C152.442 159.83 147.465 166.723 148.649 174.043C149.832 181.362 156.727 186.337 164.05 185.154Z" stroke="#2D2E2E" stroke-width="2" stroke-miterlimit="10"/>
<path d="M169.422 183.729L183.92 203.058" stroke="#2D2E2E" stroke-width="3" stroke-miterlimit="10"/>
<path d="M145.927 161.852C145.927 161.852 146.829 164.565 146.682 167.269C146.534 169.981 146.829 173.889 147.583 174.487C148.337 175.085 150.444 176.593 149.837 177.798C149.23 179.002 147.877 179.6 147.877 179.6C147.877 179.6 147.123 183.508 145.624 186.368C144.115 189.228 143.066 191.186 141.254 191.334C139.451 191.481 138.393 191.03 138.393 191.03L136.434 192.989L121.531 189.825L121.982 183.205C121.982 183.205 117.465 175.535 117.465 167.71C117.465 159.884 125.441 155.369 130.105 155.075C134.769 154.772 143.499 156.73 145.909 161.843L145.927 161.852Z" fill="white" stroke="#2D2E2E" stroke-miterlimit="10"/>
<path d="M149.837 158.091C149.837 158.091 150.141 160.05 148.632 162.303C147.124 164.556 143.067 165.31 143.067 165.31C143.067 165.31 142.92 168.62 142.009 169.972C141.107 171.323 139.001 172.381 139.001 172.381C139.001 172.381 135.993 172.684 136.894 175.995C137.796 179.305 138.55 179.756 137.041 182.469C135.533 185.181 126.655 188.786 123.647 186.68C120.639 184.574 118.376 183.517 116.573 177.199C114.77 170.882 112.958 161.999 118.082 155.985C123.196 149.962 134.787 151.47 134.787 151.47C134.787 151.47 131.779 148.61 135.993 148.757C140.206 148.905 143.067 151.921 143.067 151.921C143.067 151.921 143.518 148.914 145.781 149.668C148.034 150.422 149.543 156.436 149.847 158.091H149.837Z" fill="#2D2E2E" stroke="#2D2E2E" stroke-miterlimit="10"/>
<path d="M140.206 174.643C140.206 174.643 137.648 169.824 135.689 171.636C133.73 173.438 135.689 183.075 139.001 181.264" fill="white"/>
<path d="M140.206 174.643C140.206 174.643 137.648 169.824 135.689 171.636C133.73 173.438 135.689 183.075 139.001 181.264" stroke="#2D2E2E" stroke-miterlimit="10"/>
<path d="M139.001 172.381H151.19" stroke="#2D2E2E" stroke-miterlimit="10"/>
<path d="M146.158 169.373C146.903 169.061 147.759 168.969 148.66 169.199C150.003 169.539 151.08 170.651 151.393 172.012C151.761 173.631 151.107 175.13 149.948 175.994" stroke="#2D2E2E" stroke-miterlimit="10"/>
<path d="M139.838 197.393C139.838 197.393 139.838 194.028 135.422 191.508C131.006 188.989 122.175 185.623 118.183 186.046C114.19 186.469 111.872 192.143 111.872 192.143C111.872 192.143 127.64 193.614 131.43 194.451C135.22 195.288 139.838 197.393 139.838 197.393Z" fill="white" stroke="#2D2E2E" stroke-miterlimit="10"/>
<path d="M73.8239 219.252C73.8239 219.252 68.7736 225.137 62.049 233.542C55.3243 241.947 49.8508 250.563 49.8508 250.563C49.8508 250.563 43.5401 256.025 42.703 258.343C41.8659 260.651 39.7593 267.382 38.9221 269.267C38.085 271.161 41.8659 268.632 42.5006 267.161C43.1354 265.69 43.7609 264.642 43.7609 264.642L49.2253 262.122C49.2253 262.122 47.5418 266.324 49.2253 266.959C50.9087 267.593 51.1203 264.651 53.0061 262.333C54.9012 260.025 56.5846 258.343 56.787 255.611C56.9986 252.88 56.787 249.938 56.787 249.938L83.6947 232.494L73.8147 219.252H73.8239Z" fill="white" stroke="#2D2E2E" stroke-miterlimit="10"/>
<path d="M43.7607 264.651L46.2537 260.908C46.2537 260.908 47.9924 260.449 49.6206 259.4C51.2489 258.352 52.0584 257.193 52.0584 257.193" stroke="#2D2E2E" stroke-miterlimit="10"/>
<path d="M165.2 211.012L172.017 196.685C172.017 196.685 173.194 191.168 173.663 190.34C174.133 189.522 176.957 185.053 178.005 184.942C179.063 184.823 180.121 185.292 180.241 186.23C180.36 187.168 179.891 187.876 179.891 187.876C179.891 187.876 181.418 188.584 182.596 190.11C183.773 191.637 183.773 192.814 184.003 193.752C184.233 194.69 185.061 194.809 184.123 196.805C183.185 198.8 181.658 199.388 180.83 199.977C180.002 200.566 178.015 201.503 178.015 201.503C178.015 201.503 177.895 215.012 176.248 220.29C174.602 225.578 173.433 227.334 173.433 227.334C173.433 227.334 170.619 217.706 168.972 215.83C167.325 213.954 165.209 211.012 165.209 211.012H165.2Z" fill="white" stroke="#2D2E2E" stroke-miterlimit="10"/>
<path d="M83.0687 250.149C83.0687 250.149 74.1087 273.257 72.5632 278.646C71.0178 284.035 67.3933 294.968 65.8478 308.854C64.9371 317.01 65.9306 325.829 65.9306 325.829C65.9306 325.829 62.8581 331.723 59.5188 340.689C56.1886 349.655 44.8828 394.125 44.8828 394.125C44.8828 394.125 46.9342 397.196 51.5522 396.433L56.1702 395.66C56.1702 395.66 57.7065 395.918 59.5004 395.403C61.2942 394.888 65.3971 395.145 65.6546 393.352C65.9122 391.559 64.6335 391.044 63.0881 389.251C61.5518 387.458 59.2428 381.821 59.2428 381.821C59.2428 381.821 72.0573 359.365 76.6753 351.163C81.2933 342.96 87.7235 327.613 87.9811 325.305C88.2387 322.997 101.044 289.111 101.044 289.111H103.868L124.106 322.969C124.106 322.969 123.334 336.551 125.643 344.496C127.952 352.441 133.333 382.428 133.333 382.428L132.818 387.807C132.818 387.807 133.839 390.373 133.839 391.136V393.959C133.839 393.959 134.612 395.752 139.736 395.752C142.045 395.752 149.735 394.98 151.014 394.732C152.293 394.483 162.035 394.217 162.292 392.938C162.55 391.66 162.808 390.63 161.271 390.115C159.735 389.6 148.705 384.478 148.705 384.478V379.862C148.705 379.862 146.654 378.327 146.139 376.791C145.623 375.255 146.654 333.995 146.139 326.822C145.623 319.649 146.396 319.649 144.345 313.24C142.293 306.831 134.152 261.919 134.152 261.919L130.003 254.774L86.4173 245.809L83.0595 250.149H83.0687Z" fill="#2D2E2E" stroke="#2D2E2E" stroke-miterlimit="10"/>
<path d="M162.763 211.471C162.763 211.471 163.6 208.74 167.178 210C170.757 211.26 176.221 221.559 174.961 227.021C173.701 232.483 170.334 234.378 167.39 234.166C164.446 233.955 160.868 230.387 161.714 229.964C162.551 229.541 162.763 211.471 162.763 211.471Z" fill="white" stroke="#2D2E2E" stroke-miterlimit="10"/>
<path d="M84.9645 208.953C84.9645 208.953 83.4926 208.953 81.386 208.741C79.2794 208.53 76.3356 212.107 74.6614 214.204C72.9871 216.3 70.8805 217.569 72.3524 221.983C73.8242 226.397 77.8167 232.071 83.7042 232.494C89.5917 232.917 92.9586 229.763 92.9586 229.763L84.9737 208.953H84.9645Z" fill="white" stroke="#2D2E2E" stroke-miterlimit="10"/>
<path d="M111.881 192.142C111.881 192.142 108.514 191.719 101.367 195.72C94.2189 199.71 78.8746 212.115 77.8167 214.212C76.768 216.318 79.7117 225.771 83.4926 227.454C87.2735 229.136 90.6404 227.877 90.6404 227.877L83.0695 250.158C83.0695 250.158 91.4775 249.735 105.562 252.263C119.646 254.783 134.153 261.928 134.153 261.928C134.153 261.928 135.201 261.716 135.413 258.985C135.625 256.254 136.462 254.571 137.096 253.312C137.731 252.052 145.716 224.943 145.716 224.943C145.716 224.943 161.484 231.877 165.688 231.877C169.892 231.877 171.363 224.309 169.68 218.635C167.997 212.961 164.427 211.278 164.427 211.278C164.427 211.278 159.589 209.807 155.596 206.442C151.604 203.076 139.829 197.402 139.829 197.402C139.829 197.402 123.012 190.257 111.863 192.152L111.881 192.142Z" fill="#FF7294" stroke="#2D2E2E" stroke-miterlimit="10"/>
<path d="M139.626 220.512L145.725 224.926L137.74 223.031" stroke="#2D2E2E" stroke-miterlimit="10"/>
<path d="M97.752 205.642L98.8467 202.23" stroke="#2D2E2E" stroke-miterlimit="10"/>
<path d="M90.6406 227.866L96.6937 208.941" stroke="#2D2E2E" stroke-miterlimit="10"/>
<path d="M362.026 155.683C362.026 155.683 352.799 157.394 350.96 162.267C349.111 167.141 351.879 168.456 351.879 168.456C351.879 168.456 344.373 172.539 345.817 177.284C347.271 182.029 352.533 184.392 352.533 184.392C352.533 184.392 354.639 185.845 354.244 186.764C353.848 187.684 352.533 187.426 352.533 187.426C352.533 187.426 355.164 189.928 359.119 190.847C363.075 191.767 369.395 192.953 374.933 191.767C380.471 190.58 384.684 187.951 384.684 187.951C384.684 187.951 380.995 188.217 382.577 185.716C384.16 183.215 390.617 182.157 389.826 174.782C389.035 167.408 386.8 168.327 385.079 165.164C383.368 162.001 385.604 159.766 380.333 156.079C375.061 152.391 365.844 149.623 362.937 150.681C360.03 151.738 362.017 155.683 362.017 155.683H362.026Z" fill="#2D2E2E" stroke="#2D2E2E" stroke-miterlimit="10"/>
<path d="M345.026 239.446C345.026 239.446 335.514 251.584 334.171 269.019C332.828 286.463 345.21 323.724 345.504 325.213C345.799 326.703 347.142 339.825 351.916 350.704C356.691 361.582 359.818 378.134 359.818 378.134C359.818 378.134 359.073 381.564 359.073 382.006C359.073 382.447 352.956 388.268 350.868 389.454C348.779 390.649 344.309 391.091 344.456 393.178C344.603 395.266 354.593 395.56 357.877 395.413C361.162 395.266 368.613 394.217 369.662 394.217C370.71 394.217 375.475 394.512 375.328 391.532C375.181 388.553 371.124 375.881 371.124 375.881C371.124 375.881 368.319 356.506 368.319 350.391C368.319 344.276 368.024 329.82 368.024 329.82C368.024 329.82 379.063 353.37 381.446 359.78C383.828 366.189 386.22 375.431 386.515 376.47C386.809 377.509 387.554 388.994 390.838 392.866C394.122 396.737 396.22 396.387 398.225 396.461C400.424 396.535 403.368 394.512 401.574 389.141C399.78 383.771 395.309 380.047 394.417 374.686C393.524 369.316 393.074 355.908 393.074 342.188C393.074 328.469 387.701 314.758 387.701 314.758C387.701 314.758 391.731 291.502 389.789 273.617C387.848 255.731 380.728 242.453 380.728 242.453L380.25 240.531L346.25 237.248L345.026 239.418V239.446Z" fill="#0C93F4" stroke="#2D2E2E" stroke-miterlimit="10"/>
<path d="M365.789 317.544C364.52 312.1 362.818 304.174 362.588 299.907C362.202 292.992 362.422 273.948 362.422 273.948" stroke="#2D2E2E" stroke-miterlimit="10"/>
<path d="M367.196 323.329C367.196 323.329 366.883 322.097 366.414 320.156" stroke="#2D2E2E" stroke-miterlimit="10"/>
<path d="M351.889 265.266C353.885 268.181 356.829 271.914 359.515 273.027" stroke="#2D2E2E" stroke-miterlimit="10"/>
<path d="M349.525 261.516C349.525 261.516 349.92 262.224 350.601 263.3" stroke="#2D2E2E" stroke-miterlimit="10"/>
<path d="M365.026 271.18L372.955 260.752" stroke="#2D2E2E" stroke-miterlimit="10"/>
<path d="M373.985 385.978C373.001 386.107 371.952 386.227 369.873 386.135C364.703 385.923 359.073 382.006 359.073 382.006C359.073 382.457 352.956 388.268 350.867 389.454C348.779 390.65 344.308 391.091 344.456 393.179C344.603 395.266 354.593 395.56 357.877 395.413C361.161 395.266 368.613 394.218 369.661 394.218C370.71 394.218 375.475 394.512 375.328 391.533C375.273 390.512 374.868 387.468 373.985 385.96V385.978Z" fill="white" stroke="#2D2E2E" stroke-miterlimit="10"/>
<path d="M395.411 377.904C394.481 379.477 393.221 381.463 391.4 381.583C389.164 381.73 387.573 379.946 386.855 378.944C387.343 382.796 388.382 389.978 390.839 392.884C394.123 396.755 396.22 396.406 398.226 396.48C400.424 396.553 403.368 394.53 401.574 389.16C400.157 384.921 397.085 381.711 395.411 377.904Z" fill="white" stroke="#2D2E2E" stroke-miterlimit="10"/>
<path d="M359.524 182.94C359.524 182.94 360.048 190.581 359.652 191.896C359.257 193.211 354.648 193.349 353.857 193.083C353.066 192.816 347.666 191.768 345.026 193.083C342.395 194.398 338.963 200.191 338.31 201.377C337.657 202.563 335.679 204.274 335.679 204.274C335.679 204.274 330.932 185.965 330.932 184.522C330.932 183.078 331.852 178.728 328.826 173.064C325.799 167.399 323.426 163.712 321.181 162.001C318.946 160.291 316.701 160.153 316.572 161.477C316.444 162.792 317.492 163.583 318.283 164.503C319.075 165.422 321.052 169.505 321.052 169.505C321.052 169.505 316.177 177.542 316.048 179.381C315.919 181.23 315.653 181.616 316.968 183.069C318.283 184.522 322.763 186.756 322.763 186.756C322.763 186.756 322.497 192.945 323.426 198.48C324.346 204.016 321.972 211.915 325.404 218.766C328.826 225.617 333.701 227.198 334.492 226.536C335.284 225.874 343.848 219.952 343.848 219.952C343.848 219.952 344.906 233.12 345.035 233.654C345.164 234.187 344.372 238.003 345.035 239.447C345.697 240.9 347.933 243.796 360.057 244.449C372.182 245.111 380.084 243.53 380.746 242.472C381.409 241.415 381.142 239.576 381.142 238.656C381.142 237.737 383.12 223.64 383.12 223.64C383.12 223.64 387.471 234.04 387.995 235.493C388.519 236.946 389.577 240.891 389.577 240.891C389.577 240.891 389.182 251.033 390.893 255.64C392.604 260.247 394.582 264.726 394.582 264.726L396.937 279.797C396.937 279.797 395.621 282.427 395.879 284.276C396.146 286.124 396.633 290.473 396.633 291.135C396.633 291.798 396.633 293.765 397.691 294.032C398.749 294.299 399.669 291.531 399.669 291.531C399.669 291.531 400.331 296.671 400.193 297.453C400.064 298.244 401.426 300.717 402.567 298.115C402.99 297.14 403.358 295.485 403.625 294.952C403.891 294.428 405.207 291.66 405.602 289.683C405.998 287.706 406.173 285.581 404.719 280.984C404.361 279.862 403.266 277.563 403.266 277.167C403.266 276.772 403.947 259.07 403.155 252.22C402.364 245.369 400.129 239.309 400.129 239.309C400.129 239.309 396.964 218.628 396.964 217.837C396.964 217.046 397.489 207.437 394.067 202.821C390.644 198.214 384.582 197.285 380.893 196.365C377.204 195.446 373.249 193.993 372.596 193.598C371.933 193.202 371.805 184.512 371.805 184.512L359.551 182.931L359.524 182.94Z" fill="white" stroke="#2D2E2E" stroke-miterlimit="10"/>
<path d="M337.565 224.328C340.307 222.406 343.849 219.951 343.849 219.951C343.849 219.951 344.906 233.119 345.035 233.653C345.164 234.177 344.373 238.002 345.035 239.446C345.698 240.899 347.933 243.795 360.058 244.448C372.182 245.11 380.084 243.529 380.747 242.471C381.409 241.414 381.142 239.575 381.142 238.655C381.142 237.736 383.12 223.639 383.12 223.639C383.12 223.639 386.634 232.043 387.729 234.793C390.415 234.48 394.683 233.598 398.878 231.142C397.995 225.266 396.956 218.287 396.956 217.836C396.956 217.045 397.48 207.436 394.058 202.82C390.636 198.213 384.573 197.284 380.885 196.364C377.196 195.445 373.24 193.992 372.587 193.597C371.925 193.201 371.796 184.511 371.796 184.511L359.542 182.93C359.542 182.93 360.067 190.571 359.671 191.886C359.276 193.201 354.667 193.339 353.876 193.072C353.085 192.806 347.685 191.757 345.044 193.072C342.413 194.387 338.982 200.181 338.329 201.367C337.676 202.553 335.698 204.264 335.698 204.264C335.698 204.264 339.654 209.533 339.516 215.197C339.424 219.308 338.421 222.572 337.584 224.319L337.565 224.328Z" fill="white" stroke="#2D2E2E" stroke-miterlimit="10"/>
<path d="M379.578 196.032C376.303 195.131 373.148 193.954 372.568 193.604C371.906 193.209 371.777 184.519 371.777 184.519L359.524 182.938C359.524 182.938 360.048 190.579 359.652 191.894C359.294 193.08 355.513 193.301 354.197 193.145C354.234 196.069 355.209 202.745 363.075 204.271C369.836 205.586 376.128 199.94 379.578 196.032Z" fill="white" stroke="#2D2E2E" stroke-miterlimit="10"/>
<path d="M365.319 187.949L360.103 188.299L359.523 182.938L365.319 187.949Z" fill="#2D2E2E" stroke="#2D2E2E" stroke-miterlimit="10"/>
<path d="M363.084 204.281C363.084 204.281 360.315 215.215 360.711 218.111" stroke="#2D2E2E" stroke-miterlimit="10"/>
<path d="M344.539 206.389C345.266 204.706 345.956 203.621 345.956 203.621" stroke="#2D2E2E" stroke-miterlimit="10"/>
<path d="M343.84 219.952C343.84 219.952 342.653 217.45 342.92 212.705C343.012 211.041 343.417 209.413 343.895 208.016" stroke="#2D2E2E" stroke-miterlimit="10"/>
<path d="M383.102 223.64L384.647 214.84" stroke="#2D2E2E" stroke-miterlimit="10"/>
<path d="M364.399 156.998L355.964 162.791C355.964 162.791 355.697 166.212 355.697 169.899C355.697 173.587 354.639 176.75 356.488 180.171C358.337 183.592 362.283 187.941 365.319 187.941C368.355 187.941 372.173 186.231 374.546 184.383C376.919 182.534 378.106 178.985 378.106 178.985C378.106 178.985 381.399 177.67 381.133 175.564C380.866 173.458 380.47 172.005 379.946 171.877C379.422 171.748 378.235 171.481 378.235 171.481L376.524 164.373C376.524 164.373 366.773 160.29 364.399 156.998Z" fill="white" stroke="#2D2E2E" stroke-miterlimit="10"/>
<path d="M365.19 165.826V167.803C365.19 167.803 362.292 170.176 363.479 171.095C364.665 172.015 365.328 171.491 365.852 171.362" stroke="#2D2E2E" stroke-miterlimit="10"/>
<path d="M361.76 175.702C361.76 175.702 364.924 179.123 369.662 175.436" stroke="#2D2E2E" stroke-miterlimit="10"/>
<path d="M358.604 164.64C358.604 164.64 360.315 162.93 363.608 163.721" stroke="#2D2E2E" stroke-miterlimit="10"/>
<path d="M367.555 163.582C367.555 163.582 370.581 162.267 372.955 164.64" stroke="#2D2E2E" stroke-miterlimit="10"/>
<path d="M362.155 167.204C362.155 167.82 361.805 168.326 361.363 168.326C360.922 168.326 360.572 167.82 360.572 167.204C360.572 166.588 360.922 166.082 361.363 166.082C361.805 166.082 362.155 166.588 362.155 167.204Z" fill="#2D2E2E"/>
<path d="M371.114 167.204C371.114 167.82 370.765 168.326 370.323 168.326C369.882 168.326 369.532 167.82 369.532 167.204C369.532 166.588 369.882 166.082 370.323 166.082C370.765 166.082 371.114 166.588 371.114 167.204Z" fill="#2D2E2E"/>
<path d="M355.568 171.618C355.568 171.618 352.937 170.165 352.799 172.804C352.67 175.434 355.034 177.411 355.034 177.411L355.559 171.618H355.568Z" fill="white" stroke="#2D2E2E" stroke-miterlimit="10"/>
<path d="M321.053 169.512C321.053 169.512 318.477 168.739 317.355 170.974C316.242 173.209 318.1 175.572 319.471 176.436C320.832 177.301 321.955 177.061 322.074 175.443C322.194 173.825 320.584 171.719 320.584 171.719L321.053 169.512Z" fill="white" stroke="#2D2E2E" stroke-miterlimit="10"/>
<path d="M316.859 172.465C316.859 172.465 314.495 174.322 314.743 175.821C314.991 177.311 317.852 179.297 319.343 179.178C320.833 179.058 320.336 177.063 320.336 177.063C320.336 177.063 317.475 174.332 316.859 172.465Z" fill="white" stroke="#2D2E2E" stroke-miterlimit="10"/>
<path d="M315.487 177.432C315.487 177.432 313.62 178.802 314.613 180.54C315.607 182.278 318.22 182.774 319.084 181.781C319.949 180.788 319.333 179.17 319.333 179.17C319.333 179.17 315.607 178.296 315.478 177.432H315.487Z" fill="white" stroke="#2D2E2E" stroke-miterlimit="10"/>
<path d="M326.416 183.26C326.416 183.26 325.294 181.393 325.422 179.039C325.542 176.676 327.658 173.696 327.658 173.696C327.658 173.696 327.29 172.832 327.041 171.71C326.793 170.588 325.303 166.496 326.673 164.758C328.035 163.02 329.157 165.88 330.031 168.482C330.896 171.094 331.521 172.455 331.521 172.455C331.521 172.455 332.515 175.434 332.018 177.798C331.521 180.161 330.16 184.382 330.16 184.382" fill="white"/>
<path d="M326.416 183.26C326.416 183.26 325.294 181.393 325.422 179.039C325.542 176.676 327.658 173.696 327.658 173.696C327.658 173.696 327.29 172.832 327.041 171.71C326.793 170.588 325.303 166.496 326.673 164.758C328.035 163.02 329.157 165.88 330.031 168.482C330.896 171.094 331.521 172.455 331.521 172.455C331.521 172.455 332.515 175.434 332.018 177.798C331.521 180.161 330.16 184.382 330.16 184.382" stroke="#2D2E2E" stroke-miterlimit="10"/>
</g>
<defs>
<clipPath id="clip0_1_2639">
<rect width="444" height="400" fill="white"/>
</clipPath>
</defs>
</svg>
