<svg width="268" height="100" viewBox="0 0 268 100" fill="none" xmlns="http://www.w3.org/2000/svg">
<path fill-rule="evenodd" clip-rule="evenodd" d="M70.2259 29.6515C68.4587 25.1991 67.0128 21.504 67.0128 21.4351C67.0128 21.3663 69.1931 21.3433 71.8554 21.3663L76.6979 21.4351C78.1747 25.2433 86.7503 47.1169 86.7503 47.1169C86.7503 47.1169 88.0585 44.3399 95.3109 26.4154L97.3765 21.3204H100.727H104.078L109.471 34.2875C112.432 41.4022 114.888 47.1858 114.957 47.1169C115.026 47.0481 117.206 41.2416 119.822 34.2187L124.573 21.4351L128.727 21.3663C130.999 21.3433 132.881 21.3892 132.881 21.481C132.881 21.5499 129.875 29.2384 126.18 38.5104C123.32 45.7482 120.427 52.9726 117.596 60.2218L114.383 60.2906L111.147 60.3595L105.662 46.9333C102.655 39.5432 100.108 33.576 100.039 33.6678C99.9699 33.7596 97.4224 39.7957 94.4159 47.094L88.9306 60.3365L85.6258 60.2906L82.3438 60.2218L77.8684 48.9759C77.4985 48.0424 77.1061 47.0527 76.7006 46.0296C74.414 40.2613 71.7073 33.4332 70.2259 29.6515ZM26.2295 48.0578C37.2228 29.2153 41.3769 22.1236 41.6293 21.7105C41.8589 21.3662 42.3408 21.3203 46.4719 21.3203L51.0621 21.3433L56.7079 31.0284C58.2571 33.6907 60.3054 37.2022 62.3538 40.7136C64.4021 44.2251 66.4505 47.7365 67.9997 50.3988C71.1209 55.7233 73.6685 60.1299 73.6685 60.1987C73.6685 60.2676 65.521 60.3364 55.5374 60.3364H37.4064V56.6643V52.9922H48.6293H59.8522L53.1735 41.0579C49.4785 34.5169 46.426 29.1465 46.3572 29.1465C46.2883 29.1465 42.272 36.1694 37.4064 44.73L28.5704 60.3364H23.7967H19L19.459 59.5791C19.7115 59.1889 22.7639 53.9791 26.2295 48.0578ZM140.73 21.6646C137.425 22.5826 136.232 24.258 135.819 28.6416C135.543 31.6022 135.75 37.5005 136.186 39.1989C136.645 40.8513 137.494 42.0677 138.711 42.7792C140.753 43.9726 141.671 44.0415 156.819 44.0415H170.75V48.5168V52.9922H156.52H142.291V50.6972C142.291 49.4349 142.245 48.4021 142.199 48.4021C142.146 48.4021 141.086 48.6172 139.623 48.9136C139.175 49.0045 138.689 49.103 138.183 49.2054C136.048 49.6414 134.212 50.0086 134.12 50.0086C133.868 50.0086 134.235 54.4611 134.602 55.7004C135.36 58.202 137.15 59.625 140.156 60.1069C140.914 60.2446 148.143 60.3364 156.75 60.3364C172.586 60.3364 173.963 60.2676 175.73 59.3496C176.763 58.7987 177.658 57.7889 178.3 56.4348L178.897 55.1725V48.6316C178.897 42.8251 178.851 41.953 178.461 40.8513C177.635 38.4874 175.891 37.2022 172.792 36.7202C171.897 36.5596 166.022 36.4678 157.599 36.4678H143.897L143.943 32.2678L144.012 28.0908H157.094H170.176L170.245 30.3399C170.291 31.9924 170.383 32.5891 170.589 32.4973C170.75 32.4514 172.586 32.0153 174.72 31.5334L178.553 30.6612V29.4678C178.553 25.5203 177.222 23.0875 174.422 21.94C172.792 21.2721 157.553 21.3892 157.553 21.3892C157.553 21.3892 141.74 21.3892 140.73 21.6646ZM51.3145 72.5233C50.4653 70.8938 51.1539 68.9201 52.8522 68.1168C54.1374 67.5201 57.3735 67.5889 58.3604 68.2545C59.0718 68.7135 59.6685 69.7004 59.6685 70.4348C59.6685 70.802 59.5308 70.8938 58.9341 70.8938C58.3374 70.8938 58.0849 70.7561 57.7866 70.2053C57.3276 69.402 56.5702 69.0578 55.285 69.0578C53.4719 69.0578 52.2555 70.2283 52.8293 71.4446C53.1047 72.1102 53.6784 72.3627 55.8817 72.8446C58.98 73.5561 60.1276 74.4741 60.1276 76.2184C60.1046 78.5364 58.3374 79.9364 55.4227 79.9364C52.944 79.9364 51.4981 79.0413 50.9702 77.1364L50.7407 76.402H51.6129C52.3702 76.402 52.485 76.4938 52.7374 77.1823C53.1735 78.3528 54.8948 78.9265 56.5932 78.4675C57.6259 78.1692 58.0849 77.7102 58.4063 76.6774C58.6817 75.7594 57.5571 74.9331 55.4227 74.4741C52.8981 73.9004 51.7506 73.3725 51.3145 72.5233ZM65.2915 68.1168C62.9046 69.2184 61.7341 72.2479 62.3997 75.5298C63.0882 78.7888 65.7734 80.556 68.9636 79.8445C70.6849 79.4773 71.6947 78.697 72.4062 77.2052C74.0816 73.7856 72.9799 69.402 70.1111 68.1168C68.8718 67.543 66.5079 67.543 65.2915 68.1168ZM69.5373 69.4938C70.7767 70.1364 71.4422 71.6741 71.4422 73.7397C71.4422 76.0806 70.7767 77.4577 69.2619 78.1921C68.4128 78.6052 67.9767 78.697 67.2882 78.5823C65.039 78.2151 63.9833 76.6544 63.9833 73.7167C63.9833 70.7331 65.3144 69.0577 67.7013 69.0577C68.2751 69.0577 69.1013 69.2413 69.5373 69.4938ZM202.054 74.7725C201.687 71.6053 203.248 68.7135 205.772 67.9102C206.874 67.543 210.018 67.7725 210.822 68.2315C211.625 68.7135 212.29 69.7004 212.29 70.4118C212.29 71.1004 210.776 71.1233 210.569 70.4118C210.317 69.6545 209.1 69.0578 207.815 69.0578C205.29 69.0578 203.799 70.7791 203.799 73.6708C203.799 75.5298 204.12 76.5167 205.015 77.4806C205.887 78.4216 207.494 78.8118 209.307 78.5364L210.569 78.3528L210.638 76.5856L210.707 74.8184L209.376 74.7495L209.369 74.7492C208.067 74.6807 208.045 74.6795 208.045 73.9921V73.3036H210.225H212.405L212.474 76.3102L212.543 79.3396L211.349 79.6151C209.743 80.0052 206.622 80.0282 205.566 79.638C203.615 78.9495 202.353 77.2052 202.054 74.7725ZM19.0459 79.7298H20.9049V74.8643L23.0393 74.7495C26.3212 74.5659 27.6294 73.579 27.6294 71.261C27.6294 68.6905 26.3442 67.9332 21.9606 67.9102H19.0459V79.7298ZM25.3573 69.861C26.1606 70.6413 26.1376 71.9954 25.3573 72.7298C24.8754 73.1889 24.4852 73.2807 22.8327 73.3725L20.8819 73.4872V71.3758V69.2872H22.8327C24.6229 69.2872 24.8524 69.3331 25.3573 69.861ZM29.6032 79.8446V73.8774V67.9103H37.1999L37.1769 69.3102H31.4393V72.9594H36.9474V74.3364H31.4393V78.4676H37.1769V79.8446H29.6032ZM39.7474 73.8085L39.8162 79.8446H40.6884H41.5375V77.1134V74.3364H43.0293C43.8555 74.3364 44.8883 74.4741 45.3244 74.6577C46.1506 75.0019 46.3572 75.4609 46.7014 77.779C46.9998 79.5921 47.1604 79.8445 48.1014 79.8445C48.8588 79.8445 48.9276 79.7986 48.7899 79.3166C48.7211 79.0412 48.4916 77.9396 48.285 76.8609C47.849 74.5888 47.6883 74.1987 47.0227 73.9921C46.5637 73.8314 46.5637 73.8085 47.1834 73.3954C49.1801 72.1101 49.0653 69.3102 46.9998 68.3692C46.1736 68.002 45.485 67.9102 42.8457 67.9102H39.7015L39.7474 73.8085ZM46.3342 69.838C46.7244 70.1823 46.8162 70.5036 46.7703 71.1921C46.6785 72.5462 45.99 72.9364 43.5342 73.12L41.5375 73.2577V71.261V69.2413L43.6949 69.3331C45.4391 69.379 45.9441 69.4938 46.3342 69.838ZM75.9635 79.8446V73.8773V67.9102H77.0652H78.1438L81.0815 72.7757L83.9963 77.6642V72.7757V67.9102H84.7995H85.6028V73.9003V79.8446H84.5241H83.4454L80.5537 74.9331L77.6848 70.1134L77.616 74.979L77.5701 79.8446H76.7668H75.9635ZM92.5109 68.4152C92.3962 68.7135 91.3175 71.307 90.1011 74.1758C88.8847 77.0676 87.8979 79.5233 87.8979 79.638C87.8979 79.7528 88.288 79.8446 88.77 79.8446C89.6102 79.8446 89.6191 79.8221 90.1972 78.3543L90.2159 78.3069L90.8126 76.7463L93.6814 76.6774L96.5503 76.6086L97.1929 78.2381L97.8355 79.8446H98.7535C99.5109 79.8446 99.6256 79.7758 99.5109 79.4315C99.4191 79.2249 98.2945 76.5397 97.0322 73.4643L94.6913 67.9103H93.7044C92.8782 67.9103 92.6716 68.0021 92.5109 68.4152ZM95.8388 74.8414C95.9535 75.2315 95.7929 75.2545 93.7732 75.2545C92.5568 75.2545 91.57 75.1856 91.57 75.0938C91.57 75.002 92.0519 73.7168 92.6486 72.202L93.7044 69.4709L94.6913 71.9496C95.1112 72.982 95.5045 73.9878 95.7084 74.5091L95.7087 74.5101L95.7453 74.6035L95.781 74.6947C95.807 74.7611 95.8266 74.8108 95.8388 74.8414ZM101.898 79.8446V73.8774V67.9103H102.701H103.504V73.1889V78.4676H106.373H109.242V79.1561V79.8446H105.57H101.898ZM111.308 73.8774V79.8446H112.111H112.914L112.96 74.6348L113.029 69.425L114.612 73.6479L114.688 73.8494L114.823 74.2097L114.969 74.5993C116.573 78.8825 116.869 79.6731 117.355 79.8153C117.711 79.9195 118.269 79.8446 118.606 79.8446L120.258 75.3004C121.176 72.8217 122.071 70.4578 122.232 70.0906C122.462 69.5168 122.507 70.1824 122.53 74.6118L122.553 79.8446H123.357H124.16V73.8774V67.9103H122.806H121.452L119.662 72.7299C118.675 75.3692 117.803 77.4577 117.711 77.3659C117.619 77.2741 116.77 75.1168 115.783 72.5463L113.993 67.9103H112.662H111.308V73.8774ZM128.658 74.1528C129.875 71.284 130.953 68.7135 131.068 68.4152C131.229 68.0021 131.435 67.9103 132.261 67.9103H133.248L135.612 73.5561C136.898 76.6774 138.022 79.3626 138.091 79.5233C138.183 79.7758 137.976 79.8446 137.288 79.8446H136.37L135.727 78.2381L135.107 76.6086L132.261 76.6774L129.416 76.7463L128.796 78.2381C128.199 79.661 128.13 79.7298 127.304 79.7987C126.822 79.8446 126.455 79.7757 126.455 79.638C126.455 79.5003 127.442 77.0446 128.658 74.1528ZM134.488 75.1397C134.488 75.0709 134.006 73.8315 133.432 72.3856C132.858 70.9398 132.33 69.7463 132.284 69.7463C132.17 69.7463 132.009 70.1135 130.93 72.8217C130.494 73.9463 130.127 74.9332 130.127 75.0479C130.127 75.1627 131.114 75.2545 132.307 75.2545C133.501 75.2545 134.488 75.2086 134.488 75.1397ZM140.455 73.8774V79.8446H141.258H142.061V77.0676V74.2676L144.035 74.4053C146.445 74.543 146.766 74.7955 147.134 76.7463C147.638 79.6839 147.73 79.8446 148.602 79.8446C149.038 79.8446 149.406 79.7758 149.406 79.661C149.406 79.5692 149.199 78.4217 148.947 77.1135C148.488 74.7496 148.075 73.8774 147.363 73.8774C147.156 73.8774 147.294 73.6938 147.707 73.4414C148.763 72.7987 149.176 72.0873 149.176 70.8709C149.176 69.6316 148.671 68.8512 147.478 68.2775C146.881 68.0021 145.986 67.9103 143.576 67.9103H140.455V73.8774ZM147.019 70.0447C148.556 71.8348 146.881 73.1889 143.186 73.1889H142.061V71.2152V69.2414L144.265 69.3332C146.353 69.4021 146.491 69.448 147.019 70.0447ZM152.045 79.7299L151.976 73.8086L151.93 67.9103H152.848H153.766V70.366V72.8447L156.245 70.366C158.632 67.9791 158.747 67.9103 159.733 67.9103H160.766L158.15 70.5266L155.533 73.166L157.897 75.8512C158.559 76.5936 159.22 77.3478 159.754 77.9566C160.276 78.5523 160.676 79.0088 160.835 79.179L161.386 79.8446H160.261H159.137L156.497 76.7463L153.881 73.625L153.766 76.6774L153.651 79.7299H152.848H152.045ZM163.635 73.8774V79.8446H167.422H171.209V79.1561V78.4905L168.294 78.4217L165.356 78.3528L165.287 76.3332L165.219 74.3364H167.996H170.75V73.6479V72.9594H167.996H165.242V71.1234V69.2873H168.11H170.979V68.5988V67.9103H167.307H163.635V73.8774ZM172.815 69.2873V68.5988V67.9103H177.75H182.684V68.5988V69.2873H180.619H178.553V74.566V79.8446H177.75H176.946V74.566V69.2873H174.881H172.815ZM184.979 73.8774V79.8446H185.782H186.586V73.8774V67.9103H185.782H184.979V73.8774ZM189.569 79.8446V73.8774V67.9103H190.694H191.841L194.779 72.7758L197.717 77.6643L197.786 72.7758L197.832 67.9103H198.635H199.438V73.8774V79.8446H198.313H197.212L194.389 75.1397C192.828 72.5463 191.474 70.366 191.382 70.2971C191.268 70.2283 191.176 72.3627 191.176 75.002V79.8446H190.373H189.569Z" fill="#0C93F4"/>
<path fill-rule="evenodd" clip-rule="evenodd" d="M245.235 20.0509C245.007 19.9364 243.864 20.0509 243.636 20.0509C243.407 20.0509 243.142 20.4548 242.95 20.7375C236.468 21.6119 229.993 22.2223 223.527 22.5685C215.424 22.8629 207.426 22.2984 199.38 21.7306C197.91 21.6268 196.438 21.5228 194.963 21.4241C192.502 20.8639 189.988 20.5206 187.422 20.3942C187.014 20.5737 186.671 20.8407 186.394 21.1952C186.057 26.9095 185.943 32.6369 186.051 38.3601C185.975 44.9601 186.051 51.521 186.279 58.0425C186.527 59.1317 187.136 59.971 188.108 60.5601C189.39 60.6578 190.609 60.5052 191.763 60.1025L191.764 60.1024C199.854 59.7295 207.894 59.2475 215.986 58.9579H219.871C219.771 64.8702 219.237 70.7445 218.271 76.5806C218.268 78.4459 219.182 79.1704 221.013 78.7548L229.125 67.8837C231.515 64.9554 233.991 62.0945 236.552 59.3012C239.729 59.0039 242.929 58.8513 246.149 58.8435C249.081 57.2916 248.434 54.4295 248.434 51.6344C247.971 48.4392 247.59 45.235 247.292 42.022C246.84 35.0882 246.573 28.1459 246.492 21.1952C246.097 20.7599 245.464 20.1653 245.235 20.0509ZM218.271 54.8384C219.72 54.8004 221.167 54.8384 222.613 54.9528C223.184 55.2199 223.603 55.6394 223.869 56.2116C223.889 60.4296 223.737 64.6256 223.412 68.7992C226.696 64.3642 230.238 60.1302 234.038 56.0971C234.273 55.9797 234.501 55.8653 234.724 55.7538C235.271 55.3789 235.88 55.1121 236.552 54.9528C239.219 54.8638 241.885 54.902 244.55 55.0672L244.55 54.8384C244.58 52.9436 244.351 51.1127 243.864 49.3457C243.256 41.2695 242.799 33.1829 242.493 25.086C238.135 25.3154 233.807 25.7728 229.468 26.2302C219.944 26.8724 210.422 26.8343 200.904 26.1158C196.602 25.5429 194.487 25.1891 190.164 24.6282C190.164 24.6282 189.936 24.5137 189.936 24.6282C189.936 35.231 190.27 45.8383 190.393 56.4405C199.658 55.4157 208.973 55.356 218.271 54.8384ZM218.042 45.4548H217.357C210.622 45.6869 203.919 45.3436 197.248 44.425C195.972 43.9258 195.439 42.9723 195.648 41.5641C196.407 40.6131 197.397 40.2316 198.619 40.4198C203.136 40.8909 207.668 41.1198 212.215 41.1065C219.886 40.9504 227.52 40.4883 235.181 40.3055C236.416 40.7587 236.835 41.636 236.437 42.9374C236.221 43.4112 235.878 43.7545 235.409 43.9673C229.752 44.7611 223.761 45.0799 218.042 45.4548ZM196.562 37.5591C208.072 37.8097 219.236 37.8849 230.725 38.589C231.912 38.5361 235.565 39.0368 236.095 37.9024C236.278 37.4201 236.43 36.9242 236.552 36.4147C236.155 34.7574 235.907 34.4001 234.267 34.1262C221.668 33.4696 209.101 33.2027 196.566 33.3251L196.562 33.3251C196.136 33.6134 195.831 33.9948 195.648 34.4694C195.427 34.9517 195.351 35.4858 195.42 36.0715C195.317 36.9237 195.698 37.4196 196.562 37.5591ZM228.325 50.2611C217.84 50.5938 206.571 51.7918 196.105 49.9178C194.896 49.0085 194.667 47.9024 195.42 46.5993C196.322 46.2427 197.274 46.0903 198.276 46.1415C209.67 46.803 221.057 46.7265 232.439 45.9127C233.976 45.6641 235.499 45.6641 237.009 45.9127C237.161 45.9889 237.313 46.0653 237.466 46.1415C238.118 47.2142 238.042 48.2441 237.237 49.2312C235.5 49.558 233.748 49.8251 231.982 50.0323C230.756 50.0258 229.538 50.1023 228.326 50.2611L228.325 50.2611Z" fill="#0C93F4"/>
</svg>
