<svg width="1919" height="474" viewBox="0 0 1919 474" fill="none" xmlns="http://www.w3.org/2000/svg">
<path d="M1921.2 273.306C1888.35 362.344 1558.66 418.87 1310.97 417.733C1025.53 416.412 917.953 338.821 700.734 362.421C502.509 383.931 490.829 459.587 345.101 471.51C211.173 482.464 -0.752278 436.724 -350 210.311" stroke="#C3E1FA" stroke-miterlimit="10"/>
<path d="M-333.349 200.277C11.6551 423.417 223.701 470.924 359.529 461.997C460.197 455.329 498.993 418.592 577.758 389.876C617.071 375.094 665.424 364.255 718.475 358.332C892.251 338.881 995.829 381.932 1181.53 400.401C1228.86 405.163 1277.5 407.793 1326.45 408.237C1575.15 410.803 1901.16 361.805 1939.1 276.009" stroke="#C3E1FA" stroke-miterlimit="10"/>
<path d="M-316.657 190.275C24.1041 410.127 236.15 459.386 373.594 452.472C474.626 447.386 515.726 412.401 594.652 385.144C634.907 370.894 683.188 360.326 735.814 354.246C907.084 334.472 1010.62 373.252 1196.97 390.86C1244.32 395.373 1292.78 398.009 1341.56 398.727C1591.31 402.43 1913.61 361.268 1956.65 278.714" stroke="#C3E1FA" stroke-miterlimit="10"/>
<path d="M-300.008 180.303C36.4287 396.822 248.596 447.817 387.818 442.961C489.295 439.428 532.537 406.225 611.746 380.412C652.855 366.702 701.027 356.399 753.191 350.159C922.116 330.062 1025.25 364.587 1212.44 381.319C1259.84 385.623 1308.17 388.281 1356.84 389.262C1607.6 394.271 1926.17 360.776 1974.3 281.464" stroke="#C3E1FA" stroke-miterlimit="10"/>
<path d="M-283.358 170.254C48.8356 383.531 260.963 436.231 402.084 433.435C503.884 431.438 549.47 400.017 628.921 375.695C670.915 362.517 719.066 352.468 770.851 346.072C937.433 325.652 1040.28 355.905 1228.41 371.777C1275.75 375.829 1323.85 378.49 1372.27 379.736C1624.09 386.051 1938.94 360.207 1992.21 284.137" stroke="#C3E1FA" stroke-miterlimit="10"/>
<path d="M-266.87 160.238C61.2015 370.242 273.45 426.138 416.35 423.926C518.352 422.389 566.402 393.919 646.016 370.964C688.873 358.343 737 348.548 788.39 341.986C952.628 321.244 1055.11 347.226 1243.88 362.221C1291.22 366.063 1339.15 368.742 1387.39 370.242C1640.25 377.924 1951.39 359.686 2009.75 286.843" stroke="#C3E1FA" stroke-miterlimit="10"/>
<path d="M-250.016 150.219C73.6098 356.935 285.696 412.954 430.576 414.491C532.902 415.382 583.418 387.726 663.152 366.215C706.825 354.155 754.935 344.609 805.931 337.883C967.824 316.818 1070.07 338.543 1259.52 352.664C1306.84 356.276 1354.62 358.964 1402.67 360.715C1656.58 369.703 1964 359.178 2027.45 289.53" stroke="#C3E1FA" stroke-miterlimit="10"/>
<path d="M-233.368 140.201C85.8934 343.643 298.02 401.399 444.84 404.887C547.408 407.376 600.51 381.671 680.285 361.497C724.739 350.01 772.852 340.717 823.468 333.841C982.977 312.438 1084.98 329.877 1275.16 343.167C1319.41 346.24 1366.66 349.19 1417.94 351.264C1672.95 361.605 1976.61 358.624 2045.15 292.249" stroke="#C3E1FA" stroke-miterlimit="10"/>
<path d="M-216.718 130.185C98.381 330.34 310.346 389.678 459.066 395.409C561.916 399.358 617.645 375.604 697.501 356.798C742.737 345.889 790.881 336.83 841.128 329.771C998.294 308.046 1099.97 321.244 1290.92 333.628C1335.38 336.516 1382.5 339.436 1433.38 341.771C1689.11 353.448 1989.22 358.088 2062.85 294.97" stroke="#C3E1FA" stroke-miterlimit="10"/>
<path d="M-200.027 120.18C110.788 317.047 322.673 377.983 473.332 385.85C576.425 391.243 634.983 369.502 714.516 352.048C760.474 341.724 808.642 332.894 858.507 325.651C1013.37 303.603 1114.76 312.53 1306.44 324.115C1350.9 326.819 1398.06 329.738 1448.53 332.319C1705.6 345.41 2001.83 357.64 2080.55 297.749" stroke="#C3E1FA" stroke-miterlimit="10"/>
<path d="M-183.377 110.162C123.155 303.756 334.999 366.259 487.476 376.338C590.812 383.16 652.037 363.463 731.57 347.299C778.242 337.583 826.468 328.988 875.965 321.563C1028.44 299.192 1129.56 303.863 1322 314.496C1366.66 316.985 1413.7 319.919 1463.73 322.731C1721.85 337.235 2014.31 357.025 2098.21 300.376" stroke="#C3E1FA" stroke-miterlimit="10"/>
<path d="M-166.727 100.145C135.561 290.451 347.406 354.537 501.823 366.828C605.441 375.064 669.375 357.441 748.745 342.568C794.371 334.025 841.089 325.405 893.585 317.477C1043.72 294.799 1144.55 295.183 1337.72 304.955C1382.5 307.244 1429.46 310.194 1479.17 313.237C1738.33 329.154 2027.08 356.503 2116.03 303.081" stroke="#C3E1FA" stroke-miterlimit="10"/>
<path d="M-150.075 90.1264C147.969 277.098 359.531 342.782 516.049 357.302C619.951 366.966 686.713 351.448 765.882 337.835C812.599 329.799 859.437 321.425 911.125 313.39C1058.92 290.343 1159.42 286.517 1353.36 295.413C1398.26 297.487 1445.18 300.453 1494.36 303.741C1754.54 321.103 2039.61 355.98 2133.65 305.784" stroke="#C3E1FA" stroke-miterlimit="10"/>
<path d="M-133.507 80.1128C160.335 263.858 372.098 331.017 530.274 347.78C634.458 358.827 704.049 345.475 783.016 333.091C830.865 325.593 877.784 317.45 928.502 309.291C1073.99 285.968 1174.13 277.825 1369 285.845C1414.06 287.735 1460.86 290.716 1509.64 294.219C1770.87 313.056 2052.22 355.462 2151.35 308.492" stroke="#C3E1FA" stroke-miterlimit="10"/>
<path d="M-116.735 70.11C172.743 250.567 384.385 319.217 544.541 338.269C649.048 350.714 721.428 339.544 800.111 328.374C849.092 321.429 896.173 313.486 946.204 305.219C1089.27 281.573 1189.21 269.174 1384.64 276.319C1431.76 278.228 1478.6 281.054 1524.96 284.784C1787.15 305.02 2064.95 354.909 2169.06 311.212" stroke="#C3E1FA" stroke-miterlimit="10"/>
<path d="M-100.085 60.0925C185.149 237.262 396.993 307.463 558.644 328.758C663.475 342.586 738.683 333.629 817.286 323.642C867.398 317.265 914.56 309.522 963.742 301.133C1104.5 277.164 1204.12 260.493 1400.2 266.777C1447.28 268.455 1494.03 271.282 1540.15 275.243C1803.44 297.076 2077.44 354.386 2186.8 313.977" stroke="#C3E1FA" stroke-miterlimit="10"/>
<path d="M-83.4344 50.0736C197.516 223.97 409.602 295.6 573.032 319.246C678.105 334.427 756.182 327.743 834.381 318.924C885.625 313.131 932.867 305.541 981.242 297.044C1119.62 272.753 1218.99 251.826 1415.92 257.235C1462.96 258.699 1509.63 261.545 1555.51 265.747C1819.69 289.024 2090.05 353.847 2204.5 316.619" stroke="#C3E1FA" stroke-miterlimit="10"/>
<path d="M-66.7433 40.0554C209.923 210.603 421.888 283.784 587.258 309.72C692.776 326.283 773.561 321.889 851.477 314.191C904.014 309.013 951.216 301.577 998.782 292.957C1134.81 268.374 1233.86 243.145 1431.56 247.677C1478.55 248.939 1525.15 251.803 1570.79 256.236C1835.93 281.034 2102.66 353.325 2222.2 319.323" stroke="#C3E1FA" stroke-miterlimit="10"/>
<path d="M-50.0945 30.0359C222.126 197.372 434.415 271.936 601.522 300.146C707.404 318.061 790.896 315.987 868.61 309.365C922.157 304.755 969.642 297.503 1016.32 288.776C1150 263.839 1248.77 234.37 1447.2 238.073C1494.14 239.131 1540.67 242.014 1586.06 246.677C1852.18 273.012 2115.47 352.693 2239.9 321.963" stroke="#C3E1FA" stroke-miterlimit="10"/>
<path d="M-33.4437 20.0219C234.695 184.07 446.984 260.094 615.748 290.685C722.074 309.968 808.234 310.244 885.746 304.728C940.425 300.826 987.95 293.62 1033.86 284.754C1165.16 259.495 1263.65 225.769 1462.84 228.566C1509.73 229.413 1556.2 232.316 1601.34 237.216C1868.38 265.134 2127.88 352.266 2257.6 324.733" stroke="#C3E1FA" stroke-miterlimit="10"/>
<path d="M-16.752 10.0194C247.103 170.779 459.554 248.171 629.853 281.174C736.584 301.793 825.371 304.451 902.68 299.996C958.491 296.784 1006.14 289.655 1051.2 280.713C1180.2 255.116 1278.4 217.119 1478.32 219.055C1525.16 219.707 1571.6 222.629 1616.49 227.751C1884.27 257.374 2140.32 351.728 2275.22 327.452" stroke="#C3E1FA" stroke-miterlimit="10"/>
<path d="M-0.145508 0.000263145C421.118 255.591 718.88 304.174 919.974 295.262C1139.5 285.536 1223.27 208.083 1494.12 209.497C1811.84 211.172 2129.37 354.769 2293 330.155" stroke="#C3E1FA" stroke-miterlimit="10"/>
</svg>
