<svg aria-hidden="true" style="position: absolute; width: 0; height: 0; overflow: hidden;" version="1.1"
     xmlns="http://www.w3.org/2000/svg" xmlns:xlink="http://www.w3.org/1999/xlink">
    <defs>
        <symbol id="arrow-right" viewBox="0 0 25 25">
            <path stroke-width="1.7857" stroke-miterlimit="4" stroke-linecap="round" stroke-linejoin="round"
                  d="M8.75 21.25l8.75-8.75-8.75-8.75"></path>
        </symbol>
        <symbol id="arrow-left" viewBox="0 0 25 25">
            <path stroke-width="1.7857" stroke-miterlimit="4" stroke-linecap="round" stroke-linejoin="round"
                  d="M16.25 21.25l-8.75-8.75 8.75-8.75"></path>
        </symbol>
        <symbol id="star" width="24" height="25" viewBox="0 0 24 25">
            <path d="M21 10.7066C20.9911 10.9186 20.879 11.1607 20.6616 11.3519C19.791 12.1167 18.9199 12.8807 18.0484 13.6441C17.6415 14.0011 17.234 14.3576 16.826 14.7136C16.7677 14.7642 16.7528 14.8092 16.7708 14.8878C17.084 16.2566 17.3947 17.6259 17.7028 18.9958C17.7652 19.2712 17.8266 19.547 17.894 19.8213C17.9923 20.2276 17.8668 20.6291 17.5501 20.8564C17.2017 21.1064 16.8317 21.1226 16.4634 20.9042C15.2903 20.2068 14.1187 19.5066 12.9486 18.8037C12.6754 18.6405 12.3989 18.481 12.1303 18.3118C12.0404 18.2552 11.9751 18.2547 11.8829 18.3102C10.4599 19.1643 9.03387 20.0132 7.61258 20.8671C7.31073 21.0483 7.00243 21.1164 6.6688 20.9795C6.22738 20.7983 5.99675 20.3342 6.10645 19.8519C6.41666 18.4868 6.72735 17.1217 7.03852 15.7565C7.104 15.4697 7.16256 15.1808 7.23354 14.8962C7.25409 14.814 7.23975 14.7654 7.17737 14.7112C6.64267 14.2461 6.10932 13.7794 5.57732 13.3112C4.8319 12.6568 4.08362 12.007 3.3425 11.3478C3.03994 11.0792 2.92522 10.7363 3.04926 10.3441C3.1733 9.95189 3.45053 9.71577 3.86399 9.67323C4.59674 9.59818 5.33068 9.53533 6.06415 9.46817C6.78973 9.40173 7.51531 9.33577 8.24089 9.27029C8.48275 9.24854 8.72461 9.22416 8.96671 9.20576C9.04462 9.20002 9.08621 9.16585 9.11536 9.09487C9.77259 7.5505 10.4309 6.00677 11.0904 4.46367C11.2725 4.03707 11.5978 3.7988 12.0112 3.80955C12.4247 3.82031 12.723 4.02226 12.8869 4.40201C13.3331 5.43518 13.7736 6.47073 14.2159 7.50581C14.4411 8.03159 14.6667 8.55881 14.888 9.08698C14.9219 9.16824 14.9704 9.19978 15.0553 9.20648C15.6384 9.25587 16.2214 9.30765 16.8042 9.36182C17.6528 9.43894 18.5013 9.51669 19.3497 9.59508C19.6193 9.61898 19.8891 9.64288 20.158 9.67299C20.647 9.73083 21.0038 10.1388 21 10.7066Z" stroke-width="1"/>
        </symbol>
    </defs>
</svg>
