<svg width="444" height="400" viewBox="0 0 444 400" fill="none" xmlns="http://www.w3.org/2000/svg">
<g clip-path="url(#clip0_1_2664)">
<path d="M405.07 78.2234C403.564 75.7283 402.004 73.2785 400.362 70.8829C378.591 39.008 342.353 17.1856 307.139 7.30491C291.709 2.96573 275.871 0.696701 260.06 0.118144C156.342 -3.63344 118.235 81.5953 84.8175 103.562C51.3999 125.538 0.112375 163.072 6.55279 241.919C11.433 301.872 45.6579 359.194 108.157 385.274C115.042 388.158 122.272 390.662 129.846 392.732C143.933 396.592 159.2 399.024 175.655 399.747C222.905 401.845 261.276 390.491 298.803 361.906C307.529 355.262 316.201 347.768 327.521 346.945C335.749 346.348 343.55 349.295 334.951 357.224C324.845 366.535 336.502 384.859 362.173 372.13C405.033 350.868 422.667 305 430.976 258.363C441.172 201.112 436.228 129.914 405.07 78.2234Z" fill="#F5F9FE"/>
<path d="M30.293 333.213H426.37" stroke="#2D2E2E" stroke-linecap="round" stroke-linejoin="round"/>
<path d="M15.5977 333.213H24.0156" stroke="#2D2E2E" stroke-linecap="round" stroke-linejoin="round"/>
<path d="M356.785 222.879C356.785 222.879 354.508 229.117 349.674 229.966C344.839 230.816 336.294 221.46 341.709 216.633C347.115 211.814 354.517 219.471 356.794 222.87L356.785 222.879Z" fill="#3246A8" stroke="#2D2E2E" stroke-linecap="round" stroke-linejoin="round"/>
<path d="M364.187 192.252C364.187 192.252 357.075 209.555 359.914 218.061C362.763 226.568 380.406 232.806 385.531 221.75C390.656 210.685 379.272 195.091 375 191.683C370.727 188.284 365.611 189.414 364.187 192.252Z" fill="#3246A8" stroke="#2D2E2E" stroke-linecap="round" stroke-linejoin="round"/>
<path d="M405.741 199.629C405.741 199.629 393.504 210.694 392.08 221.75C390.656 232.815 398.911 236.784 407.446 235.364C415.982 233.945 420.255 212.394 417.688 202.468C415.13 192.542 405.732 199.629 405.732 199.629H405.741Z" fill="#3246A8" stroke="#2D2E2E" stroke-linecap="round" stroke-linejoin="round"/>
<path d="M408.017 260.883C408.017 260.883 394.356 261.452 393.785 267.97C393.213 274.497 399.763 275.907 406.303 270.239C412.852 264.571 413.705 261.163 408.008 260.883H408.017Z" fill="#3246A8" stroke="#2D2E2E" stroke-linecap="round" stroke-linejoin="round"/>
<path d="M394.012 269.536C394.012 269.536 404.779 264.627 409.623 263.777" stroke="#2D2E2E" stroke-linecap="round" stroke-linejoin="round"/>
<path d="M374.146 274.496C374.146 274.496 372.722 281.304 367.597 283.853C362.472 286.402 353.365 281.014 358.209 272.788C363.044 264.562 371.588 271.088 374.146 274.487V274.496Z" fill="#3246A8" stroke="#2D2E2E" stroke-linecap="round" stroke-linejoin="round"/>
<path d="M362.2 253.227C362.2 253.227 359.642 247.559 349.682 251.238C339.722 254.926 335.74 260.594 341.999 262.583C348.258 264.572 362.209 253.227 362.209 253.227H362.2Z" fill="#3246A8" stroke="#2D2E2E" stroke-linecap="round" stroke-linejoin="round"/>
<path d="M360.287 252.973C360.287 252.973 349.737 254.112 344.031 258.939" stroke="#2D2E2E" stroke-linecap="round" stroke-linejoin="round"/>
<path d="M390.656 185.165C390.656 185.165 392.362 189.133 395.781 188.283C399.192 187.434 400.054 182.326 405.46 183.745C410.866 185.165 415.42 191.402 415.42 188.564C415.42 185.725 408.59 178.357 400.907 178.357C393.223 178.357 390.947 181.476 390.665 185.165H390.656Z" fill="#3246A8" stroke="#2D2E2E" stroke-linecap="round" stroke-linejoin="round"/>
<path d="M383.808 298.77C383.808 298.77 385.087 275.04 383.808 260.205C382.529 245.371 376.578 227.996 376.578 227.996L369.412 196.121" stroke="#2D2E2E" stroke-linecap="round" stroke-linejoin="round"/>
<path d="M386.783 298.77C386.783 298.77 387.21 279.28 388.906 266.561C390.611 253.85 397.414 233.926 397.414 233.926L410.195 206.635" stroke="#2D2E2E" stroke-linecap="round" stroke-linejoin="round"/>
<path d="M394.013 269.535C394.013 269.535 391.037 270.385 389.332 299.204" stroke="#2D2E2E" stroke-linecap="round" stroke-linejoin="round"/>
<path d="M379.553 298.353C379.553 298.353 380.406 283.093 378.7 277.588C376.995 272.083 374.147 274.506 374.147 274.506C374.147 274.506 366.273 275.428 363.425 279.975" stroke="#2D2E2E" stroke-linecap="round" stroke-linejoin="round"/>
<path d="M381.504 271.768C383.726 284.188 381.676 297.92 381.676 297.92" stroke="#2D2E2E" stroke-linecap="round" stroke-linejoin="round"/>
<path d="M362.2 253.226C362.2 253.226 374.455 250.885 379.553 264.445C380.052 265.774 380.478 267.166 380.832 268.594" stroke="#2D2E2E" stroke-linecap="round" stroke-linejoin="round"/>
<path d="M413.343 240.09C413.343 240.09 415.901 234.422 425.861 238.101C435.821 241.79 439.803 247.458 433.544 249.446C427.285 251.435 413.334 240.09 413.334 240.09H413.343Z" fill="#3246A8" stroke="#2D2E2E" stroke-linecap="round" stroke-linejoin="round"/>
<path d="M415.61 240.462C415.61 240.462 425.879 239.892 430.723 245.859" stroke="#2D2E2E" stroke-linecap="round" stroke-linejoin="round"/>
<path d="M402.448 242.578C399.981 244.26 397.622 246.972 395.981 251.311C390.874 264.871 391.463 298.355 391.463 298.355" stroke="#2D2E2E" stroke-linecap="round" stroke-linejoin="round"/>
<path d="M413.343 240.093C413.343 240.093 409.279 239.315 404.861 241.241" stroke="#2D2E2E" stroke-linecap="round" stroke-linejoin="round"/>
<path d="M370.21 231.531C372.868 234.641 375.444 238.845 377.43 244.522C384.234 264.012 386.783 289.016 385.513 298.346" stroke="#2D2E2E" stroke-linecap="round" stroke-linejoin="round"/>
<path d="M368.731 229.922C362.726 223.811 356.794 222.889 356.794 222.889C356.794 222.889 348.031 220.574 344.611 223.702" stroke="#2D2E2E" stroke-linecap="round" stroke-linejoin="round"/>
<path d="M387.491 249.781C387.073 274.388 386.783 298.778 386.783 298.778" stroke="#2D2E2E" stroke-linecap="round" stroke-linejoin="round"/>
<path d="M387.545 246.716C387.826 230.444 388.153 214.525 388.488 205.964C389.341 183.925 390.656 185.163 390.656 185.163C390.656 185.163 392.235 180.218 401.07 180.788" stroke="#2D2E2E" stroke-linecap="round" stroke-linejoin="round"/>
<path d="M400.408 341.999H372.741C370.845 341.999 369.258 340.562 369.077 338.682L365.104 297.93H408.055L404.082 338.682C403.9 340.562 402.313 341.999 400.417 341.999H400.408Z" fill="#2D2E2E" stroke="#2D2E2E" stroke-linecap="round" stroke-linejoin="round"/>
<path d="M366.373 311.064L366.827 315.729H406.313L406.766 311.064H366.373Z" fill="white" stroke="#2D2E2E" stroke-linecap="round" stroke-linejoin="round"/>
<path d="M405.324 325.899L405.569 323.35H367.57L367.824 325.899H405.324Z" fill="white" stroke="#2D2E2E" stroke-linecap="round" stroke-linejoin="round"/>
<path d="M46.2394 139.615V147.634" stroke="#2D2E2E" stroke-linecap="round" stroke-linejoin="round"/>
<path d="M50.2579 143.629H42.2119" stroke="#2D2E2E" stroke-linecap="round" stroke-linejoin="round"/>
<path d="M388.389 160.271V168.29" stroke="#2D2E2E" stroke-linecap="round" stroke-linejoin="round"/>
<path d="M392.407 164.275H384.361" stroke="#2D2E2E" stroke-linecap="round" stroke-linejoin="round"/>
<path d="M345.112 67.7461V75.7645" stroke="#2D2E2E" stroke-linecap="round" stroke-linejoin="round"/>
<path d="M349.13 71.7598H341.084" stroke="#2D2E2E" stroke-linecap="round" stroke-linejoin="round"/>
<path d="M182.468 21.1367V29.1552" stroke="#2D2E2E" stroke-linecap="round" stroke-linejoin="round"/>
<path d="M186.486 25.1505H178.44" stroke="#2D2E2E" stroke-linecap="round" stroke-linejoin="round"/>
<path d="M132.206 310.857V318.876" stroke="#2D2E2E" stroke-linecap="round" stroke-linejoin="round"/>
<path d="M136.233 314.861H128.188" stroke="#2D2E2E" stroke-linecap="round" stroke-linejoin="round"/>
<path d="M32.3876 252.785V260.804" stroke="#2D2E2E" stroke-linecap="round" stroke-linejoin="round"/>
<path d="M36.4151 256.799H28.3691" stroke="#2D2E2E" stroke-linecap="round" stroke-linejoin="round"/>
<path d="M317.008 43.5343C317.85 39.972 315.634 36.4047 312.059 35.5666C308.484 34.7284 304.905 36.9368 304.064 40.4991C303.223 44.0614 305.439 47.6287 309.013 48.4668C312.588 49.305 316.167 47.0966 317.008 43.5343Z" stroke="#2D2E2E" stroke-linecap="round" stroke-linejoin="round"/>
<path d="M299.592 312.046C300.433 308.484 298.218 304.916 294.643 304.078C291.068 303.24 287.489 305.448 286.648 309.011C285.807 312.573 288.023 316.14 291.597 316.979C295.172 317.817 298.751 315.608 299.592 312.046Z" stroke="#2D2E2E" stroke-linecap="round" stroke-linejoin="round"/>
<path d="M32.478 201.208C35.8706 199.808 37.4817 195.931 36.0764 192.55C34.6711 189.169 30.7817 187.564 27.389 188.964C23.9964 190.365 22.3853 194.241 23.7906 197.622C25.1959 201.003 29.0853 202.608 32.478 201.208Z" stroke="#2D2E2E" stroke-linecap="round" stroke-linejoin="round"/>
<path d="M347.424 109.81C347.424 110.642 346.744 111.32 345.909 111.32C345.075 111.32 344.395 110.642 344.395 109.81C344.395 108.979 345.075 108.301 345.909 108.301C346.744 108.301 347.424 108.979 347.424 109.81Z" stroke="#2D2E2E" stroke-linecap="round" stroke-linejoin="round"/>
<path d="M109.291 42.1269C109.291 42.9585 108.611 43.6365 107.777 43.6365C106.942 43.6365 106.262 42.9585 106.262 42.1269C106.262 41.2952 106.942 40.6172 107.777 40.6172C108.611 40.6172 109.291 41.2952 109.291 42.1269Z" stroke="#2D2E2E" stroke-linecap="round" stroke-linejoin="round"/>
<path d="M232.721 307.052C232.721 307.884 232.041 308.562 231.206 308.562C230.372 308.562 229.691 307.884 229.691 307.052C229.691 306.221 230.372 305.543 231.206 305.543C232.041 305.543 232.721 306.221 232.721 307.052Z" stroke="#2D2E2E" stroke-linecap="round" stroke-linejoin="round"/>
<path d="M219.949 311.119L216.929 286.91H168.036L165.015 311.119C164.97 311.598 164.915 312.068 164.852 312.538C163.691 320.937 158.285 328.15 150.792 332.146L137.693 339.125H247.28L234.182 332.146C226.68 328.15 221.283 320.928 220.122 312.538C220.058 312.068 220.004 311.589 219.958 311.119H219.949Z" fill="white" stroke="#2D2E2E" stroke-linecap="round" stroke-linejoin="round"/>
<path d="M218.299 302.277L216.929 286.918H205.128H179.838H168.036L166.676 302.277H218.299Z" fill="#2D2E2E" stroke="#2D2E2E" stroke-linecap="round" stroke-linejoin="round"/>
<path d="M247.126 339.135H137.693V342H247.126V339.135Z" fill="white" stroke="#2D2E2E" stroke-linecap="round" stroke-linejoin="round"/>
<path d="M169.197 322.592H209.073" stroke="#2D2E2E" stroke-linecap="round" stroke-linejoin="round"/>
<path d="M219.351 322.592H214.416" stroke="#2D2E2E" stroke-linecap="round" stroke-linejoin="round"/>
<path d="M67.8462 79.7598H317.118C321.1 79.7598 324.329 82.978 324.329 86.9465V282.598C324.329 287.688 320.184 291.819 315.077 291.819H69.8872C64.7802 291.819 60.6348 287.688 60.6348 282.598V86.9465C60.6348 82.978 63.864 79.7598 67.8462 79.7598Z" fill="white" stroke="#2D2E2E" stroke-linecap="round" stroke-linejoin="round"/>
<path d="M324.329 256.672V87.498C324.329 83.2221 320.855 79.7598 316.564 79.7598H68.3996C64.109 79.7598 60.6348 83.2221 60.6348 87.498V256.672H324.329Z" fill="#2D2E2E" stroke="#2D2E2E" stroke-linecap="round" stroke-linejoin="round"/>
<path d="M312.464 88.1036H72.5087V256.681H312.464V88.1036Z" fill="white" stroke="#2D2E2E" stroke-linecap="round" stroke-linejoin="round"/>
<path d="M103.096 99.377H256.577C259.789 99.377 262.392 101.971 262.392 105.172V114.862H97.2814V105.172C97.2814 101.971 99.8848 99.377 103.096 99.377Z" fill="#2D2E2E" stroke="#2D2E2E" stroke-linecap="round" stroke-linejoin="round"/>
<path d="M231.877 107.125C231.877 108.445 230.807 109.511 229.483 109.511C228.158 109.511 227.088 108.445 227.088 107.125C227.088 105.805 228.158 104.738 229.483 104.738C230.807 104.738 231.877 105.805 231.877 107.125Z" fill="white" stroke="#2D2E2E" stroke-linecap="round" stroke-linejoin="round"/>
<path d="M241.448 107.125C241.448 108.445 240.377 109.511 239.053 109.511C237.729 109.511 236.658 108.445 236.658 107.125C236.658 105.805 237.729 104.738 239.053 104.738C240.377 104.738 241.448 105.805 241.448 107.125Z" fill="white" stroke="#2D2E2E" stroke-linecap="round" stroke-linejoin="round"/>
<path d="M251.026 107.125C251.026 108.445 249.955 109.511 248.631 109.511C247.307 109.511 246.236 108.445 246.236 107.125C246.236 105.805 247.307 104.738 248.631 104.738C249.955 104.738 251.026 105.805 251.026 107.125Z" fill="white" stroke="#2D2E2E" stroke-linecap="round" stroke-linejoin="round"/>
<path d="M103.096 99.377H256.578C259.789 99.377 262.392 101.971 262.392 105.172V233.15C262.392 236.314 259.816 238.891 256.632 238.891H103.033C99.8577 238.891 97.2725 236.323 97.2725 233.15V105.172C97.2725 101.971 99.8758 99.377 103.087 99.377H103.096Z" stroke="#2D2E2E" stroke-linecap="round" stroke-linejoin="round"/>
<path d="M105.155 111.346V239.37" stroke="#2D2E2E" stroke-width="0.25" stroke-linecap="round" stroke-linejoin="round"/>
<path d="M115.151 111.346V239.37" stroke="#2D2E2E" stroke-width="0.25" stroke-linecap="round" stroke-linejoin="round"/>
<path d="M125.148 111.346V239.37" stroke="#2D2E2E" stroke-width="0.25" stroke-linecap="round" stroke-linejoin="round"/>
<path d="M135.144 111.346V239.37" stroke="#2D2E2E" stroke-width="0.25" stroke-linecap="round" stroke-linejoin="round"/>
<path d="M145.131 111.346V239.37" stroke="#2D2E2E" stroke-width="0.25" stroke-linecap="round" stroke-linejoin="round"/>
<path d="M155.127 111.346V239.37" stroke="#2D2E2E" stroke-width="0.25" stroke-linecap="round" stroke-linejoin="round"/>
<path d="M165.124 111.346V239.37" stroke="#2D2E2E" stroke-width="0.25" stroke-linecap="round" stroke-linejoin="round"/>
<path d="M175.12 111.346V239.37" stroke="#2D2E2E" stroke-width="0.25" stroke-linecap="round" stroke-linejoin="round"/>
<path d="M185.116 111.346V239.37" stroke="#2D2E2E" stroke-width="0.25" stroke-linecap="round" stroke-linejoin="round"/>
<path d="M195.112 111.346V239.37" stroke="#2D2E2E" stroke-width="0.25" stroke-linecap="round" stroke-linejoin="round"/>
<path d="M205.109 111.346V239.37" stroke="#2D2E2E" stroke-width="0.25" stroke-linecap="round" stroke-linejoin="round"/>
<path d="M215.096 111.346V239.37" stroke="#2D2E2E" stroke-width="0.25" stroke-linecap="round" stroke-linejoin="round"/>
<path d="M225.092 111.346V239.37" stroke="#2D2E2E" stroke-width="0.25" stroke-linecap="round" stroke-linejoin="round"/>
<path d="M235.088 111.346V239.37" stroke="#2D2E2E" stroke-width="0.25" stroke-linecap="round" stroke-linejoin="round"/>
<path d="M245.085 111.346V239.37" stroke="#2D2E2E" stroke-width="0.25" stroke-linecap="round" stroke-linejoin="round"/>
<path d="M255.081 111.346V239.37" stroke="#2D2E2E" stroke-width="0.25" stroke-linecap="round" stroke-linejoin="round"/>
<path d="M97.5176 124.264H262.719" stroke="#2D2E2E" stroke-width="0.25" stroke-linecap="round" stroke-linejoin="round"/>
<path d="M97.5176 136.332H262.719" stroke="#2D2E2E" stroke-width="0.25" stroke-linecap="round" stroke-linejoin="round"/>
<path d="M97.5176 148.41H262.719" stroke="#2D2E2E" stroke-width="0.25" stroke-linecap="round" stroke-linejoin="round"/>
<path d="M97.5176 160.477H262.719" stroke="#2D2E2E" stroke-width="0.25" stroke-linecap="round" stroke-linejoin="round"/>
<path d="M97.5176 172.555H262.719" stroke="#2D2E2E" stroke-width="0.25" stroke-linecap="round" stroke-linejoin="round"/>
<path d="M97.5174 184.633H262.719" stroke="#2D2E2E" stroke-width="0.25" stroke-linecap="round" stroke-linejoin="round"/>
<path d="M97.5174 196.701H262.719" stroke="#2D2E2E" stroke-width="0.25" stroke-linecap="round" stroke-linejoin="round"/>
<path d="M97.5176 208.779H262.719" stroke="#2D2E2E" stroke-width="0.25" stroke-linecap="round" stroke-linejoin="round"/>
<path d="M97.5176 220.848H262.719" stroke="#2D2E2E" stroke-width="0.25" stroke-linecap="round" stroke-linejoin="round"/>
<path d="M97.5176 232.924H262.719" stroke="#2D2E2E" stroke-width="0.25" stroke-linecap="round" stroke-linejoin="round"/>
<path d="M333.046 160.252C333.046 160.252 328.846 163.841 328.846 164.582C328.846 165.323 327.648 173.098 327.648 173.098L333.345 175.493L335.749 171.461C335.749 171.461 336.946 169.816 337.844 168.324C338.742 166.833 340.847 165.188 340.847 165.188L338.597 164.736L335.894 167.574L335.595 163.542L333.046 160.252Z" fill="white" stroke="#2D2E2E" stroke-linecap="round" stroke-linejoin="round"/>
<path d="M327.649 173.107C327.649 173.107 319.403 182.671 316.854 185.961C314.305 189.252 307.103 196.574 304.554 201.203C302.005 205.84 302.604 211.517 304.853 213.307C307.103 215.097 315.947 211.219 319.703 203.589C323.449 195.969 333.345 175.493 333.345 175.493L327.649 173.098V173.107Z" fill="white" stroke="#2D2E2E" stroke-linecap="round" stroke-linejoin="round"/>
<path d="M337.545 142.77C337.545 142.77 336.348 147.1 335.45 149.044C334.552 150.987 330.198 152.633 330.651 153.229C331.105 153.826 333.355 155.769 333.355 155.769C333.355 155.769 333.509 165.632 334.851 165.93C336.203 166.229 340.847 165.18 340.847 165.18L339.949 172.059L351.497 170.414L352.549 160.696C352.549 160.696 357.647 156.809 357.647 153.075C357.647 149.342 351.651 141.866 345.945 140.374C340.248 138.883 339.196 139.922 337.545 142.77Z" fill="white" stroke="#2D2E2E" stroke-linecap="round" stroke-linejoin="round"/>
<path d="M337.636 149.639C337.509 150.39 337.155 150.95 336.838 150.896C336.52 150.842 336.366 150.2 336.493 149.45C336.62 148.699 336.974 148.139 337.291 148.193C337.609 148.247 337.763 148.889 337.636 149.639Z" fill="#2D2E2E"/>
<path d="M337.491 146.874C337.491 146.44 338.507 145.861 338.798 147.308" stroke="#2D2E2E" stroke-linecap="round" stroke-linejoin="round"/>
<path d="M334.026 157.405C334.026 157.405 334.896 157.549 336.194 156.826" stroke="#2D2E2E" stroke-linecap="round" stroke-linejoin="round"/>
<path d="M343.849 132.599C343.849 132.599 346.099 128.567 341.899 129.462C337.699 130.357 332.003 138.574 334.098 142.316C336.193 146.05 339.051 144.558 339.051 144.558C339.051 144.558 340.402 146.502 341.455 147.551C342.507 148.599 343.858 149.639 343.858 149.639C343.858 149.639 344.911 158.606 346.707 160.993C348.503 163.389 350.607 164.13 352.258 163.235C353.909 162.34 356.757 160.243 356.757 160.243C356.757 160.243 363.96 154.864 364.404 150.082C364.858 145.3 364.558 142.307 361.855 139.026C359.152 135.735 355.106 134.244 355.106 134.244C355.106 134.244 356.304 130.212 352.703 129.914C349.101 129.615 343.858 132.608 343.858 132.608L343.849 132.599Z" fill="#2D2E2E" stroke="#2D2E2E" stroke-linecap="round" stroke-linejoin="round"/>
<path d="M341.745 151.14C341.745 151.14 344.747 147.253 346.09 148.6C347.432 149.947 346.244 154.874 345.192 156.519C344.14 158.164 341.591 156.817 341.445 156.067" fill="white"/>
<path d="M341.745 151.14C341.745 151.14 344.747 147.253 346.09 148.6C347.432 149.947 346.244 154.874 345.192 156.519C344.14 158.164 341.591 156.817 341.445 156.067" stroke="#2D2E2E" stroke-linecap="round" stroke-linejoin="round"/>
<path d="M333.645 176.541L338.298 171.162L354.599 169.436L355.841 174.597L333.645 176.541Z" fill="white" stroke="#2D2E2E" stroke-linecap="round" stroke-linejoin="round"/>
<path d="M363.298 235.808L361.23 232.906L361.121 246.909C361.121 246.909 365.366 242.886 365.566 240.672C365.765 238.457 363.298 235.808 363.298 235.808Z" fill="white" stroke="#2D2E2E" stroke-linecap="round" stroke-linejoin="round"/>
<path d="M369.04 178.783C369.04 178.783 386.139 213.46 387.336 215.847C388.533 218.243 385.984 219.138 385.984 219.138L365.566 240.662L363.298 235.798L372.033 214.5L364.087 201.799C364.087 201.799 368.432 180.13 369.04 178.783Z" fill="white" stroke="#2D2E2E" stroke-linecap="round" stroke-linejoin="round"/>
<path d="M369.249 189.912L372.042 214.501L367.598 206.971L369.249 189.912Z" fill="#2D2E2E" stroke="#2D2E2E" stroke-linecap="round" stroke-linejoin="round"/>
<path d="M322.741 234.588C322.741 234.588 322.741 234.968 322.723 235.664C322.623 242.959 322.134 285.401 323.394 300.561C324.773 317.177 327.349 341.919 327.349 341.919C327.349 341.919 325.626 342.435 325.626 343.302C325.626 344.17 325.109 346.765 325.109 346.765C325.109 346.765 321.326 348.844 318.741 349.703C316.156 350.561 314.097 352.297 315.303 353.165C316.51 354.033 322.179 354.72 327.857 355.416C333.536 356.112 337.836 356.284 338.525 355.588C339.214 354.892 339.042 351.086 338.87 349.703C338.697 348.32 339.042 345.553 338.87 343.302C338.697 341.051 337.836 339.153 337.836 337.761C337.836 336.369 338.697 294.848 338.697 294.848L341.273 279.272L343.677 269.41C343.677 269.41 345.056 294.848 345.573 296.06C346.09 297.271 354.88 342.76 354.88 342.76L353.846 344.487L354.018 346.738C354.018 346.738 352.122 348.645 349.719 349.856C347.315 351.068 345.074 351.764 346.798 353.147C348.521 354.53 355.569 354.874 357.12 355.054C358.672 355.226 364.169 355.398 364.858 355.226C365.547 355.054 366.582 355.226 366.754 352.803C366.926 350.381 366.237 347.786 366.065 347.09C365.892 346.394 365.375 343.971 365.203 341.729C365.03 339.478 364.513 337.228 364.513 337.228L361.919 291.738L362.781 247.09C362.781 247.09 362.781 242.941 362.264 239.307C361.747 235.673 361.23 232.906 361.23 232.906L323.394 231.352" fill="#2D2E2E"/>
<path d="M322.741 234.588C322.741 234.588 322.741 234.968 322.723 235.664C322.623 242.959 322.134 285.401 323.394 300.561C324.773 317.177 327.349 341.919 327.349 341.919C327.349 341.919 325.626 342.435 325.626 343.302C325.626 344.17 325.109 346.765 325.109 346.765C325.109 346.765 321.326 348.844 318.741 349.703C316.156 350.561 314.097 352.297 315.303 353.165C316.51 354.033 322.179 354.72 327.857 355.416C333.536 356.112 337.836 356.284 338.525 355.588C339.214 354.892 339.042 351.086 338.87 349.703C338.697 348.32 339.042 345.553 338.87 343.302C338.697 341.051 337.836 339.153 337.836 337.761C337.836 336.369 338.697 294.848 338.697 294.848L341.273 279.272L343.677 269.41C343.677 269.41 345.056 294.848 345.573 296.06C346.09 297.271 354.88 342.76 354.88 342.76L353.846 344.487L354.018 346.738C354.018 346.738 352.122 348.645 349.719 349.856C347.315 351.068 345.074 351.764 346.798 353.147C348.521 354.53 355.569 354.874 357.12 355.054C358.672 355.226 364.169 355.398 364.858 355.226C365.547 355.054 366.582 355.226 366.754 352.803C366.926 350.381 366.237 347.786 366.065 347.09C365.892 346.394 365.375 343.971 365.203 341.729C365.03 339.478 364.513 337.228 364.513 337.228L361.919 291.738L362.781 247.09C362.781 247.09 362.781 242.941 362.264 239.307C361.747 235.673 361.23 232.906 361.23 232.906L323.394 231.352" stroke="#2D2E2E" stroke-linecap="round" stroke-linejoin="round"/>
<path d="M306.659 204.791L317.453 192.388C317.453 192.388 325.1 179.389 325.699 178.187C326.297 176.993 333.645 176.541 333.645 176.541L355.842 174.598C355.842 174.598 368.741 177.735 369.04 178.783C369.339 179.832 368.459 201.311 368.006 204.294C367.552 207.286 362.137 235.274 361.692 236.919C361.239 238.564 354.944 239.459 344.448 240.056C333.953 240.653 324.955 236.919 324.202 236.322C323.449 235.726 322.705 235.129 322.85 234.081C323.005 233.032 325.254 207.63 325.254 207.63C325.254 207.63 313.861 215.549 311.158 216.145C308.455 216.742 303.81 214.057 303.212 210.315C302.613 206.581 304.863 204.637 304.863 204.637" fill="white"/>
<path d="M306.659 204.791L317.453 192.388C317.453 192.388 325.1 179.389 325.699 178.187C326.297 176.993 333.645 176.541 333.645 176.541L355.842 174.598C355.842 174.598 368.741 177.735 369.04 178.783C369.339 179.832 368.459 201.311 368.006 204.294C367.552 207.286 362.137 235.274 361.692 236.919C361.239 238.564 354.944 239.459 344.448 240.056C333.953 240.653 324.955 236.919 324.202 236.322C323.449 235.726 322.705 235.129 322.85 234.081C323.005 233.032 325.254 207.63 325.254 207.63C325.254 207.63 313.861 215.549 311.158 216.145C308.455 216.742 303.81 214.057 303.212 210.315C302.613 206.581 304.863 204.637 304.863 204.637" stroke="#2D2E2E" stroke-linecap="round" stroke-linejoin="round"/>
<path d="M356.731 191.213C356.731 191.213 347.632 208.968 343.46 214.265" stroke="#2D2E2E" stroke-linecap="round" stroke-linejoin="round"/>
<path d="M352.939 202.549L348.013 211.237" stroke="#2D2E2E" stroke-linecap="round" stroke-linejoin="round"/>
<path d="M335.45 197.768L325.254 207.63L334.253 203.743" stroke="#2D2E2E" stroke-linecap="round" stroke-linejoin="round"/>
<path d="M181.923 256.609H205.581L206.388 212.313L196.818 153.879L169.433 154.24L182.404 217.809L181.923 256.609Z" fill="white" stroke="#2D2E2E" stroke-linecap="round" stroke-linejoin="round"/>
<path d="M199.303 214.944L205.508 256.609H238.427C237.238 251.845 227.215 211.563 227.215 209.095C227.215 206.473 220.14 162.729 218.316 160.107C216.493 157.486 192.019 147.406 192.019 147.406L194.45 161.518L199.303 214.935V214.944Z" fill="#3246A8" stroke="#2D2E2E" stroke-linecap="round" stroke-linejoin="round"/>
<path d="M215.078 179.67C217.119 188.963 219.332 198.383 220.348 207.847C221.446 218.026 219.731 228.892 219.16 239.09C218.933 243.148 219.096 247.027 219.359 251.095" stroke="#929292" stroke-linecap="round" stroke-linejoin="round"/>
<path d="M160.652 136.629C167.526 136.629 173.098 131.222 173.098 124.552C173.098 117.882 167.526 112.475 160.652 112.475C153.779 112.475 148.207 117.882 148.207 124.552C148.207 131.222 153.779 136.629 160.652 136.629Z" fill="#FF7294" stroke="#2D2E2E" stroke-linecap="round" stroke-linejoin="round"/>
<path d="M135.525 256.609H181.987C182.495 251.203 185.234 222.158 186.15 215.947C187.157 209.095 176.036 164.745 176.036 164.745L167.537 145.391L133.148 159.095L146.292 229.444L135.516 256.6L135.525 256.609Z" fill="#3246A8" stroke="#2D2E2E" stroke-linecap="round" stroke-linejoin="round"/>
<path d="M168.998 139.848C168.998 139.848 167.546 139.848 166.086 141.62C165.206 142.695 163.446 150.47 163.174 152.088C162.693 154.99 162.04 176.243 162.04 176.243C162.04 176.243 177.878 168.188 178.522 168.188C179.166 168.188 186.278 171.244 186.278 171.244C186.278 171.244 188.536 170.918 189.19 170.439C189.834 169.96 193.716 164.644 193.716 164.644L207.45 173.341C207.45 173.341 197.109 149.34 194.687 145.48C192.265 141.611 190.487 140.49 188.872 140.002C187.257 139.522 168.998 139.839 168.998 139.839V139.848Z" fill="white" stroke="#2D2E2E" stroke-linecap="round" stroke-linejoin="round"/>
<path d="M168.516 118.595C168.516 118.595 170.294 132.281 169.65 136.792C169.006 141.303 167.546 139.043 169.006 144.205C170.458 149.358 181.452 166.272 183.71 169.164C185.969 172.066 188.237 171.099 189.044 168.034C189.851 164.97 190.496 146.293 190.496 146.293L192.754 138.076L168.516 118.586V118.595Z" fill="white" stroke="#2D2E2E" stroke-linecap="round" stroke-linejoin="round"/>
<path d="M177.479 134.676L189.616 149.212L190.495 146.292L192.754 138.075L177.479 134.676Z" fill="#2D2E2E" stroke="#2D2E2E" stroke-linecap="round" stroke-linejoin="round"/>
<path d="M206.552 104.376C206.552 104.376 206.243 117.421 206.388 120.196C206.533 122.971 206.243 127.943 204.184 132.192C202.134 136.432 195.821 140.527 192.446 140.527C189.072 140.527 182.323 138.041 177.479 134.678C173.279 131.758 169.116 126.343 167.936 124.734C166.766 123.125 164.997 116.399 164.997 116.399L163.972 110.839L162.947 106.301C162.947 106.301 172.191 106.591 177.18 101.474C182.169 96.3574 192.736 86.2598 192.736 86.2598L205.064 98.6897L206.552 104.367V104.376Z" fill="white" stroke="#2D2E2E" stroke-linecap="round" stroke-linejoin="round"/>
<path d="M194.651 109.672C194.651 109.672 194.506 113.912 195.531 115.665C196.556 117.419 199.35 119.616 198.615 120.782C197.88 121.948 193.626 122.102 193.182 121.804" stroke="#2D2E2E" stroke-linecap="round" stroke-linejoin="round"/>
<path d="M185.262 124.734C185.262 124.734 187.756 129.417 194.07 128.685" stroke="#2D2E2E" stroke-linecap="round" stroke-linejoin="round"/>
<path d="M189.961 107.034C189.961 107.034 185.706 104.105 180.862 106.446" stroke="#2D2E2E" stroke-linecap="round" stroke-linejoin="round"/>
<path d="M196.564 106.157C196.564 106.157 200.528 102.505 203.903 105.714" stroke="#2D2E2E" stroke-linecap="round" stroke-linejoin="round"/>
<path d="M186.433 113.326C186.433 114.7 185.807 115.812 185.036 115.812C184.265 115.812 183.639 114.7 183.639 113.326C183.639 111.952 184.265 110.84 185.036 110.84C185.807 110.84 186.433 111.952 186.433 113.326Z" fill="#2D2E2E"/>
<path d="M201.844 112.882C201.844 114.257 201.218 115.368 200.447 115.368C199.676 115.368 199.05 114.257 199.05 112.882C199.05 111.508 199.676 110.396 200.447 110.396C201.218 110.396 201.844 111.508 201.844 112.882Z" fill="#2D2E2E"/>
<path d="M192.292 90.0377C192.292 90.0377 190.169 96.6188 184.391 102.025C178.612 107.431 169.886 109.076 169.886 109.076C169.886 109.076 170.358 111.309 169.768 112.131C169.179 112.954 167.881 113.777 167.881 113.777C167.881 113.777 164.462 114.364 161.278 110.956C158.094 107.548 158.448 91.918 164.462 84.1708C170.476 76.4145 188.981 75.2393 194.287 77.4722C199.594 79.705 197.589 80.7627 197.589 80.7627C197.589 80.7627 205.844 84.4058 210.914 90.2818C215.985 96.1578 206.551 104.384 206.551 104.384L192.283 90.0468L192.292 90.0377Z" fill="#FF7294" stroke="#2D2E2E" stroke-linecap="round" stroke-linejoin="round"/>
<path d="M162.511 110.395C162.511 110.395 160.897 88.8983 173.514 78.5113L179.093 77.0469C179.093 77.0469 166.321 89.0429 165.296 110.829L162.511 110.386V110.395Z" fill="#2D2E2E" stroke="#2D2E2E" stroke-linecap="round" stroke-linejoin="round"/>
<path d="M170.331 115.015C172.263 118.748 171.346 123.051 168.28 124.624C165.214 126.197 161.169 124.443 159.237 120.71C157.305 116.976 158.221 112.673 161.287 111.1C164.353 109.527 168.398 111.281 170.331 115.015Z" fill="#2D2E2E" stroke="#2D2E2E" stroke-linecap="round" stroke-linejoin="round"/>
<path d="M167.21 120.637C167.21 120.637 175.873 131.901 186.431 135.851" stroke="#2D2E2E" stroke-linecap="round" stroke-linejoin="round"/>
<path d="M189.026 136.593C188.609 137.587 187.23 137.967 185.951 137.434C184.672 136.9 183.973 135.653 184.4 134.659C184.817 133.664 186.196 133.284 187.475 133.818C188.754 134.351 189.452 135.599 189.026 136.593Z" fill="#2D2E2E" stroke="#2D2E2E" stroke-linecap="round" stroke-linejoin="round"/>
<path d="M179.964 210.749C179.964 210.749 185.389 206.907 185.824 206.482C186.25 206.057 189.824 201.212 190.822 199.793C191.82 198.373 193.68 197.09 194.968 195.951C196.256 194.812 198.396 192.253 199.394 190.545C200.392 188.836 201.68 187.272 202.106 189.126C202.533 190.979 201.39 193.112 200.964 194.396C200.537 195.68 199.104 197.958 199.104 197.958C199.104 197.958 204.392 194.685 207.531 194.116C210.67 193.546 214.67 193.546 214.815 194.541C214.96 195.535 213.962 195.824 212.529 196.394C211.105 196.963 207.241 198.383 205.817 198.952C204.392 199.522 200.528 202.369 200.528 202.369C200.528 202.369 207.812 200.661 209.381 200.236C210.951 199.811 214.806 199.666 215.668 199.666C216.529 199.666 217.237 201.23 216.094 202.089C214.951 202.939 212.665 204.078 212.665 204.078C212.665 204.078 211.812 205.497 210.524 206.925C209.236 208.345 207.812 210.198 206.379 212.331C204.955 214.465 202.805 216.029 200.519 217.168C198.233 218.307 188.518 219.301 188.518 219.301L181.951 222.573L179.955 210.758L179.964 210.749Z" fill="white" stroke="#2D2E2E" stroke-linecap="round" stroke-linejoin="round"/>
<path d="M212.674 204.061C212.674 204.061 203.821 206.194 201.816 207.622" stroke="#2D2E2E" stroke-linecap="round" stroke-linejoin="round"/>
<path d="M207.957 209.89C207.957 209.89 202.959 212.313 202.388 212.449" stroke="#2D2E2E" stroke-linecap="round" stroke-linejoin="round"/>
<path d="M145.902 154.674C145.902 154.674 131.135 158.299 130.736 160.523C130.328 162.737 119.814 230.673 119.206 233.692C118.599 236.711 117.791 241.756 119.814 242.163C121.837 242.569 182.313 223.82 182.313 223.82L179.393 209.329L147.726 212.936L152.379 184.515" fill="#3246A8"/>
<path d="M145.902 154.674C145.902 154.674 131.135 158.299 130.736 160.523C130.328 162.737 119.814 230.673 119.206 233.692C118.599 236.711 117.791 241.756 119.814 242.163C121.837 242.569 182.313 223.82 182.313 223.82L179.393 209.329L147.726 212.936L152.379 184.515" stroke="#2D2E2E" stroke-linecap="round" stroke-linejoin="round"/>
<path d="M145.848 213.172L131.534 213.913" stroke="#929292" stroke-linecap="round" stroke-linejoin="round"/>
<path d="M173.696 210.776L145.848 213.171L151.889 189.975" stroke="#929292" stroke-linecap="round" stroke-linejoin="round"/>
<path d="M282.829 25.348H217.708C214.452 25.348 211.821 27.9787 211.821 31.215V64.491C211.821 67.7364 214.461 70.358 217.708 70.358H229.201L220.974 89.821L242.091 70.358H282.838C286.095 70.358 288.725 67.7273 288.725 64.491V31.215C288.725 27.9696 286.086 25.348 282.838 25.348H282.829Z" fill="#2D2E2E" stroke="#2D2E2E" stroke-linecap="round" stroke-linejoin="round"/>
<path d="M280.099 23.4044H214.978C211.721 23.4044 209.091 26.0351 209.091 29.2714V62.5475C209.091 65.7928 211.73 68.4144 214.978 68.4144H226.471L218.243 87.8774L239.361 68.4144H280.108C283.364 68.4144 285.995 65.7838 285.995 62.5475V29.2714C285.995 26.026 283.355 23.4044 280.108 23.4044H280.099Z" fill="white" stroke="#2D2E2E" stroke-linecap="round" stroke-linejoin="round"/>
<path d="M244.102 59C244.102 59 244.061 59 244.04 59C243 58.98 242.032 58.4509 241.475 57.5922L234.471 46.7192C233.564 45.3213 234.007 43.4642 235.449 42.5956C236.892 41.717 238.808 42.1463 239.704 43.5441L244.195 50.5132L258.348 30.3148C259.306 28.9469 261.232 28.5874 262.644 29.516C264.055 30.4445 264.426 32.3116 263.468 33.6795L246.646 57.6821C246.07 58.5008 245.112 58.99 244.092 58.99L244.102 59Z" fill="#0C93F4" stroke="#2D2E2E" stroke-linecap="round" stroke-linejoin="round"/>
</g>
<defs>
<clipPath id="clip0_1_2664">
<rect width="444" height="400" fill="white"/>
</clipPath>
</defs>
</svg>
